<svg width="16" height="18" viewBox="0 0 16 18" fill="none" xmlns="http://www.w3.org/2000/svg">
<path d="M9.55311 3.96581C11.2879 4.95576 12.6109 6.47999 14.1949 7.64906C14.5908 7.94447 14.4934 8.40329 14.5091 8.81184C14.5091 11.326 14.4777 13.8401 14.528 16.3543C14.5468 17.2499 14.2483 17.495 13.3652 17.517C10.1785 17.5893 10.1785 17.6239 10.1785 14.4624C10.1785 11.8351 10.1785 11.9168 7.51666 11.8068C6.0836 11.7471 5.48335 12.1556 5.72848 13.6076C5.75364 13.9213 5.75364 14.2366 5.72848 14.5504C5.72848 17.693 5.72848 17.649 2.6298 17.517C1.76242 17.4793 1.577 17.1462 1.60528 16.3857C1.65243 14.9746 1.63671 13.5573 1.64614 12.1494C2.51038 8.51642 4.94595 6.13425 7.97549 4.23293C8.45004 3.93752 8.94972 3.59184 9.55311 3.96581Z" fill="#D8D8D8"/>
<path d="M9.55311 3.96575C6.15273 5.26368 3.89629 7.75899 2.32495 10.9394C2.11753 11.3542 2.06411 11.8445 1.65556 12.1462C1.24073 9.35231 1.60842 6.91361 4.42426 5.40827C5.18793 4.99972 5.79761 4.29891 6.467 3.72065C8.09805 2.29702 8.09491 2.29385 9.55311 3.96575Z" fill="#D8D8D8"/>
<path d="M0.0402222 6.94201C1.07416 5.60008 2.49465 4.74211 3.70144 3.65789C4.90823 2.57366 6.10873 1.65286 7.29981 0.634632C7.69264 0.298365 8.01948 0.0721048 8.50974 0.490081C10.8919 2.52654 13.2898 4.53784 15.6719 6.57115C15.7568 6.64658 15.7379 6.84456 15.785 7.07083C14.9868 7.21854 14.6254 6.60257 14.1854 6.2443C12.3658 4.76096 10.5588 3.25878 8.79258 1.70944C8.16404 1.1469 7.75235 1.18148 7.11125 1.75344C5.22564 3.41906 3.29289 4.99667 1.36958 6.60257C1.03017 6.88856 0.731611 7.34741 0.0402222 6.94201Z" fill="#D8D8D8"/>
<path d="M9.25767 7.05829C10.1785 7.82196 9.88621 8.64848 9.23882 9.33044C8.59143 10.0124 7.74605 10.2324 6.95724 9.41215C6.91515 9.35382 6.88823 9.28594 6.87891 9.21462C6.86958 9.1433 6.87814 9.07078 6.90381 9.00359C7.97232 8.92816 8.9874 8.78673 8.94969 7.34424C9.01234 7.21329 9.12244 7.11108 9.25767 7.05829V7.05829Z" fill="#E8F4DC"/>
<path d="M6.97295 9.02869C6.97295 9.15754 6.97295 9.28327 6.97295 9.41212C6.01443 8.61074 6.03015 7.6522 6.84096 6.87282C7.59206 6.15629 8.52543 6.14374 9.27339 7.05826C9.21652 7.09617 9.1692 7.14672 9.13511 7.20596C7.82147 7.12739 6.95409 7.55477 6.97295 9.02869Z" fill="#F5F9F0"/>
<path d="M6.97294 9.02866C6.58953 8.34984 6.48268 7.68989 7.15207 7.11163C7.82146 6.53338 8.47828 6.89794 9.11939 7.20278C9.30795 9.30838 8.87426 9.67605 6.97294 9.02866Z" fill="#D8D8D8"/>
</svg>
