<svg width="18" height="18" viewBox="0 0 18 18" fill="none" xmlns="http://www.w3.org/2000/svg">
<path d="M12.721 1.53342C12.9913 1.09659 13.4532 0.986591 13.8963 0.82003C14.9271 0.430337 16.0208 0.229237 16.8316 1.08719C17.5544 1.854 17.1459 2.84709 16.8819 3.75846C15.8919 7.07085 12.4821 9.27384 9.70087 8.99728C8.66379 8.89672 8.25838 9.31155 8.36209 10.3361C8.40923 10.8043 8.36209 11.2789 8.36209 11.7503C8.36209 13.7302 9.52488 14.7421 11.5833 14.4593C12.2339 14.3713 12.8876 14.4938 13.1044 14.9589C13.4187 15.6189 12.633 15.9017 12.1962 16.1814C11.1355 16.8614 9.89716 17.2118 8.6375 17.1883C7.37783 17.1648 6.15338 16.7685 5.11884 16.0495C4.80458 15.8169 4.2766 15.6943 4.4086 15.1569C4.50288 14.7735 4.91771 14.6415 5.25712 14.5284C5.54628 14.4112 5.85666 14.3556 6.16851 14.365C7.73985 14.5001 7.89383 13.5856 7.65813 12.3788C7.59528 12.0645 7.37844 11.722 7.46643 11.4737C8.21125 9.35241 6.99818 9.07272 5.28856 8.69245C2.61729 8.09534 1.10878 6.04633 0.323115 3.51962C-0.204855 1.81629 0.637384 0.886055 2.42557 1.1249C5.34197 1.51459 7.1113 3.41275 8.51922 6.02118C8.97491 4.52526 9.92401 3.47874 10.8857 2.43852C11.7593 2.34109 11.3131 3.32791 11.6745 3.51962C11.4671 2.57996 11.8442 1.94511 12.721 1.53342Z" fill="#D7D7D7"/>
<path d="M12.721 1.53334C12.2936 2.21845 11.7782 2.85955 11.7782 4.00977L10.8857 2.43844C10.4897 1.91675 10.7159 1.57734 11.1465 1.18136C11.9164 0.452263 12.1333 1.71562 12.721 1.53334Z" fill="#FCD55A"/>
<path d="M3.45946 13.1896C3.22846 12.659 2.9563 12.1473 2.64549 11.6591C2.25266 11.128 2.68636 10.974 2.92834 10.6629C3.30232 10.1758 3.55687 10.3675 3.91827 10.6629C4.27968 10.9583 4.45883 11.1626 4.12885 11.6403C3.85659 12.1341 3.63243 12.6529 3.45946 13.1896V13.1896Z" fill="#FDD75B"/>
<path d="M9.49658 7.8628C11.2125 6.3386 13.1547 5.05641 14.6694 3.28394C13.4877 5.33107 11.672 6.93821 9.49658 7.8628V7.8628Z" fill="#FBFBFB"/>
<path d="M3.25201 4.40265C4.65679 5.48059 5.99558 6.63709 7.75548 7.54533C6.049 7.54533 4.18853 6.27254 3.25201 4.40265Z" fill="#FAFAFA"/>
</svg>
