<svg width="14" height="18" viewBox="0 0 14 18" fill="none" xmlns="http://www.w3.org/2000/svg">
<path d="M8.03585 0.857727C10.3426 1.56483 11.4928 2.9759 11.4928 5.42405C11.4928 7.73077 11.5117 9.92124 13.0641 11.9294C14.0698 13.2399 13.4978 14.0381 11.8762 14.0413C8.41926 14.0413 4.98745 14.0067 1.54622 14.0633C0.242011 14.0821 -0.0251141 13.5604 0.380291 12.4479C0.505998 12.1085 0.571987 11.7 0.804545 11.4549C1.89191 10.3109 2.22504 8.9407 2.10247 7.42593C2.44817 6.67169 2.12133 5.71948 2.78444 5.05638C3.72724 3.85273 4.20807 2.27511 5.74798 1.59943C6.4268 1.09032 7.31618 1.23171 8.03585 0.857727Z" fill="#D8D8D8"/>
<path d="M3.04215 5.23236C2.37276 5.81061 2.66189 6.8037 2.09935 7.43224C2.11506 6.48943 1.97993 5.54663 2.17478 4.64783C2.68704 2.31596 3.67697 0.480638 8.04215 0.876615C7.44819 1.50515 6.61538 1.57115 5.84228 1.81942C4.18609 2.3411 3.72411 3.87787 3.04215 5.23236Z" fill="#C6C6C6"/>
<path d="M4.7643 14.8112C5.32684 14.8615 5.24827 15.2763 5.35198 15.5277C5.63797 16.2317 6.08109 16.6025 6.88876 16.5617C7.69642 16.5208 8.14582 16.1908 8.35638 15.4366C8.42866 15.16 8.35638 14.7483 8.82778 14.808C8.8797 14.8152 8.92943 14.8337 8.97352 14.862C9.01761 14.8904 9.05501 14.928 9.08312 14.9723C9.11122 15.0165 9.12936 15.0663 9.13629 15.1183C9.14321 15.1702 9.13874 15.2231 9.12319 15.2731C8.97863 16.0588 8.69893 16.7125 7.90383 17.1305C6.91389 17.6553 6.09994 17.3505 5.3237 16.7785C4.65117 16.2819 4.39975 15.622 4.7643 14.8112Z" fill="#DCDCDC"/>
<path d="M3.04211 5.23234C3.46009 3.661 3.83721 2.05509 5.85167 1.77539C4.53803 2.62706 3.99435 4.09783 3.04211 5.23234Z" fill="#EEEEEE"/>
</svg>
