<svg width="15" height="18" viewBox="0 0 15 18" fill="none" xmlns="http://www.w3.org/2000/svg">
<path d="M10.6851 0.860881C14.8178 0.791742 14.1421 0.54664 14.1672 4.189C14.2018 8.05764 14.1326 11.9294 14.1986 15.798C14.2206 17.1054 13.7775 17.5516 12.4765 17.5139C9.75805 17.4385 7.03649 17.4605 4.3055 17.5139C3.22128 17.5328 2.81272 17.1211 2.82844 16.04C2.87872 12.5359 2.86616 9.03187 2.87559 5.52779C3.25271 4.67298 3.41298 3.5479 4.81776 3.95645C4.94094 4.12415 5.04626 4.30425 5.13203 4.49383C5.19139 4.6546 5.289 4.79849 5.41641 4.9131C5.54382 5.02771 5.6972 5.1096 5.86334 5.15168C6.02947 5.19375 6.20336 5.19474 6.36997 5.15459C6.53658 5.11445 6.69091 5.03436 6.81964 4.92123C7.40104 4.50326 7.24076 3.81815 6.81964 3.26504C6.66879 3.06076 6.41424 2.95079 6.25396 2.73709C6.42367 1.69058 7.36961 1.63713 8.09557 1.34172C8.92838 1.01174 9.84604 1.10915 10.6851 0.860881Z" fill="#D8D8D8"/>
<path d="M1.7096 17.2405C0.930218 17.0142 0.967935 16.3637 0.967935 15.7415V3.21157C0.967935 2.79673 0.908219 2.35048 1.25706 2.03935C1.41709 1.91553 1.61412 1.84913 1.81646 1.8508C2.08045 1.8508 2.13072 2.07709 2.10558 2.29707C1.6059 7.23422 2.10557 12.1902 1.83844 17.1336C1.8353 17.1651 1.77246 17.1902 1.7096 17.2405Z" fill="#DADADA"/>
<path d="M10.6851 0.860893C9.27088 1.58371 7.54241 1.58372 6.31048 2.71508C5.77937 3.12991 5.17598 3.45361 4.73914 3.97215C3.7712 4.06957 3.48206 4.97154 2.89752 5.52151C2.89752 4.43414 2.89753 3.34678 2.85354 2.26255C2.80954 1.17833 3.2778 0.798041 4.3306 0.823182C6.44248 0.876608 8.56378 0.851465 10.6851 0.860893Z" fill="#C4C4C4"/>
<path d="M6.2854 7.14939C7.51104 6.89169 7.56446 7.6365 7.61475 8.59816C7.67446 9.75781 7.17477 9.99037 6.14398 9.9778C5.20117 9.9778 4.71407 9.78611 4.73921 8.68931C4.76435 7.59252 5.02833 6.95769 6.2854 7.14939Z" fill="#FBFBFB"/>
<path d="M4.72972 3.96899C4.66373 2.80934 5.42111 2.6805 6.30106 2.71192C7.8724 2.5265 7.51099 3.65471 7.55813 4.54723C7.63041 5.73831 6.77875 5.46493 6.08736 5.55921C4.76744 5.74777 4.66373 4.94951 4.72972 3.96899Z" fill="#FBFBFB"/>
<path d="M7.54242 12.8753C7.79069 14.0632 7.291 14.387 6.20364 14.3807C5.17284 14.3807 4.69201 14.1512 4.73287 12.9979C4.77058 11.9388 5.10369 11.5114 6.19735 11.5051C7.291 11.4988 7.82212 11.7691 7.54242 12.8753Z" fill="#FBFBFB"/>
<path d="M12.511 9.56613H9.17664V9.409H12.5707L12.511 9.56613Z" fill="#F4F4F4"/>
<path d="M12.533 13.9942H9.19861V13.8339H12.5361L12.533 13.9942Z" fill="#F4F4F4"/>
<path d="M12.4575 5.15065H9.14514V5.0061H12.5864L12.4575 5.15065Z" fill="#F3F3F3"/>
<path d="M9.13892 3.42847H11.3388V3.58245H9.13892V3.42847Z" fill="#F4F4F4"/>
<path d="M9.19235 7.8031H11.2885V7.96023H9.18921L9.19235 7.8031Z" fill="#F4F4F4"/>
<path d="M10.2451 12.4165C11.099 12.4165 11.7913 12.3673 11.7913 12.3065C11.7913 12.2458 11.099 12.1965 10.2451 12.1965C9.39116 12.1965 8.69891 12.2458 8.69891 12.3065C8.69891 12.3673 9.39116 12.4165 10.2451 12.4165Z" fill="#F4F4F4"/>
</svg>
