<svg width="17" height="18" viewBox="0 0 17 18" fill="none" xmlns="http://www.w3.org/2000/svg">
<path d="M4.65303 11.1815C7.53172 10.7289 10.4324 10.5529 13.264 11.3197C14.9956 11.7848 16.3689 14.3367 16.3312 16.1909C16.3092 17.2499 15.6775 17.1808 14.9799 17.1808C10.4963 17.1682 6.01276 17.1599 1.52921 17.1557C0.960381 16.2726 1.52921 15.5466 1.92204 14.8647C2.78334 13.4946 3.94372 12.3375 5.31613 11.48C5.18952 11.489 5.06268 11.4664 4.94694 11.4143C4.83121 11.3622 4.73021 11.2822 4.65303 11.1815Z" fill="#D8D8D8"/>
<path d="M4.04967 5.55921C4.04967 2.89736 6.04527 0.804338 8.62541 0.845193C9.89543 0.844351 11.114 1.34696 12.0141 2.24294C12.9142 3.13892 13.4224 4.35518 13.4274 5.62519C13.4808 8.02306 11.1553 10.2418 8.80455 10.2638C8.17787 10.2881 7.55286 10.1835 6.96829 9.95635C6.38372 9.7292 5.85203 9.38437 5.40622 8.94326C4.9604 8.50216 4.60995 7.97419 4.3766 7.39207C4.14325 6.80994 4.03198 6.18611 4.04967 5.55921Z" fill="#D8D8D8"/>
<path d="M4.65308 11.1814H6.16785C4.09997 12.9759 1.8121 14.3241 1.52926 17.1525C1.45271 17.1608 1.37526 17.153 1.30192 17.1295C1.22858 17.1061 1.16098 17.0675 1.10351 17.0162C1.04604 16.965 0.999964 16.9022 0.968281 16.832C0.936598 16.7619 0.920004 16.6858 0.919579 16.6088C0.608454 14.6226 2.59149 11.7157 4.65308 11.1814Z" fill="#C5C5C5"/>
<path d="M5.55499 4.08527C6.56379 2.28452 6.91262 2.03628 8.45568 1.83514C8.19798 2.53596 7.4029 2.29711 7.01949 2.7308C6.63608 3.16449 6.2401 3.45674 5.55499 4.08527Z" fill="#F6F6F6"/>
<path d="M5.61464 4.85209C5.57379 5.07522 5.63978 5.38005 5.30037 5.39576C5.24381 5.39576 5.10868 5.16949 5.13382 5.0815C5.17201 4.89197 5.27543 4.72182 5.42609 4.60066C5.61151 4.49066 5.59579 4.72638 5.61464 4.85209Z" fill="#F5F5F5"/>
</svg>
