<svg width="19" height="19" viewBox="0 0 19 19" fill="none" xmlns="http://www.w3.org/2000/svg">
<path d="M18.9798 7.89159C18.3513 8.34728 18.9798 8.83441 18.9327 9.31838C18.4802 13.8847 15.5858 18.3536 10.0138 18.341C6.72026 18.341 4.24697 17.1625 2.29223 14.7489C-0.221915 11.6408 0.0923538 5.0349 2.9459 3.49499C3.88871 3.53899 4.12126 2.51133 4.84722 2.23792L4.82208 2.25675C6.10743 1.49623 7.39593 0.757713 8.96727 0.820566C10.6167 0.607549 12.2905 0.938571 13.7347 1.76337C14.9006 2.39191 15.9974 3.11787 16.5631 4.40323C16.9371 4.71749 16.9182 5.27687 17.2357 5.63828C18.0749 7.62666 18.1031 9.86447 17.3142 11.8734C16.6134 13.9947 15.0861 15.3554 13.1753 16.3642C11.604 17.1499 9.91951 17.0776 8.23817 16.9928C6.33685 16.4994 4.59581 15.7357 3.35759 14.1329C3.27589 14.1329 3.28217 13.8909 3.18161 14.0041C3.08104 14.1172 3.1816 13.8941 3.27588 14.0889C4.44723 15.508 6.05863 16.4957 7.85477 16.8954C9.74037 17.1876 11.6071 17.1468 13.3796 16.2983C15.1175 15.2989 16.5757 14.045 17.2577 12.0714C17.69 11.0373 17.9082 9.92619 17.8991 8.80535C17.8899 7.68452 17.6535 6.5772 17.2042 5.55031C16.89 5.12605 16.8742 4.52577 16.4123 4.18636C16.3569 4.0919 16.3249 3.98559 16.3189 3.87628C16.3129 3.76696 16.3331 3.65779 16.3777 3.55783C17.4305 3.8501 18.0308 4.42524 18.1156 5.63202C18.1627 6.31084 18.6781 6.95507 18.983 7.61189L18.9798 7.89159Z" fill="#FEFEFE"/>
<path d="M13.939 1.97718C12.3892 1.17679 10.6519 0.809791 8.91075 0.914957C8.8039 0.845818 8.76619 0.770364 8.78819 0.688655C8.81019 0.606945 8.84475 0.559833 8.87618 0.559833C10.6487 0.512693 12.4054 0.534664 13.9359 1.63146C14.027 1.71003 14.0553 1.78545 14.0239 1.86401C13.9925 1.94258 13.9705 1.97718 13.939 1.97718Z" fill="#97D05B"/>
<path d="M8.89503 0.559814L8.9296 0.914939C7.41168 0.896082 6.22689 1.89545 4.84412 2.24743C5.85606 0.914936 7.37397 0.745232 8.89503 0.559814Z" fill="#94CF57"/>
<path d="M13.9391 1.97713V1.63141C14.4513 1.63141 14.5676 2.38251 15.1459 2.25994C15.5742 2.45141 15.9237 2.78427 16.1358 3.20275C16.2144 3.3096 16.2898 3.41959 16.3684 3.51702L16.4815 4.04815C16.514 4.07443 16.5395 4.1083 16.5558 4.14678C16.5721 4.18525 16.5787 4.22715 16.575 4.26877C16.5712 4.31039 16.5573 4.35043 16.5344 4.38539C16.5116 4.42036 16.4804 4.44917 16.4438 4.46926C15.7807 3.47617 14.8128 2.77537 13.9391 1.97713Z" fill="#A4D571"/>
<path d="M4.84726 2.22857L2.98679 4.42845C2.61281 4.03247 3.0905 3.76849 2.94594 3.48564C3.6059 3.11167 3.91702 2.19715 4.84726 2.22857Z" fill="#9FD368"/>
<path d="M16.142 3.19963L15.1521 2.25683C15.8089 2.24426 16.1232 2.56167 16.142 3.19963Z" fill="#FEFEFE"/>
<path d="M14.2596 12.6277L13.2885 12.942C12.3897 13.2216 11.472 13.0551 10.5606 13.0425C9.61783 12.2317 8.58703 11.6032 7.27968 11.4963C5.01695 11.3141 4.61468 10.5535 5.48521 8.21539C5.61456 8.22293 5.74325 8.19205 5.8551 8.12662C5.96694 8.06119 6.05692 7.96413 6.11374 7.84768C6.8397 7.75969 7.5688 7.56486 8.27276 7.94512C8.46875 8.11745 8.63447 8.32138 8.76302 8.54849C9.25956 9.35616 9.49841 11.0375 10.6486 8.88793C11.0603 8.12426 12.22 8.63651 13.0214 8.5328L13.5933 8.27194C14.1244 7.89167 14.379 8.19024 14.3696 8.6805C14.3696 9.991 14.5927 11.3109 14.2596 12.6277Z" fill="#FDFEFC"/>
<path d="M11.4657 4.78984L11.78 5.29266C11.5443 5.72006 11.1514 5.68866 10.746 5.66666C10.46 5.6258 10.1835 5.52207 9.89435 5.4875C9.6282 5.45279 9.3578 5.47204 9.09925 5.54409C8.48957 6.10349 8.61213 6.57803 9.25638 6.99286C9.58716 7.01459 9.91916 6.97735 10.2369 6.88287C10.658 6.81373 11.0854 6.62517 11.494 6.9583C11.6825 8.13366 10.702 8.65847 10.1081 9.375C9.84092 9.68926 9.46066 9.52586 9.16525 9.23044C8.87412 8.86905 8.60845 8.48787 8.37015 8.08965C8.09387 7.85338 7.85726 7.57432 7.66934 7.26313L7.68504 7.282C7.39278 6.68803 7.56877 6.06262 7.56877 5.44979C8.97669 3.89417 9.52351 3.80304 11.4657 4.78984Z" fill="#D8ECC4"/>
<path d="M5.48517 8.20593C5.48517 8.46677 5.48517 8.72761 5.44117 8.98216C5.2149 10.5032 5.64859 11.2575 7.39592 11.0846C8.03916 10.9993 8.69277 11.1242 9.25917 11.4408C9.82556 11.7574 10.2744 12.2487 10.5386 12.8414C10.5103 13.0079 10.4255 13.0425 10.2872 12.9451C9.92891 12.8759 9.49837 13.0551 9.25324 12.6308C8.1313 12.2851 6.99994 12.4234 5.86857 12.5522L5.44432 12.9325C5.20861 12.9325 5.02319 12.832 5.02948 12.6183C5.07976 11.1569 4.81263 9.68613 5.1709 8.23735L5.48517 8.20593Z" fill="#F1E7A7"/>
<path d="M8.29474 7.89165C9.92265 9.50699 9.92579 9.51014 11.2551 7.50825C11.3453 7.32602 11.4108 7.1326 11.45 6.93312L11.6166 6.85455C11.6766 6.86402 11.7331 6.88902 11.7805 6.92706C11.8279 6.96509 11.8646 7.01486 11.8868 7.07142C11.8648 7.19339 11.8211 7.31044 11.758 7.4171C11.3337 8.78103 12.8139 7.92308 13.0465 8.52333C12.6474 9.00416 12.1037 8.8376 11.5914 8.8376C11.0006 8.85646 10.5103 9.04816 10.5386 9.70184C10.5606 10.1575 10.5198 10.4058 10.0201 10.3681C9.65238 10.3398 9.22184 10.5724 9.07727 9.90612C8.93899 9.32472 8.56816 8.79674 8.29789 8.24363C8.25976 8.21681 8.23084 8.17886 8.21509 8.13499C8.19934 8.09111 8.19752 8.04344 8.20989 7.99849C8.23504 7.92726 8.26332 7.89165 8.29474 7.89165Z" fill="#BBDF95"/>
<path d="M8.00565 16.6754C9.79698 16.732 11.5883 16.7854 13.2822 16.0469C13.631 15.9432 13.719 16.1035 13.653 16.4177C11.8038 17.396 9.6498 17.6277 7.63482 17.0651C7.56568 16.7383 7.65682 16.5811 8.00565 16.6754Z" fill="#A8D778"/>
<path d="M8.00566 16.6754L7.63483 17.0526C5.62037 16.6566 3.96733 15.7295 2.95538 13.8627C2.97562 13.8294 3.00359 13.8016 3.03691 13.7814C3.07024 13.7612 3.10795 13.7494 3.14682 13.7469C3.18569 13.7445 3.22458 13.7514 3.26019 13.7672C3.2958 13.783 3.32708 13.8071 3.35136 13.8376C4.64254 15.156 6.24229 16.1314 8.00566 16.6754V16.6754Z" fill="#B5DB8D"/>
<path d="M13.6531 16.4052L13.2948 16.0249C14.9433 15.0771 16.2667 13.653 17.0912 11.9395C17.286 11.9583 17.3143 12.1406 17.4054 12.2537C16.8272 14.2776 15.3533 15.4435 13.6531 16.4052Z" fill="#B6DB90"/>
<path d="M10.4883 5.36179L11.7768 5.29266C13.8133 5.58179 13.8133 5.5818 13.3167 6.94886L13.0967 6.87973C12.2859 6.59689 11.3997 6.76657 10.5826 6.46488C10.4963 6.40416 10.4244 6.3253 10.3718 6.23382C10.3193 6.14233 10.2874 6.04044 10.2784 5.93532C10.2694 5.83019 10.2835 5.72438 10.3198 5.62531C10.3561 5.52623 10.4136 5.43627 10.4883 5.36179V5.36179Z" fill="#81C739"/>
<path d="M17.3803 12.282L17.066 11.9677C18.034 9.76782 17.6506 7.5868 17.066 5.39949L17.1195 5.35553C18.6531 7.60254 18.2791 9.93438 17.3803 12.282Z" fill="#9AD261"/>
<path d="M11.4657 4.78988C10.0924 4.31219 8.79131 4.28391 7.66623 5.3807C7.58452 5.52526 7.49339 5.53153 7.39282 5.39954C8.67503 3.45422 10.0641 3.25625 11.4657 4.78988Z" fill="#B4DC88"/>
<path d="M1.71088 7.60875C1.68037 8.38948 1.69716 9.17136 1.76116 9.95007C1.85859 10.6886 2.12886 11.402 2.21685 12.1499C1.16091 10.654 1.25205 8.9727 1.42175 7.28194C1.68888 7.22537 1.8743 7.26934 1.71088 7.60875Z" fill="#94CF56"/>
<path d="M14.2595 12.6277C14.2595 11.4932 14.2595 10.3587 14.2187 9.22419C14.2187 8.80936 14.4009 8.21856 13.6184 8.26255C13.9547 7.69373 14.5015 7.67801 14.5109 8.30026C14.5266 9.73961 14.9352 11.2261 14.2595 12.6277Z" fill="#9BD261"/>
<path d="M5.1615 8.22485C5.24321 9.79619 4.91637 11.3864 5.43491 12.9389C5.29978 13.1086 4.98237 13.2531 4.96665 13.0394C4.86609 11.4272 4.49525 9.79934 5.1615 8.22485Z" fill="#A2D56D"/>
<path d="M5.85925 12.568C6.9969 12.1909 8.12827 12.0777 9.24392 12.6466L5.85925 12.568Z" fill="#79C32D"/>
<path d="M10.2778 12.9451C10.3252 12.961 10.3767 12.9593 10.4229 12.9403C10.4691 12.9212 10.5069 12.8861 10.5292 12.8414L13.2885 12.9326C12.286 13.5108 11.2835 13.3285 10.2778 12.9451Z" fill="#82C73A"/>
<path d="M1.71088 7.60889C1.61346 7.4989 1.51603 7.39205 1.42175 7.29463C1.70459 6.72266 1.54746 5.96212 2.26085 5.47815C2.26097 6.22351 2.07173 6.9567 1.71088 7.60889V7.60889Z" fill="#9FD366"/>
<path d="M8.29473 7.89166V8.25937C7.66619 7.7094 6.85538 7.9765 6.13257 7.83822C6.5034 7.28196 7.2765 7.79738 7.65362 7.26312C8.01189 7.31969 8.15959 7.59939 8.29473 7.89166Z" fill="#94CF56"/>
<path d="M3.35138 13.8251L2.9554 13.8502C2.68828 13.6962 2.40543 13.536 2.47143 13.1683C2.48714 13.0834 2.72913 12.942 2.7857 12.9766C2.9449 13.0576 3.08058 13.1782 3.17965 13.3268C3.27873 13.4754 3.33787 13.647 3.35138 13.8251V13.8251Z" fill="#AFD983"/>
<path d="M7.39282 5.39945L7.66623 5.38062C7.66623 6.00915 7.66623 6.63769 7.66623 7.26622C7.02512 6.73511 7.43996 6.03427 7.39282 5.39945Z" fill="#8DCC4C"/>
<path d="M16.4374 4.47879L16.4751 4.05768C16.7012 4.18091 16.8832 4.37154 16.9959 4.60304C17.1085 4.83454 17.1462 5.09539 17.1037 5.34931L17.0503 5.39332L16.4374 4.47879Z" fill="#A2D56C"/>
<path d="M11.7579 7.41716V6.97403C12.2765 6.50263 12.7982 6.59377 13.3293 6.97403H13.3104C12.9459 7.59942 12.2073 7.03375 11.7579 7.41716Z" fill="#8CCC4A"/>
<path d="M6.15148 9.66736C6.30003 9.76068 6.44086 9.86577 6.5726 9.98163C6.51621 10.0935 6.44771 10.1989 6.36832 10.2959C6.19737 10.2152 6.03951 10.1093 5.90006 9.98163C5.80893 9.85906 5.87492 9.69879 6.15148 9.66736Z" fill="#CEE8B3"/>
<path d="M8.5808 10.0538C8.41738 10.1827 8.3231 10.3209 8.21625 10.3304C8.1094 10.3398 7.8737 10.2832 7.83913 10.1952C7.73542 9.9438 7.93655 9.84954 8.15339 9.85582C8.30479 9.90054 8.44879 9.96725 8.5808 10.0538Z" fill="#BBDF95"/>
<path d="M8.92959 5.06329H9.87239C10.5449 5.7264 10.6549 6.45864 10.1238 7.26317L9.23443 7.57744C8.50533 6.81062 8.21934 5.99667 8.92959 5.06329Z" fill="#F8FBF4"/>
<path d="M10.1113 7.26317C10.2118 6.50892 10.2904 5.75783 9.85986 5.06329C10.1113 5.06329 10.3595 5.0916 10.4884 5.35873C10.5135 5.72013 10.3941 6.13179 10.8372 6.34549C11.0069 6.58119 11.582 6.37065 11.4658 6.91748H11.4469L10.1113 7.26317Z" fill="#B4DC88"/>
<path d="M8.92962 5.06329C8.71732 5.90895 8.82125 6.80303 9.22189 7.57744C8.13766 6.85462 7.82654 6.04067 8.92962 5.06329Z" fill="#B3DB87"/>
<path d="M11.4689 6.91113L10.8403 6.33918C11.648 6.65345 12.7951 5.56294 13.3388 6.96772H11.7674C11.6743 6.92397 11.5716 6.90449 11.4689 6.91113V6.91113Z" fill="#F7FBF3"/>
</svg>
