<svg width="17" height="18" viewBox="0 0 17 18" fill="none" xmlns="http://www.w3.org/2000/svg">
<path d="M16.8397 10.3964C16.3463 13.8219 13.2476 16.9206 9.96038 17.2789C5.6612 17.7471 2.24511 15.6352 0.846619 11.6472C0.969183 11.446 1.07918 11.2229 1.38087 11.2889C1.98113 11.6032 2.15397 12.2317 2.45881 12.7817C3.64674 14.8496 5.41293 15.9621 7.80136 15.9683C9.09615 15.9683 10.4129 16.1443 11.6637 15.6227C13.2774 14.9718 14.57 13.7119 15.2621 12.1155C15.5763 11.4178 15.6486 10.5849 16.2866 10.0444C16.6197 9.96584 16.7234 10.1984 16.8397 10.3964Z" fill="#BADD95"/>
<path d="M4.2124 1.88284C8.04961 -0.430171 12.8988 0.424628 15.2589 3.83758C15.2333 3.95597 15.165 4.0608 15.067 4.13209C14.9691 4.20337 14.8483 4.23612 14.7278 4.22412C14.5718 4.20233 14.4238 4.14185 14.2973 4.04815C11.6354 1.63143 8.64043 1.02805 5.29663 2.41083C5.09239 2.47732 4.87233 2.47732 4.66809 2.41083C4.55553 2.36555 4.45543 2.29398 4.37616 2.20213C4.29689 2.11029 4.24074 2.00081 4.2124 1.88284V1.88284Z" fill="#C3E3A2"/>
<path d="M0.893738 6.05012C1.37142 4.64848 2.0911 3.4134 3.32617 2.53659C3.61215 2.3826 3.72843 2.56175 3.81643 2.79116C3.3136 4.19594 2.24509 5.22358 1.38714 6.38951C1.10744 6.44608 0.994303 6.25754 0.893738 6.05012Z" fill="#BDE098"/>
<path d="M14.9698 4.14239L15.259 3.82812C16.1354 4.78512 16.6856 5.99551 16.8303 7.28507C16.7297 7.49563 16.6198 7.69364 16.3275 7.61821C15.6864 6.53713 14.9824 5.47175 14.9698 4.14239Z" fill="#B6DD8C"/>
<path d="M0.893745 6.05005L1.22373 6.38315C1.47102 8.01726 1.46041 9.68007 1.1923 11.3109L0.862318 11.6471C0.297328 9.82254 0.308301 7.86819 0.893745 6.05005Z" fill="#9BD262"/>
<path d="M16.494 7.64336L16.8083 7.29767C16.9565 8.32451 16.9681 9.36645 16.8429 10.3963L16.5254 10.0538C16.2638 9.7079 16.1197 9.2874 16.114 8.85374C16.1083 8.42008 16.2415 7.99596 16.494 7.64336V7.64336Z" fill="#9CD264"/>
<path d="M3.66244 2.84459L3.32617 2.53033L4.21241 1.86719L4.60839 2.22231C4.6241 2.94198 4.21555 3.00173 3.66244 2.84459Z" fill="#BFE19B"/>
<path d="M3.66253 2.84455C4.04215 2.75522 4.37687 2.53208 4.60533 2.21601C7.43374 0.980939 10.2119 0.745215 12.9209 2.4674C13.6357 2.97977 14.319 3.53495 14.9667 4.12989C15.6067 5.2349 16.1181 6.40953 16.4909 7.63084C16.4909 8.43536 16.4909 9.23777 16.4909 10.0381C15.7461 11.8954 15.1993 13.8565 13.386 15.0664C9.13079 17.9388 3.95794 16.6377 1.64179 12.0777C1.50351 11.8043 1.32752 11.5466 1.17353 11.2826C0.70611 9.67174 0.717028 7.95969 1.20495 6.35489C1.84569 5.06947 2.67393 3.88644 3.66253 2.84455V2.84455Z" fill="#FEFEFE"/>
<path d="M7.69452 3.80939C8.1125 2.39204 9.26586 2.53661 10.3564 2.55232C11.4469 2.56803 11.7674 3.34741 11.9277 4.19279C12.1603 5.44986 12.8391 6.78551 11.538 7.89487C10.9692 8.24371 10.4035 8.37884 9.85668 7.85401C9.75993 7.7232 9.68949 7.57484 9.64927 7.41718C9.5799 7.2213 9.56898 7.00949 9.61784 6.80752C9.96353 5.98414 9.88497 5.48443 8.86046 5.25816C8.52292 5.20029 8.21815 5.02114 8.00344 4.75434C7.78873 4.48755 7.67887 4.15149 7.69452 3.80939V3.80939Z" fill="#7CC531"/>
<path d="M10.8687 15.0602C9.907 15.871 8.78193 15.2645 7.7417 15.4216C7.60342 15.2205 7.59714 14.9596 7.42743 14.7679C6.93403 14.218 6.23007 13.7434 6.74547 12.8383C7.8674 12.1815 9.16533 11.7604 9.81587 10.4907C10.0547 10.2236 10.2778 9.88419 10.7021 10.1576C10.8471 10.2661 10.955 10.4167 11.0113 10.5888C11.0675 10.7609 11.0693 10.9461 11.0164 11.1193C10.8745 12.4278 10.8251 13.7447 10.8687 15.0602V15.0602Z" fill="#EFF7E6"/>
<path d="M7.69451 3.80939C8.03392 4.18337 8.36076 4.86533 8.71274 4.87791C10.6958 4.96276 10.0767 6.19468 9.8881 7.26948C9.49841 7.58375 9.21242 7.34806 8.9453 7.08722C8.63103 6.42725 7.56566 6.56866 7.44938 5.69185C6.93713 4.98475 7.33939 4.39707 7.69451 3.80939Z" fill="#E5E39D"/>
<path d="M10.8686 15.0602C10.372 13.8031 10.6706 12.5271 10.812 11.2606C10.856 10.8835 10.9377 10.5001 10.5449 10.3178C10.4412 10.2707 10.1709 10.5944 9.97606 10.7452L9.76864 10.7138C9.50538 10.6127 9.26261 10.4647 9.05211 10.277C8.95282 10.1755 8.88419 10.0481 8.85412 9.90932C8.84223 9.7705 8.879 9.63185 8.95813 9.51717C9.03726 9.4025 9.15381 9.31893 9.28781 9.28078C9.66941 9.20405 10.0258 9.03336 10.3249 8.78421C10.6392 8.87535 10.8246 8.51708 11.12 8.54222C11.1074 10.717 11.4751 12.9074 10.8686 15.0602Z" fill="#B7D97A"/>
<path d="M5.55115 11.3612C5.66428 10.4184 5.52915 9.20533 7.15391 9.74901C7.26356 9.86163 7.34473 9.99881 7.39064 10.1491C7.43656 10.2995 7.4459 10.4586 7.4179 10.6133C7.38906 10.7647 7.3326 10.9096 7.25133 11.0406C6.82393 11.4272 6.30853 11.4649 5.75856 11.4586L5.55115 11.3612Z" fill="#BFDC88"/>
<path d="M8.0591 14.8244L7.74483 15.4215C6.51604 15.145 5.59524 14.5227 5.27155 13.2217C5.32533 13.1731 5.38849 13.1361 5.45713 13.1128C5.52577 13.0896 5.59844 13.0806 5.67066 13.0865C6.5129 13.5862 7.00002 14.6013 8.0591 14.8244Z" fill="#BEE19A"/>
<path d="M9.02073 6.96143L9.88811 7.27569C9.92583 7.3704 9.93881 7.47313 9.92582 7.57423C9.83179 7.91472 9.62727 8.21429 9.34443 8.42589C8.84789 8.6993 8.61218 9.25872 8.12821 9.54784C8.06059 9.56581 7.98975 9.56806 7.92112 9.55444C7.85249 9.54082 7.78788 9.5117 7.73223 9.46928C7.67567 8.58304 8.67504 8.14304 8.67504 7.28509C8.68809 7.20022 8.72925 7.1222 8.79193 7.06351C8.85461 7.00482 8.93519 6.96887 9.02073 6.96143Z" fill="#D0E8B3"/>
<path d="M9.21875 8.2751L9.92585 7.56799C10.3627 8.14939 10.9975 7.788 11.5318 7.90114L11.1075 8.52967C10.8812 8.52967 10.9787 9.20848 10.5575 8.7905C9.95728 8.43223 9.73729 9.19591 9.27218 9.22734C8.57136 8.95707 8.80078 8.62079 9.21875 8.2751Z" fill="#A6D772"/>
<path d="M9.02072 6.96146L8.67816 7.27573C7.85792 7.06203 7.37395 6.59061 7.43995 5.68866C7.6945 6.45547 9.03957 5.86152 9.02072 6.96146Z" fill="#CDE198"/>
<path d="M7.72599 9.46295H8.06854C8.38281 10.3335 7.98055 10.6823 7.15088 10.72C7.15088 10.39 7.15088 10.0632 7.15088 9.73322L7.72599 9.46295Z" fill="#DDEDC9"/>
<path d="M5.52614 13.2311C5.43501 13.2311 5.34387 13.2311 5.25273 13.2311C5.25273 12.6025 4.93846 11.9049 5.54814 11.3675C6.07297 11.9866 6.05411 12.6088 5.52614 13.2311Z" fill="#9DD364"/>
<path d="M5.52612 13.231V11.3454C5.99197 11.0793 6.52884 10.964 7.06289 11.0155C7.33945 10.8458 7.43373 11.0312 7.5123 11.2449C7.27031 11.7948 6.88376 12.2819 6.79891 12.9042C6.61978 13.9287 7.52172 14.2461 8.05598 14.8118C6.86805 14.8464 6.18609 14.0607 5.52612 13.231Z" fill="#DDEDC9"/>
<path d="M6.8115 12.9169C6.21439 12.0652 6.67322 11.6346 7.44004 11.3455C7.77316 10.717 8.06857 10.0476 8.96109 10.0885H9.00823C9.44192 10.9684 8.67511 11.2104 8.26027 11.6064C8.91081 11.5624 8.97995 10.255 9.94789 10.7233V10.7578C9.3665 12.1343 8.23513 12.7409 6.8115 12.9169Z" fill="#CEE197"/>
<path d="M8.98299 10.0852L7.46193 11.3423L7.08795 11.028C7.11624 10.9306 7.14452 10.8332 7.16966 10.7358C7.61906 10.4215 8.0779 10.1073 8.08732 9.47873C8.40159 9.0199 8.42673 8.27507 9.23126 8.28135C9.28783 8.54219 8.84471 8.87533 9.33811 9.0796C9.37506 9.13214 9.39132 9.19646 9.38378 9.26025C9.37624 9.32404 9.34543 9.38281 9.29725 9.42529C9.03013 9.56357 9.00498 9.82754 8.98299 10.0852Z" fill="#F8FBF5"/>
<path d="M9.95725 10.7169C9.0333 11.0752 8.52733 12.194 7.26398 12.1469C7.84223 11.3832 8.97045 11.1695 9.01759 10.0821C9.22029 10.0794 9.41897 10.1387 9.58694 10.2522C9.75492 10.3657 9.88414 10.5279 9.95725 10.7169V10.7169Z" fill="#F0E5A4"/>
<path d="M9.29724 9.42528L9.3161 9.06387C9.98549 7.9985 10.0452 7.98279 10.548 8.7936C10.24 9.20844 10.174 10.1167 9.29724 9.42528Z" fill="#DAECC5"/>
</svg>
