<svg width="28" height="28" viewBox="0 0 28 28" fill="none" xmlns="http://www.w3.org/2000/svg">
<path d="M27.936 0.00384521C27.936 4.76186 28.0711 9.52299 27.936 14.2779C27.7474 21.3269 21.5752 27.0371 14.3753 27.0183C7.28229 26.9963 1.16035 21.264 0.97493 14.2779C0.84608 9.52299 0.97493 4.76186 0.97493 0.00384521H27.936Z" fill="#7CC330"/>
<path d="M26.0755 13.9354C26.0409 20.2585 20.9686 25.1925 14.567 25.1296C8.32248 25.0699 3.41361 20.0228 3.45133 13.6997C3.48904 7.37662 8.55818 2.44262 14.9598 2.50548C21.2012 2.56519 26.1132 7.61233 26.0755 13.9354Z" fill="#FEFEFE"/>
<path d="M21.6663 12.9014C21.9786 13.1797 22.2292 13.5204 22.4018 13.9015C22.5745 14.2826 22.6653 14.6957 22.6686 15.114C22.6719 15.5324 22.5874 15.9468 22.4207 16.3305C22.2541 16.7142 22.0088 17.0588 21.7009 17.342C21.484 17.5431 21.3866 17.8794 21.22 18.1245C20.4815 19.1239 19.3344 19.2496 18.8002 18.1999C18.2973 17.2037 17.6185 17.21 16.7732 17.2288C15.9278 17.2477 15.1044 17.254 14.259 17.2288C13.5551 17.2068 12.9579 17.2289 12.6028 18.0334C12.3703 18.5582 11.6443 19.105 11.2169 18.7468C10.1075 17.804 8.52363 17.4551 7.79767 16.044C7.86557 15.963 7.95504 15.9029 8.05572 15.8706C8.15639 15.8384 8.26414 15.8353 8.36649 15.8618C8.6118 16.0282 8.88979 16.1403 9.18189 16.1907C9.474 16.2411 9.7735 16.2286 10.0604 16.1541C11.0629 15.1641 11.9774 15.4092 12.8448 16.352C14.1773 16.3206 15.5035 16.1666 16.836 16.1886C18.0931 16.2106 17.4645 14.9755 17.9517 14.4727C18.7468 14.787 18.1999 15.6198 18.6556 16.1792C19.545 15.2364 20.4281 15.2647 21.2452 16.2829C21.374 16.4432 21.5783 16.6223 21.7637 16.4714C21.884 16.3239 21.9445 16.1367 21.9334 15.9466C20.7643 15.2741 21.1698 14.2276 21.2672 13.2565C21.3112 13.0239 21.5186 12.9956 21.6663 12.9014Z" fill="#94CE56"/>
<path d="M18.6178 13.2502C18.2407 13.6933 17.8762 13.9856 17.8636 13.0647C17.8479 11.6883 17.8636 10.3118 17.8793 8.93526C17.8438 8.90661 17.8157 8.86992 17.7973 8.82819C17.7789 8.78647 17.7708 8.74094 17.7735 8.69542C17.7763 8.6499 17.7899 8.60571 17.8132 8.56652C17.8366 8.52733 17.8689 8.49429 17.9076 8.47015C18.4827 9.09869 19.0704 9.64866 20.0603 9.45381C20.2649 9.40884 20.479 9.44678 20.6557 9.55927C20.8324 9.67177 20.9573 9.84968 21.0031 10.0541C20.9102 10.1586 20.7968 10.2431 20.67 10.3023C20.0415 10.5412 19.3312 10.2238 18.7435 10.6386C18.4701 10.7486 18.4984 10.9089 18.6681 11.0943C18.6871 11.2193 18.6871 11.3464 18.6681 11.4714C18.6076 11.7828 18.6076 12.1029 18.6681 12.4142C18.6917 12.5378 18.6917 12.6646 18.6681 12.7882C18.628 12.81 18.5938 12.8413 18.5684 12.8792C18.5429 12.9171 18.5271 12.9606 18.5221 13.006C18.5172 13.0514 18.5233 13.0973 18.54 13.1399C18.5567 13.1824 18.5834 13.2202 18.6178 13.2502V13.2502Z" fill="#9ACE54"/>
<path d="M17.9642 14.4695C17.7788 16.6223 17.7788 16.6694 15.5695 16.6034C14.6675 16.5814 13.7122 16.9177 12.8574 16.3489L13.4859 16.0723C14.6895 15.3212 16.022 15.8838 17.2854 15.7015C17.7882 15.4375 17.364 14.6738 17.9642 14.4695Z" fill="#FEF7DF"/>
<path d="M18.6179 13.2502C18.4482 13.1496 18.2502 13.0554 18.533 12.8574C18.9636 12.364 19.677 12.65 20.1421 12.2697C20.1858 12.2138 20.2171 12.1492 20.2338 12.0803C20.2504 12.0113 20.2521 11.9395 20.2387 11.8698C20.2253 11.8002 20.1971 11.7341 20.1561 11.6763C20.115 11.6184 20.062 11.57 20.0007 11.5343C19.5356 11.2798 18.9259 11.4401 18.5299 11.0064C18.3005 10.8807 18.3256 10.7612 18.5299 10.6512C19.1364 10.051 20.0792 10.6827 20.6763 10.0604H20.9906C21.3709 10.9718 20.8649 12.0906 21.6506 12.9077L21.264 13.2596L18.6179 13.2502Z" fill="#88C637"/>
<path d="M17.9077 8.47015L17.8794 8.93526L8.81591 8.80644C8.50164 8.89444 8.39165 8.80644 8.47964 8.49217L17.9077 8.47015Z" fill="#7EC433"/>
<path d="M12.9988 11.9585C12.8763 12.3231 13.0334 12.6625 13.1685 13.0144C12.0026 12.9893 10.9687 12.9705 11.3018 11.3363C11.4809 10.428 11.9806 10.5883 12.5589 10.6889C12.6751 10.868 12.5966 11.0377 12.5589 11.2105C12.5484 11.2996 12.5636 11.3897 12.6025 11.4704C12.6415 11.5511 12.7026 11.6191 12.7788 11.6663C12.8714 11.7476 12.9462 11.8471 12.9988 11.9585V11.9585Z" fill="#94CE56"/>
<path d="M17.2947 15.7015C16.0817 16.3772 14.7492 15.8178 13.4952 16.0723C13.137 15.6387 13.5235 15.4909 13.8095 15.4972C14.9629 15.5349 16.1539 15.1892 17.2947 15.7015Z" fill="#FED553"/>
<path d="M15.0195 13.1496C14.2181 13.3288 13.4136 13.5645 13.4796 12.2257C13.5204 11.3363 13.2847 10.3055 14.7806 10.6544C14.8261 10.7039 14.8576 10.7646 14.872 10.8303C14.8863 10.896 14.883 10.9643 14.8623 11.0283C14.5481 11.4872 15.1138 12.0685 14.6706 12.5054C14.8246 12.7065 15.1672 12.7945 15.0195 13.1496Z" fill="#88C943"/>
<path d="M10.073 16.1509C9.52932 16.8109 9.00763 17.0434 8.5488 16.0724C8.58125 16.0056 8.63399 15.9508 8.69946 15.9158C8.76494 15.8808 8.8398 15.8674 8.91335 15.8775C8.88821 15.8052 8.83478 15.8555 8.80336 15.8586C8.2691 15.9309 7.70028 15.6858 7.19745 16.0284C7.13146 15.9058 6.98375 15.6952 7.00889 15.6701C7.73485 15.007 9.52932 15.2961 10.073 16.1509Z" fill="#DFF0CC"/>
<path d="M10.8334 14.5575C10.3595 14.836 9.81971 14.9829 9.26997 14.9829C8.72022 14.9829 8.18045 14.836 7.70648 14.5575H10.8334Z" fill="#FED656"/>
<path d="M15.4124 10.6953L16.5186 10.623C15.9875 11.5186 15.3338 12.342 16.6569 13.0303C16.1855 13.3948 15.7926 13.2628 15.3998 13.178C14.9347 12.3483 14.8624 11.5218 15.4124 10.6953Z" fill="#88C944"/>
<path d="M8.47957 8.48279L8.81584 8.79706C8.15588 10.3275 8.81584 11.9837 8.25645 13.5362C8.29102 11.8549 7.56191 10.1516 8.47957 8.48279Z" fill="#8ECB4D"/>
<path d="M11.0315 10.7203C10.1295 11.3929 10.6889 12.5274 9.8247 12.9674C9.39416 10.9058 9.48215 10.7298 11.0315 10.7203Z" fill="#88C944"/>
<path d="M15.4124 10.6952V13.1779L15.029 13.1465L14.0862 12.628C15.051 12.386 14.9661 11.7103 14.7681 10.9875L14.787 10.6732L15.4124 10.6952Z" fill="#C9E6AB"/>
<path d="M7.19427 16.0284C7.87309 15.2082 8.70276 15.7456 9.56071 15.6827C9.24644 16.173 8.84418 15.9373 8.54562 16.0724L7.8071 16.0409L7.19427 16.0284Z" fill="#7DC432"/>
<path d="M12.1816 11.044L12.5588 10.6889C13.1873 10.9435 13.4136 11.3394 12.9987 11.946L12.5053 11.8894C12.3953 11.7789 12.3096 11.6466 12.2539 11.501C12.1981 11.3554 12.1735 11.1997 12.1816 11.044V11.044Z" fill="#9DD264"/>
<path d="M11.308 16.0754C12.0748 16.1603 12.4299 16.6034 12.4205 17.2351C12.4254 17.3684 12.402 17.5012 12.3517 17.6248C12.3015 17.7484 12.2256 17.8599 12.1291 17.952C12.0325 18.0441 11.9175 18.1147 11.7917 18.159C11.6659 18.2034 11.5321 18.2205 11.3991 18.2093C11.2681 18.2216 11.136 18.2063 11.0112 18.1644C10.8865 18.1226 10.7719 18.0551 10.6748 17.9663C10.5777 17.8775 10.5003 17.7694 10.4475 17.6488C10.3947 17.5283 10.3678 17.3981 10.3683 17.2665C10.3369 16.5594 10.7832 16.2577 11.308 16.0754Z" fill="#E7F2D0"/>
<path d="M19.853 18.2093C19.2464 18.0679 18.8756 17.6688 18.9605 17.0183C18.9648 16.8881 18.9961 16.7603 19.0523 16.6429C19.1085 16.5254 19.1884 16.4208 19.2871 16.3358C19.3857 16.2508 19.5008 16.1871 19.6253 16.1488C19.7497 16.1105 19.8807 16.0984 20.0101 16.1132C20.1544 16.1152 20.2964 16.1491 20.426 16.2125C20.5556 16.2759 20.6696 16.3672 20.7597 16.4799C20.8498 16.5926 20.9139 16.7238 20.9473 16.8641C20.9807 17.0045 20.9826 17.1505 20.9529 17.2917C20.9419 17.4245 20.9046 17.5538 20.8431 17.6721C20.7816 17.7904 20.6973 17.8953 20.595 17.9807C20.4926 18.066 20.3743 18.1302 20.2469 18.1695C20.1195 18.2087 19.9856 18.2223 19.853 18.2093V18.2093Z" fill="#EDF4D7"/>
<path d="M20.4343 11.2798C20.8146 11.6412 20.7266 12.1126 20.7486 12.562C20.023 12.7839 19.2494 12.7959 18.5173 12.5966C18.423 12.5134 18.3474 12.4111 18.2957 12.2965C18.244 12.1819 18.2172 12.0576 18.2172 11.9319C18.2172 11.8062 18.244 11.6819 18.2957 11.5673C18.3474 11.4527 18.423 11.3504 18.5173 11.2672C19.1435 11.0822 19.8105 11.0866 20.4343 11.2798V11.2798Z" fill="#FBD551"/>
<path d="M20.6858 10.0604C20.2269 11.1949 19.2559 10.4595 18.5393 10.6512C18.4231 10.337 18.3476 10.0227 18.8536 10.0227C19.4507 10.0384 20.0792 10.0541 20.6858 10.0604Z" fill="#DFD14B"/>
<path d="M18.5079 12.5965L20.7392 12.562C20.0729 13.1653 19.2715 12.7599 18.5393 12.8573C18.5267 12.7693 18.5079 12.6845 18.5079 12.5965Z" fill="#C5CD43"/>
<path d="M20.4344 11.2798H18.5048C18.5178 11.1933 18.5262 11.1062 18.5299 11.0189C19.1679 11.0755 19.8624 10.7487 20.4344 11.2798Z" fill="#C5CD43"/>
<path d="M12.1817 11.0441C12.4708 11.2641 12.6562 11.5186 12.496 11.902C11.6349 11.8926 11.8643 11.4903 12.1817 11.0441Z" fill="#E7F4DA"/>
<path d="M14.7618 10.9875C15.2897 11.8455 15.3495 12.5117 14.0798 12.628C13.687 12.2855 15.5223 11.7984 14.0107 11.5312C14.1081 11.1195 14.4821 11.129 14.7618 10.9875Z" fill="#FDFEFD"/>
<path d="M11.8078 17.2351C11.7795 17.5054 11.5846 17.5714 11.3646 17.5494C11.1446 17.5274 11.0252 17.3325 11.0504 17.1094C11.0476 17.0581 11.0575 17.007 11.0792 16.9604C11.1008 16.9138 11.1335 16.8732 11.1744 16.8422C11.2154 16.8112 11.2633 16.7907 11.314 16.7825C11.3646 16.7743 11.4166 16.7786 11.4652 16.7951C11.563 16.8202 11.6496 16.877 11.7116 16.9566C11.7736 17.0362 11.8074 17.1342 11.8078 17.2351V17.2351Z" fill="#FEDD70"/>
<path d="M19.8341 16.7291C20.1044 16.6914 20.271 16.7825 20.337 16.9962C20.3627 17.0527 20.3746 17.1145 20.3718 17.1765C20.369 17.2386 20.3516 17.299 20.3209 17.353C20.2903 17.4069 20.2473 17.4529 20.1954 17.487C20.1436 17.5212 20.0844 17.5425 20.0227 17.5494C19.975 17.563 19.9251 17.5669 19.8758 17.5608C19.8266 17.5547 19.7792 17.5386 19.7363 17.5137C19.6934 17.4887 19.656 17.4554 19.6264 17.4156C19.5968 17.3758 19.5755 17.3305 19.5639 17.2822C19.5407 17.2285 19.5294 17.1705 19.5308 17.112C19.5321 17.0536 19.5461 16.9961 19.5718 16.9435C19.5975 16.891 19.6342 16.8446 19.6795 16.8076C19.7248 16.7706 19.7775 16.7438 19.8341 16.7291V16.7291Z" fill="#FEDE75"/>
</svg>
