<svg width="39" height="48" viewBox="0 0 39 48" fill="none" xmlns="http://www.w3.org/2000/svg">
<path d="M18.7002 44.4379C18.7002 44.5478 18.7222 44.6547 18.7316 44.7521C18.7803 45.3619 18.7803 45.9746 18.7316 46.5843C18.4173 47.4643 17.7228 47.6465 16.8648 47.6402C13.0685 47.6182 9.27213 47.6402 5.47892 47.6402C4.71211 47.6402 4.01442 47.5554 3.70015 46.7163C3.48785 46.0412 3.48785 45.3172 3.70015 44.6421C3.80487 44.4306 3.85934 44.1978 3.85934 43.9618C3.85934 43.7257 3.80487 43.4929 3.70015 43.2814C3.43303 42.7534 3.70015 42.1563 3.48331 41.6189C3.75358 41.0406 4.24071 40.4906 3.69703 39.8181C3.46761 39.2619 3.60588 38.6805 3.56817 38.1116C3.75359 37.5208 3.3419 37.0117 3.33561 36.446C3.2779 35.8564 3.30543 35.2616 3.41733 34.6798C3.48942 34.4292 3.583 34.1853 3.69703 33.9507C4.15272 31.1443 3.86044 28.3285 3.84472 25.5189C3.82273 24.3876 4.47326 23.5045 4.9101 22.5303C5.57949 21.0783 5.46321 19.617 4.9541 18.1525C4.36328 17.0463 4.203 15.8238 4.0113 14.6107L3.69703 14.0482C3.48573 13.4167 3.49347 12.7325 3.71901 12.106C4.31298 11.688 3.62159 11.292 3.7033 10.8835C3.40789 10.3681 3.72216 9.76155 3.45504 9.23986C3.88244 8.06136 4.98866 7.75025 5.96918 7.26942C6.64171 8.13051 7.38024 8.46049 8.26333 7.53968C8.3899 7.46516 8.52496 7.40608 8.6656 7.36369C9.99495 7.26313 11.274 6.8483 12.5845 6.65974C13.543 6.52146 14.027 6.07833 14.0993 5.13867C15.4852 6.60002 17.242 7.61196 18.7379 8.93189C18.5933 9.56042 18.8762 10.1607 18.7379 10.7766L18.521 11.4052C18.6698 11.5896 18.777 11.804 18.8353 12.0337C18.917 12.6465 18.8856 13.2656 18.9736 13.8785C18.851 14.7238 18.2476 15.3178 17.8548 16.0218C17.2514 16.6503 17.2703 17.3857 17.484 18.1588C17.484 18.5422 17.484 18.9162 17.0126 19.0387C16.89 18.9947 16.8303 18.9224 16.868 18.8407C16.9308 18.7025 16.7957 18.7402 16.8208 18.8407C17.0597 19.689 17.0823 20.5836 16.8868 21.4429C16.7737 21.8577 16.8051 21.9049 17.2011 21.7572C17.8296 22.4077 17.7731 23.2845 17.9962 24.0702C18.565 26.6252 18.2005 29.2179 18.3105 31.7949C18.3356 32.4234 18.2162 33.0331 18.3796 33.6396C18.5682 33.9539 18.8919 34.1864 18.9547 34.5824C19.0773 35.6164 18.4048 36.5655 18.6405 37.612C18.6993 37.7398 18.7476 37.8723 18.785 38.0079C18.8887 38.5611 18.9044 39.1236 18.9673 39.683C18.9583 39.7878 18.9287 39.8898 18.8801 39.9831C18.8316 40.0764 18.7651 40.1592 18.6844 40.2267C18.3419 40.4844 18.389 40.7798 18.6059 41.0878C18.6767 41.2073 18.7326 41.3349 18.7724 41.468C18.8919 41.9991 18.8762 42.5523 18.9736 43.0865C18.9736 43.5579 18.7724 43.9822 18.7002 44.4379Z" fill="#E8CE5E"/>
<path d="M18.7002 44.4378C17.8611 43.9727 18.7662 43.583 18.7567 43.1525C18.7567 42.5082 18.8416 41.8577 18.5053 41.2669C18.1911 40.8458 17.7574 40.4246 18.5273 40.0098C18.5996 39.8967 18.675 39.7867 18.7505 39.6735C18.7505 39.045 18.8353 38.3788 18.499 37.7879C18.0685 37.3385 18.3293 36.9426 18.5713 36.5309C18.9044 35.9495 18.7442 35.3084 18.7253 34.6893L18.1753 34.0293C17.7951 31.5654 18.0811 29.089 18.0182 26.6157C17.9962 25.6729 17.9711 24.7647 17.5405 23.9067C17.3394 23.1839 17.1351 22.4642 16.934 21.7414C16.6448 20.8487 16.6448 19.8875 16.934 18.9947C17.2483 18.7056 17.1948 18.3379 17.1446 17.9702C16.89 17.1783 17.2294 16.4963 17.55 15.808L18.741 13.9224C18.8139 13.2496 18.7311 12.5689 18.499 11.9331V11.4052C20.3847 12.0054 22.2954 11.3297 24.1999 11.4272C28.8447 11.666 33.0936 12.8131 36.208 16.4931C38.3419 19.0073 38.2539 22.15 37.7794 25.1512C37.4997 26.9048 37.1226 28.7339 36.0855 30.2895C35.1207 29.661 35.3344 28.6333 35.3281 27.7251C35.3218 26.8168 35.0673 26.3926 34.1213 26.27C31.3811 25.9275 28.6089 25.9275 25.8686 26.27C24.863 26.3926 24.6116 26.8608 24.5456 27.8005C24.4418 29.7961 24.9384 31.7383 24.8975 33.7276C24.8378 36.7509 24.379 39.7552 24.5361 42.7848C24.5613 43.3065 24.643 43.9947 23.8259 44.1361C23.7505 43.9036 23.719 43.5076 23.3985 43.6207C21.8931 44.199 20.2212 43.8973 18.7002 44.4378Z" fill="#DAECC8"/>
<path d="M3.91706 34.3656L3.70336 34.6138C3.47072 35.2749 3.47072 35.9955 3.70336 36.6566C3.63422 37.0651 4.26904 37.4674 3.71907 37.8854C3.70474 37.9088 3.68465 37.9281 3.66072 37.9415C3.63678 37.9549 3.6098 37.962 3.58236 37.962C3.55492 37.962 3.52794 37.9549 3.50401 37.9415C3.48007 37.9281 3.45998 37.9088 3.44566 37.8854C1.72347 35.7546 0.97237 33.2908 0.912659 30.5881C1.13118 29.9926 1.13118 29.3388 0.912659 28.7433C1.10436 24.2273 1.44064 19.7427 3.65308 15.6478C3.79757 15.3186 3.91118 14.9766 3.99248 14.6264C4.82529 15.6038 4.65873 16.9551 5.27155 18.0173C5.61501 19.5775 5.60427 21.1948 5.24013 22.7502L4.09934 25.3052C4.27219 28.2091 4.14963 31.1129 4.16849 34.0167C4.16849 34.2084 4.01762 34.2587 3.91706 34.3656Z" fill="#DAECC8"/>
<path d="M23.8416 44.1236C24.1559 39.8747 24.6493 35.6384 24.3916 31.3643C24.3413 30.5221 24.1307 29.6453 24.1402 28.7685C24.1653 25.8898 24.1622 25.8018 26.9686 25.6258C29.6291 25.4425 32.301 25.514 34.9478 25.8395C35.6675 25.9306 35.7524 26.3109 35.7649 26.8954C35.7901 28.0331 35.5795 29.199 36.0792 30.2958C35.9472 30.5912 35.8215 30.8929 35.4695 30.9998C35.3192 30.9312 35.1837 30.834 35.0704 30.7138C34.3256 30.1638 33.4708 30.4938 32.6694 30.3995C31.1955 30.2612 29.6744 30.7138 28.2414 30.0569C28.2131 29.0481 29.0333 29.287 29.555 29.243C30.8529 29.1362 32.1666 29.2619 33.4645 29.0042C34.2942 28.8407 34.8347 28.539 34.7216 27.5742C34.599 26.5497 33.8605 26.9049 33.2822 26.908C31.0352 26.908 28.7851 27.0274 26.538 26.8326C26.0258 26.7886 25.435 26.622 25.281 27.3637C25.1395 28.0142 25.1615 28.6207 25.9472 28.9036C26.3966 29.0576 26.8586 29.1896 27.0314 29.7081C27.0405 29.7736 27.0348 29.8402 27.0148 29.9032C26.9948 29.9662 26.961 30.0239 26.9158 30.0721C26.8706 30.1203 26.8152 30.1578 26.7536 30.1818C26.6921 30.2058 26.6259 30.2158 26.56 30.211C25.0516 30.0664 25.1804 30.918 25.4947 31.9048C25.391 34.7144 25.2181 37.5177 24.8976 40.3115C24.9133 41.6629 24.9321 43.0142 24.8755 44.3656C24.786 45.1998 24.4364 45.9848 23.8762 46.6094C23.8139 46.7134 23.7238 46.7979 23.6161 46.8534C23.5084 46.909 23.3873 46.9333 23.2665 46.9237C22.7605 45.8458 24.2187 45.1701 23.8416 44.1236Z" fill="#A67E54"/>
<path d="M8.42357 3.57363L8.0873 3.06766C7.81703 2.31656 8.0873 1.52146 7.89246 0.764074C7.92859 0.557872 8.04051 0.372621 8.20623 0.2447C8.37194 0.116779 8.57948 0.0554253 8.78811 0.0726813C10.306 0.0915374 11.8239 0.09468 13.3418 0.0726813C14.1715 0.0726813 14.4544 0.490654 14.4135 1.24804C14.3727 2.00542 14.5864 2.81938 14.0332 3.51077C12.1728 4.30587 10.2872 4.23673 8.42357 3.57363Z" fill="#73A439"/>
<path d="M14.0868 5.14494C14.621 6.08774 14.3853 6.74456 13.2917 6.91427C11.6732 7.16568 10.1144 7.81935 8.42997 7.65593C8.01199 7.34167 7.52488 7.56166 7.07548 7.48309C7.52174 7.58994 8.01828 7.35109 8.42997 7.65593C7.13519 9.12356 6.6072 9.04499 5.95667 7.27566C7.0114 6.57827 7.87553 5.62882 8.47081 4.51326C10.237 4.36241 12.0126 4.06386 13.7411 4.7521L14.0868 5.14494Z" fill="#F2E5A6"/>
<path d="M35.4475 30.5756C35.4632 30.7138 35.4758 30.8521 35.4915 30.9935C35.3155 35.5441 36.0635 40.0539 36.0823 44.5982C36.0832 44.8529 36.1412 45.1042 36.252 45.3336C37.1383 47.0966 36.8806 47.502 34.9038 47.6592C31.6208 47.9215 28.322 47.9215 25.0389 47.6592C24.3853 47.6057 23.6405 47.722 23.2791 46.9363C23.3608 46.8232 23.4456 46.7132 23.5305 46.6032C26.9623 46.9992 30.4035 46.7824 33.8416 46.8075C35.6706 46.8075 35.7586 46.6409 35.1395 44.9376C34.7404 42.7 35.2149 40.4247 34.8064 38.1903C34.7215 36.1287 34.4324 34.0797 34.3978 32.0149C34.4858 31.3392 34.5015 30.6101 35.4475 30.5756Z" fill="#A88057"/>
<path d="M13.7442 4.75214C11.9843 4.69557 10.2086 5.10412 8.47388 4.51329C8.47388 4.31216 8.47388 4.11103 8.47388 3.90676C10.2351 3.63078 12.0279 3.62336 13.7913 3.88476C13.7599 4.17388 13.7442 4.47244 13.7442 4.75214Z" fill="#809E33"/>
<path d="M13.7725 3.88478L8.45513 3.90678C8.45513 3.79679 8.43313 3.68365 8.42371 3.57366L14.0271 3.5108L13.7725 3.88478Z" fill="#C4C4AE"/>
<path d="M18.7285 46.5843C18.5421 46.3151 18.4423 45.9956 18.4423 45.6682C18.4423 45.3408 18.5421 45.0212 18.7285 44.7521C18.9442 45.0086 19.0624 45.333 19.0624 45.6682C19.0624 46.0033 18.9442 46.3277 18.7285 46.5843V46.5843Z" fill="#D6BB49"/>
<path d="M18.7379 10.783C18.5522 10.5113 18.4528 10.1898 18.4528 9.86061C18.4528 9.53144 18.5522 9.20995 18.7379 8.93823C19.0868 9.55105 19.2439 10.1639 18.7379 10.783Z" fill="#D7BF58"/>
<path d="M7.88625 0.764038C8.32622 1.49942 8.03395 2.29767 8.08109 3.06763C7.56884 2.33853 7.82654 1.54342 7.88625 0.764038Z" fill="#6A9830"/>
<path d="M0.912635 28.7339C1.13161 28.9913 1.25186 29.3183 1.25186 29.6563C1.25186 29.9942 1.13161 30.3212 0.912635 30.5786C0.909493 29.9627 0.909493 29.3499 0.912635 28.7339Z" fill="#D1D2B5"/>
<path d="M3.68765 44.6484V46.7195C3.44953 46.4269 3.31952 46.0612 3.31952 45.6839C3.31952 45.3067 3.44953 44.941 3.68765 44.6484Z" fill="#D2B848"/>
<path d="M3.43935 37.876C3.52967 37.8587 3.62244 37.8587 3.71276 37.876C3.71276 38.5234 3.69705 39.1707 3.69076 39.8181C3.12194 39.2367 3.42364 38.5359 3.43935 37.876Z" fill="#D3BA4E"/>
<path d="M3.71281 12.1123C3.71281 12.7597 3.69709 13.4071 3.69081 14.0545C3.24769 13.4039 3.12198 12.7534 3.71281 12.1123Z" fill="#D4BA4F"/>
<path d="M3.47709 41.6251C3.90135 42.1342 3.64994 42.7282 3.69394 43.2876C3.20368 42.7879 3.34824 42.2065 3.47709 41.6251Z" fill="#D1B745"/>
<path d="M3.44875 9.24615C3.91387 9.73641 3.64675 10.3367 3.69703 10.8898C3.19106 10.4058 3.34819 9.81498 3.44875 9.24615Z" fill="#D2B744"/>
<path d="M17.5531 23.9225C18.1314 24.4787 18.1816 25.1795 18.1816 25.9338C18.1816 28.6396 18.1816 31.3423 18.1816 34.045C17.5154 33.7811 17.8894 33.2154 17.8674 32.8068C17.7354 29.8464 18.1188 26.8703 17.5531 23.9225Z" fill="#D2B847"/>
<path d="M3.91699 34.3655C3.97566 31.3423 4.03642 28.319 4.09927 25.2958C4.58953 28.209 4.31612 31.138 4.23755 34.0607C4.23441 34.1676 4.02699 34.265 3.91699 34.3655Z" fill="#CEB442"/>
<path d="M11.8209 14.4945H5.61407V14.3373H11.8052L11.8209 14.4945Z" fill="#DDC250"/>
<path d="M5.24011 22.7408C5.24011 21.1632 5.25058 19.5856 5.27153 18.0079C5.93778 19.5887 6.01321 21.1663 5.24011 22.7408Z" fill="#D1BA4B"/>
<path d="M18.7379 34.705C19.731 35.8175 18.2948 36.754 18.5117 37.8099C18.1974 37.6905 17.7983 37.3919 17.9805 37.1814C18.5997 36.4366 18.2885 35.4592 18.7379 34.705Z" fill="#D6BF55"/>
<path d="M16.9466 19.0105V21.7572C16.942 21.8085 16.9282 21.8585 16.9058 21.9049C16.8509 21.9702 16.791 22.0311 16.7266 22.0871C16.5208 20.9588 16.5208 19.8025 16.7266 18.6742C16.7675 18.6742 16.824 18.6962 16.8398 18.7213C16.8805 18.8157 16.9162 18.9122 16.9466 19.0105V19.0105Z" fill="#D5BA46"/>
<path d="M18.5053 37.8068C19.1496 38.3599 19.2784 38.9853 18.7567 39.6924C18.2571 39.1204 18.565 38.4384 18.5053 37.8068Z" fill="#D5BE51"/>
<path d="M18.5053 41.2638C19.1339 41.8169 19.2878 42.4392 18.7567 43.1494C18.2571 42.5774 18.565 41.8955 18.5053 41.2638Z" fill="#D5BD50"/>
<path d="M18.5116 11.9331C19.0395 12.5396 19.3318 13.1902 18.7536 13.9224C18.2507 13.3096 18.5681 12.5994 18.5116 11.9331Z" fill="#D5BE51"/>
<path d="M17.5626 15.8237L17.1572 17.9859C16.6763 17.1499 16.9183 16.4491 17.5626 15.8237Z" fill="#D5BA47"/>
<path d="M18.5336 40.0319C18.0936 40.4373 18.5336 40.8584 18.5116 41.2889C18.1313 41.1098 17.6851 40.9212 17.7605 40.4278C17.8108 40.0601 18.2099 40.0381 18.5336 40.0319Z" fill="#D2BB4C"/>
<path d="M3.6876 36.6566C3.45 36.3692 3.32001 36.008 3.32001 35.6352C3.32001 35.2624 3.45 34.9012 3.6876 34.6138C3.69807 35.2926 3.69807 35.9736 3.6876 36.6566Z" fill="#D1B74A"/>
<path d="M34.8001 31.7791C34.9196 33.8973 35.3312 35.9966 35.1458 38.1305C34.7781 38.7087 34.203 38.781 33.6028 38.7213C32.1949 38.3379 30.8498 38.6993 29.5173 39.089C29.0107 39.4105 28.4291 39.5946 27.8297 39.6232C27.5349 39.5295 27.219 39.5248 26.9216 39.6098C26.6242 39.6947 26.3585 39.8656 26.1578 40.1009C25.6518 40.4498 25.1458 40.8269 24.5142 40.3492C24.7237 37.4014 24.9332 34.4546 25.1427 31.5089C25.8121 31.0155 26.5506 31.336 27.2577 31.3486C29.181 31.3832 31.1043 31.3486 33.0245 31.3737C33.6185 31.3831 34.2596 31.3392 34.8001 31.7791Z" fill="#E29E74"/>
<path d="M33.5431 38.4133L35.1332 38.1305C35.8215 39.6044 35.3155 41.1663 35.4475 42.6811C35.5167 43.4511 35.4475 44.2304 35.4475 45.0067C34.9887 45.5566 34.3444 45.5284 33.7316 45.5346C31.4029 45.5629 29.0742 45.5692 26.7486 45.5346C25.9095 45.5346 25.0893 45.4184 24.4576 44.7678C24.4576 43.3012 24.4659 41.8294 24.4827 40.3524C24.7613 40.3731 25.0411 40.3369 25.3053 40.2462C25.5695 40.1554 25.8125 40.0119 26.0195 39.8244C26.494 39.5384 26.9403 39.1456 27.5657 39.3656C28.1348 39.3225 28.6834 39.1343 29.159 38.8187C30.6204 38.6522 32.0377 38.0676 33.5431 38.4133Z" fill="#C6622C"/>
<path d="M26.9434 29.8998C26.8519 29.7092 26.702 29.5528 26.5155 29.4534C26.329 29.3539 26.1156 29.3165 25.9063 29.3467C24.841 29.4724 24.7404 28.8502 24.7404 28.0079C24.7404 26.1223 24.7058 26.2575 26.6637 26.4366C29.108 26.6403 31.5653 26.6319 34.0081 26.4114C34.5047 26.3674 35.3752 26.0783 35.1615 26.7571C34.8944 27.6088 36.1263 28.9884 34.379 29.3467C32.8949 29.6161 31.3858 29.7215 29.8787 29.661C29.3256 29.661 28.7222 29.4661 28.2256 29.9061C28.0417 30.0479 27.8157 30.1243 27.5834 30.1232C27.3512 30.122 27.126 30.0434 26.9434 29.8998V29.8998Z" fill="#C49A6C"/>
<path d="M24.4638 44.7646C28.1156 45.3492 31.7831 45.2455 35.4632 45.0066C35.6472 45.3138 35.8508 45.6088 36.0729 45.8897C36.6668 46.5622 36.3274 47.0588 35.658 47.0965C31.8271 47.3165 27.9868 47.4108 24.159 47.0368C23.939 47.0148 23.7442 46.7445 23.5305 46.5874C23.6813 45.8992 24.4513 45.5252 24.4638 44.7646Z" fill="#EFEEED"/>
<path d="M26.9434 29.8998C27.3597 29.7615 27.8094 29.7615 28.2257 29.8998C30.347 29.9721 32.4777 30.1104 34.5833 29.793C35.3407 29.6798 35.5261 29.881 35.435 30.5661C34.8221 30.7515 34.8253 31.2763 34.7719 31.7697C31.5443 31.7697 28.3105 32.0997 25.105 31.4994C25.0391 31.2581 24.9329 31.0296 24.7907 30.8238C24.5142 30.5346 24.313 30.2392 24.5581 29.8809C24.8033 29.5227 25.1175 29.8087 25.4067 29.8307C25.9378 29.8778 26.4469 29.8841 26.9434 29.8998Z" fill="#EFEFEE"/>
<path d="M8.42988 7.65599H6.90881C7.43364 7.30087 7.94905 7.17516 8.42988 7.65599Z" fill="#EFEDE4"/>
<path d="M33.5431 38.4134L29.1685 38.8157C30.5921 38.3317 32.0094 37.7849 33.5431 38.4134Z" fill="#DCBEAA"/>
<path d="M27.5719 39.3562L26.0258 39.815C26.4249 39.2777 26.846 38.8094 27.5719 39.3562Z" fill="#DDC0AE"/>
<path d="M29.9603 27.4706C30.3563 27.5334 30.6863 27.7063 30.6329 28.1588C30.6073 28.3154 30.5234 28.4566 30.3981 28.5539C30.2728 28.6513 30.1153 28.6976 29.9572 28.6836C29.555 28.6648 29.2312 28.4542 29.2815 28.0048C29.3224 27.6623 29.6146 27.4989 29.9603 27.4706Z" fill="#A07143"/>
</svg>
