<svg width="47" height="45" viewBox="0 0 47 45" fill="none" xmlns="http://www.w3.org/2000/svg">
<path d="M5.94972 16.3952C5.42175 15.6001 5.75487 14.7075 5.67002 13.881C5.934 13.0356 5.79573 12.1777 5.76431 11.3197C5.28976 10.1758 5.5726 8.97846 5.50032 7.80309C6.05029 6.32918 7.24136 6.97656 8.23759 6.96399C8.74179 7.10526 9.26332 7.17509 9.78693 7.17141C15.3903 7.17141 20.9969 7.19969 26.5971 7.14312C27.5682 6.86315 28.5959 6.84472 29.5764 7.0897C30.2517 7.21274 30.9423 7.22759 31.6223 7.1337C32.1471 7.01742 32.6751 6.90115 33.1276 7.33169C33.5959 8.17079 33.3633 9.08844 33.4136 9.97468C33.3634 10.6708 33.2153 11.3564 32.9736 12.0111C32.2068 15.091 31.594 18.2179 30.4815 21.2003C29.7901 23.0482 29.2244 24.9715 28.0647 26.6057C26.7857 27.5642 25.1263 26.9703 23.7876 27.6648C22.6373 28.2525 21.0597 27.9131 20.2709 29.2896C20.1832 30.0196 20.1684 30.7565 20.2269 31.4895C20.3192 32.2735 20.5312 33.0387 20.8554 33.7585C20.9216 33.8894 20.9784 34.0248 21.0251 34.1639C21.1634 34.6604 21.3834 35.1475 21.2483 35.6849C19.8556 37.1726 18.113 38.2886 16.1791 38.9313C14.0107 39.6981 11.7511 40.0627 9.48209 40.3864C8.76556 40.3864 8.08046 40.3392 7.64363 39.6541C7.32936 38.969 7.45192 38.2305 7.39849 37.5171C6.91766 35.7006 7.27279 33.8213 6.95224 31.9954C6.77128 31.3512 6.7844 30.668 6.98995 30.0312C7.02138 29.9495 7.10937 29.8521 7.02138 29.7484C6.98366 29.9275 6.84853 29.9715 6.70711 29.9872C5.90258 29.2644 6.21057 28.3531 6.27656 27.4731C6.60969 26.436 6.46826 25.3707 6.45569 24.3116C6.11285 23.0136 6.06347 21.6555 6.31113 20.3361C6.41063 19.8861 6.37342 19.4166 6.20428 18.9879C5.96858 18.1236 6.37713 17.2217 5.94972 16.3952Z" fill="#DABE9C"/>
<path d="M33.9824 6.32281C38.137 8.71125 41.176 12.0865 42.8102 16.6088C43.8598 19.5158 43.8473 22.5233 43.1999 25.5246C43.0647 26.1531 42.9547 26.7471 43.3884 27.3002C42.6593 27.9821 41.9082 27.4008 41.1886 27.3002C40.2049 27.1871 39.2055 27.1682 38.2407 26.9136C37.2665 26.8068 36.2766 26.9482 35.3055 26.7659C34.303 26.3542 33.1716 26.7974 32.1785 26.3008C32.1043 26.2511 32.0415 26.1862 31.9944 26.1103C31.9472 26.0344 31.9168 25.9494 31.9051 25.8608C31.9679 24.9809 31.9397 24.0978 31.9428 23.2179C31.9742 21.9608 31.8831 20.7037 32.2382 19.4781C32.2854 18.6798 32.2665 17.8784 32.2696 17.0802C32.2739 16.2826 32.372 15.4884 32.5619 14.7138C32.549 13.839 32.6312 12.9655 32.807 12.1085C33.0754 11.4752 33.202 10.7908 33.1779 10.1034C33.2344 9.18264 33.0396 8.24613 33.3287 7.33789C33.4145 6.93073 33.6472 6.5694 33.9824 6.32281Z" fill="#DAECC8"/>
<path d="M33.9824 6.32279C33.951 6.67477 33.9824 7.04875 33.6335 7.2656C33.4198 7.2656 33.203 7.2656 33.005 7.2656C32.5673 7.24354 32.132 7.34364 31.7479 7.55472C31.0484 7.32065 30.2916 7.32065 29.5921 7.55472C29.1918 7.35712 28.7515 7.25434 28.3051 7.25434C27.8588 7.25434 27.4184 7.35712 27.0182 7.55472C25.8397 7.26873 24.6423 7.43531 23.4544 7.42902C18.8787 7.40702 14.3029 7.42902 9.72405 7.42902C9.21494 7.42902 8.68382 7.56101 8.19671 7.28445C7.36704 7.55158 6.24511 6.65592 5.66685 7.91299C5.57886 8.04812 5.49086 8.04184 5.40601 7.91299C4.27778 5.65969 4.77747 3.31839 5.03517 0.999095C5.3683 0.775965 5.74542 0.851379 6.10368 0.851379H32.6184C32.9799 0.851379 33.357 0.775965 33.687 0.999095C34.2746 2.74328 33.6964 4.55975 33.9824 6.32279Z" fill="#C09E7C"/>
<path d="M36.1509 42.4416C33.8567 43.1927 31.5531 42.7119 29.237 42.5013C29.139 42.4224 29.056 42.3266 28.9919 42.2185C28.4922 41.8225 27.8951 41.7753 27.2948 41.7313C26.8674 41.6528 26.4651 41.5396 26.308 41.0651C26.1257 41.0054 26.7794 40.7508 26.2389 40.776C26.0005 40.7678 25.7654 40.7178 25.5443 40.6283C25.1341 40.4949 24.7802 40.2283 24.5387 39.8709C23.9354 39.0817 23.2378 38.3693 22.4614 37.7496C22.3019 37.6124 22.1688 37.4473 22.0685 37.2625C21.8684 36.7647 21.6255 36.2852 21.3426 35.8294C21.2948 35.7064 21.2549 35.5804 21.2232 35.4523C21.1433 34.9432 20.973 34.4526 20.7203 34.0035V34.0035C20.2898 33.2021 20.2961 32.275 19.9818 31.4422C19.9315 30.9606 19.9315 30.4751 19.9818 29.9934C21.5091 29.852 22.7002 30.9362 24.127 31.1437C24.7744 31.4045 25.5035 31.2756 26.1414 31.5711C27.6059 32.0205 29.1113 32.0362 30.6229 31.9828C31.6254 31.9828 32.6248 32.0079 33.6273 31.9513C34.743 31.9513 35.8555 31.9513 36.9711 31.9513C37.7631 32.0519 38.5802 31.8853 39.3564 32.1556C40.9277 33.639 40.2552 35.4366 39.6707 36.9325C38.907 38.9595 38.1465 41.1342 36.1509 42.4416Z" fill="#E29E73"/>
<path d="M26.3772 40.9268L27.3546 41.502C27.8228 41.5077 28.2784 41.6544 28.6619 41.9231C28.677 41.9855 28.6775 42.0506 28.6633 42.1133C28.6491 42.176 28.6207 42.2346 28.5802 42.2845C28.3948 42.4888 28.09 42.6365 28.2251 43.0041C28.2974 43.2336 28.4199 43.4567 28.2974 43.705C23.068 44.8961 17.9265 44.2424 12.8291 42.9319C9.90329 42.1776 7.12202 41.1782 4.65816 39.2518C0.695244 36.1374 -0.0747126 32.5265 1.76061 28.0482C2.94226 25.1695 4.58901 22.5013 6.22006 19.8332C6.74803 21.37 6.10693 23.023 6.68833 24.5472C6.73232 25.49 6.83918 26.4077 6.62862 27.3348C6.66633 28.199 6.35834 29.0915 6.8486 29.9181C7.30114 30.5749 6.8486 31.3637 7.16287 32.0425C7.61541 33.7175 7.16287 35.4586 7.52742 37.1399C7.66294 37.8787 7.71565 38.6302 7.68455 39.3806C8.02082 40.5906 9.14276 39.9023 9.831 40.2637C10.2186 40.2395 10.6076 40.2596 10.9907 40.3235C11.4408 40.4464 11.9072 40.4994 12.3734 40.4806C13.0648 40.5466 13.8128 40.336 14.413 40.8703C14.6204 41.4077 14.0045 41.656 13.9636 42.1933C14.6267 42.0016 14.1428 41.1343 14.7273 40.974C15.5038 40.7406 16.3302 40.7297 17.1126 40.9426C18.5079 42.0676 19.9033 41.9639 21.2986 40.9426C21.7391 40.8284 22.1991 40.8112 22.6468 40.8923C23.4325 41.0086 23.4482 41.9545 24.0893 42.2248C24.2788 42.338 24.4947 42.3993 24.7153 42.4026C24.936 42.4059 25.1537 42.3511 25.3464 42.2436C25.3746 42.2138 25.3957 42.178 25.4081 42.1389C25.4204 42.0998 25.4237 42.0583 25.4176 42.0177C25.4115 41.9772 25.3963 41.9385 25.3731 41.9047C25.3499 41.8708 25.3192 41.8427 25.2835 41.8225C24.677 41.6308 23.8568 41.5365 24.743 40.6629C25.0177 40.5811 25.3073 40.5623 25.5903 40.608C25.8732 40.6537 26.1422 40.7627 26.3772 40.9268V40.9268Z" fill="#DAECC8"/>
<path d="M24.2369 31.5271C22.8259 31.1154 21.3331 30.9143 20.1515 29.9557C19.8372 29.7075 20.1106 29.2675 19.8529 28.9972C20.6889 27.5861 22.2696 27.8753 23.5141 27.3913C26.1257 27.0393 28.6901 26.3385 31.3425 26.2662C31.586 26.1655 31.85 26.1246 32.1125 26.1468C33.1496 26.4202 34.2495 25.9802 35.2709 26.4265C36.2923 26.8728 37.3105 26.6119 38.335 26.5334L43.401 27.3159C44.4789 27.7779 45.7769 27.8376 46.4777 28.9941C46.4997 30.1726 45.4846 30.5968 44.8215 31.2756C43.973 31.9513 43.0396 32.2876 41.9522 31.9859C41.9145 31.9545 41.8359 31.9136 41.8422 31.8916C42.4299 29.6006 42.1565 29.1889 39.6801 28.661C38.8975 28.3467 38.4984 29.4278 37.741 29.1983C37.3482 29.1072 36.9019 28.1958 36.5814 29.2769C35.9515 29.55 35.2723 29.6912 34.5858 29.6917C34.4182 29.5599 34.2756 29.3992 34.1647 29.2172C33.3319 28.1927 32.0276 28.1833 30.934 27.7276C30.8061 27.7492 30.6808 27.7839 30.56 27.8313C30.1357 28.0544 29.8089 28.4158 29.4035 28.661C29.1245 28.8819 28.8039 29.0443 28.4607 29.1386C27.3545 29.0098 26.2608 28.9595 25.3652 29.7986C25.076 29.9432 24.7681 30.072 24.7146 30.4523C24.6612 30.8325 24.5732 31.2411 24.2369 31.5271Z" fill="#DF8141"/>
<path d="M41.7542 31.7848C42.7882 31.7188 43.8535 31.7565 44.6329 30.8766C45.1358 30.6786 45.5757 30.3423 46.1666 30.16C46.4156 30.7222 46.4348 31.3595 46.22 31.9357C45.4626 36.3354 42.5022 40.3769 38.0113 41.8068C37.543 41.7597 37.1596 41.9985 36.7542 42.1871L36.1414 42.4322C36.5028 41.2003 37.7379 40.5812 38.2093 39.3838C39.0955 37.1336 40.4092 35.006 39.5921 32.4259C39.9283 31.6245 40.7014 31.7974 41.3268 31.6528C41.4802 31.6465 41.6311 31.6931 41.7542 31.7848V31.7848Z" fill="#DC966C"/>
<path d="M33.665 0.995978H5.0069C5.30231 0.433439 5.83656 0.68171 6.26397 0.68171C14.9797 0.669139 23.6933 0.669139 32.4048 0.68171C32.8353 0.665997 33.3664 0.436581 33.665 0.995978Z" fill="#8D653C"/>
<path d="M6.54998 24.6195C5.94658 23.0481 6.45884 21.4202 6.23571 19.8332C6.17286 19.5189 6.11 19.2046 6.05029 18.8904L6.21056 18.9061C6.87995 19.4152 6.54997 20.1474 6.59397 20.7917C6.67254 21.9671 6.52798 23.1613 6.86739 24.3209C6.76997 24.4121 6.75111 24.6038 6.54998 24.6195Z" fill="#B69A75"/>
<path d="M28.3067 43.6987L27.9925 43.089C27.7599 42.4888 28.3696 42.4416 28.621 42.1462C28.6623 42.1037 28.712 42.0704 28.767 42.0482C28.8219 42.0261 28.8809 42.0158 28.9401 42.0178C28.9993 42.0199 29.0575 42.0344 29.1108 42.0603C29.164 42.0862 29.2113 42.1229 29.2495 42.1682C29.2688 42.2719 29.2783 42.3771 29.2778 42.4825C29.7272 43.5101 29.259 43.7961 28.3067 43.6987Z" fill="#F4CC76"/>
<path d="M46.2199 31.9357V30.4995L44.6329 30.8923C45.2363 30.2638 46.1571 29.9181 46.4651 29.0067C46.6065 29.9809 46.7322 30.9866 46.2199 31.9357Z" fill="#CE733F"/>
<path d="M5.38407 7.91932C5.47095 7.91459 5.55802 7.91459 5.64491 7.91932C5.70776 9.07583 5.54749 10.2543 5.93404 11.3763C5.9158 11.4062 5.89018 11.4309 5.85963 11.448C5.82909 11.4652 5.79464 11.4742 5.75961 11.4742C5.72458 11.4742 5.69014 11.4652 5.6596 11.448C5.62905 11.4309 5.60343 11.4062 5.58519 11.3763C5.11379 10.2543 5.40921 9.07583 5.38407 7.91932Z" fill="#AF8F6E"/>
<path d="M6.21369 18.8999L6.13512 18.881H6.05341C6.02198 18.0514 5.99371 17.2217 5.96228 16.392C6.57825 17.1777 6.23569 18.0545 6.21369 18.8999Z" fill="#916A43"/>
<path d="M5.58514 11.3888H5.9497C5.85856 12.2122 6.31425 13.0921 5.69829 13.8621C5.65115 13.0387 5.61657 12.2122 5.58514 11.3888Z" fill="#A07A52"/>
<path d="M36.7637 42.1871C37.1094 41.8351 37.4236 41.3668 38.0207 41.8068C37.6311 42.0488 37.2445 42.2813 36.7637 42.1871Z" fill="#D17F50"/>
<path d="M19.6235 22.0551C16.418 21.9419 14.2652 19.8238 14.2338 16.7125C14.2024 13.6013 16.3394 11.2945 19.6738 11.37C22.587 11.4265 25.2835 13.8841 25.0666 16.7125C24.8341 19.7672 23.1056 21.8256 19.6235 22.0551Z" fill="#97D058"/>
<path d="M12.3041 40.8703C11.8485 40.8891 11.3613 41.04 10.9874 40.6471C10.6542 40.1695 10.0917 40.622 9.71144 40.3329C9.6678 40.2801 9.64664 40.2124 9.65251 40.1442C9.65839 40.076 9.69084 40.0128 9.74287 39.9683C11.2482 39.3052 12.9138 39.4435 14.4977 39.0255C17.037 38.3593 19.064 37.0425 21.0722 35.5372C21.1885 35.4177 21.2891 35.4366 21.3708 35.578C21.7699 36.062 21.9396 36.6842 22.3136 37.1745L22.5964 37.4605C23.2403 38.3006 23.9903 39.0538 24.8277 39.7012C24.8975 39.8782 25.0192 40.03 25.1768 40.1366C25.3344 40.2431 25.5206 40.2995 25.7108 40.2983C25.5851 41.2725 24.7146 40.4429 24.3563 40.8577C23.8975 41.0442 23.4006 41.1175 22.9075 41.0714C22.4393 41.0714 21.9647 41.0714 21.5059 41.0714C21.0282 40.9049 21.0691 40.3769 20.802 40.0658C19.9566 39.7295 19.7554 41.1154 18.9163 40.776C18.1244 40.072 17.5901 41.0431 16.9113 41.0903C15.3777 41.2757 13.8629 40.3957 12.3041 40.8703Z" fill="#D3B696"/>
<path d="M32.3482 23.287C32.3199 24.145 32.6028 25.0312 32.1282 25.8546C32.0119 25.8294 31.9931 25.688 31.9554 25.6692C31.7511 25.5717 31.9019 25.754 31.9019 25.776C31.9 25.8978 31.8627 26.0163 31.7947 26.1173C31.7266 26.2183 31.6307 26.2974 31.5185 26.3448C30.34 26.6591 29.1584 26.7974 27.9705 26.4045C29.5701 22.6333 30.9969 18.8213 31.9114 14.8238C32.1282 13.881 31.9962 12.8376 32.6216 11.9954L32.8133 12.1714C32.8667 12.9467 32.8667 13.7248 32.8133 14.5001C32.5767 15.3374 32.4842 16.2088 32.5399 17.0771C32.5399 17.869 32.5399 18.6484 32.5399 19.4529C32.1428 20.6924 32.0767 22.0141 32.3482 23.287Z" fill="#D3B696"/>
<path d="M8.17468 7.2845C13.9069 7.2845 19.6392 7.2845 25.3714 7.2845C25.9151 7.2845 26.5279 7.06137 26.9962 7.5642C21.1047 7.5642 15.2111 7.57048 9.31548 7.58306C8.91636 7.59248 8.46381 7.7119 8.17468 7.2845Z" fill="#A8835D"/>
<path d="M27.9705 26.414C29.2292 26.5224 30.4972 26.428 31.726 26.1343C31.8265 26.1971 31.8642 26.2694 31.836 26.3417C31.8077 26.414 31.7794 26.458 31.748 26.458C30.3055 27.1965 28.7027 26.5931 27.1942 27.0362C26.0283 27.3756 24.7367 27.2845 23.5016 27.3851C24.8687 26.4926 26.55 27.0425 27.9705 26.414Z" fill="#CD733D"/>
<path d="M7.2948 37.4762C7.13138 35.6817 7.42993 33.8589 6.98053 32.0833C7.07167 31.9702 7.08424 31.769 7.27909 31.769C7.81334 32.5673 7.54935 33.4661 7.53993 34.3083C7.56299 35.3729 7.66065 36.4346 7.83219 37.4856C7.79715 37.5218 7.75504 37.5505 7.70846 37.5697C7.66189 37.589 7.61184 37.5985 7.56145 37.5976C7.51105 37.5967 7.46138 37.5855 7.41551 37.5646C7.36963 37.5437 7.32855 37.5136 7.2948 37.4762Z" fill="#B29069"/>
<path d="M32.9767 7.29389C33.1841 6.99533 33.3978 6.91048 33.6052 7.29389C32.9924 8.16755 33.4732 9.17949 33.2344 10.1223C33.159 10.2763 33.0835 10.2763 33.0081 10.1223L32.9767 7.29389Z" fill="#AC8A63"/>
<path d="M7.26957 31.7566L6.97101 32.0708L6.86731 29.9118C6.91131 29.717 6.95844 29.519 7.00244 29.321L7.26957 29.3021V31.7566Z" fill="#9B754C"/>
<path d="M20.1263 31.4736C20.5474 32.2687 20.626 33.1424 20.7391 34.0098C19.9849 33.441 20.2237 32.4856 19.8686 31.7596C19.8892 31.6966 19.9227 31.6386 19.9671 31.5893C20.0115 31.5401 20.0657 31.5007 20.1263 31.4736V31.4736Z" fill="#D28150"/>
<path d="M6.54999 24.6195L6.86426 24.3052C6.81397 25.3203 7.20995 26.37 6.64113 27.3473C6.61389 26.4339 6.58351 25.5246 6.54999 24.6195Z" fill="#9F7B51"/>
<path d="M33.0364 10.0941C33.1118 10.0988 33.1874 10.0988 33.2627 10.0941C33.2627 10.7226 33.511 11.4014 33.0742 12.0017C32.9484 12.1682 32.8259 12.1651 32.7065 12.0017H32.6248C32.7599 11.3606 32.8982 10.7257 33.0364 10.0941Z" fill="#B4A07A"/>
<path d="M9.74292 39.9683V40.2826C9.84348 40.3298 9.88119 40.3863 9.85605 40.446C9.83091 40.5058 9.80263 40.5435 9.7712 40.5435C9.14267 40.0218 7.96416 40.7666 7.59961 39.6007C7.69389 39.4781 7.76931 39.4938 7.83216 39.6289C8.43556 39.9935 9.09238 39.9935 9.74292 39.9683Z" fill="#B99B77"/>
<path d="M20.1264 31.4737L19.8687 31.7628L19.8404 28.9816C20.1924 29.2236 20.0918 29.6101 20.1389 29.9401C20.1358 30.4523 20.1295 30.9615 20.1264 31.4737Z" fill="#CA6E39"/>
<path d="M7.83534 39.651C7.75848 39.6367 7.68081 39.6273 7.60278 39.6227C7.47707 38.9125 7.65306 38.1551 7.28851 37.4763H7.83534C7.83534 38.2022 7.83534 38.925 7.83534 39.651Z" fill="#946C43"/>
<path d="M29.5701 7.57989C29.8863 7.35953 30.2625 7.24139 30.648 7.24139C31.0335 7.24139 31.4097 7.35953 31.7259 7.57989H29.5701Z" fill="#A8835D"/>
<path d="M21.3709 35.5812C21.2703 35.5812 21.1697 35.5592 21.0723 35.5435L20.7203 33.9941C20.9558 34.1806 21.1394 34.4246 21.2533 34.7025C21.3672 34.9805 21.4077 35.2831 21.3709 35.5812V35.5812Z" fill="#D28150"/>
<path d="M32.3482 23.287C31.8202 22.0299 31.9428 20.7729 32.3828 19.5378C32.4676 19.4027 32.5493 19.3964 32.6342 19.5378C32.2131 20.7572 32.4582 22.0362 32.3482 23.287Z" fill="#A7845C"/>
<path d="M38.3193 26.5177C37.1062 27.0489 35.8523 26.6529 34.5701 26.7566C34.7335 26.348 35.054 26.5209 35.2552 26.4109L38.3193 26.5177Z" fill="#C8652F"/>
<path d="M32.389 17.0394C32.4833 16.194 32.103 15.2952 32.6656 14.5001C32.7291 14.5248 32.7867 14.5624 32.8349 14.6105C32.883 14.6587 32.9206 14.7163 32.9453 14.7798C32.8573 15.532 32.7672 16.2831 32.675 17.0331C32.5839 17.1651 32.4864 17.1745 32.389 17.0394Z" fill="#BC9B79"/>
<path d="M32.9453 14.786L32.6656 14.5063C32.6656 13.6735 32.6939 12.8407 32.7065 11.9922H33.0742C33.0302 12.9287 32.9768 13.8432 32.9453 14.786Z" fill="#956D44"/>
<path d="M32.3891 17.0394C32.4841 17.0285 32.5801 17.0285 32.6751 17.0394C32.6751 17.8754 32.6499 18.7082 32.6342 19.5536H32.3828C32.386 18.705 32.386 17.8722 32.3891 17.0394Z" fill="#9F8058"/>
<path d="M31.748 26.4486C31.748 26.3386 31.748 26.2318 31.726 26.1343C31.7417 25.8201 31.7574 25.5309 31.7762 25.1915C32.2194 25.2952 31.9899 25.6692 32.1282 25.8609C32.1124 25.9523 32.103 26.0448 32.0999 26.1375L31.748 26.4486Z" fill="#A4774E"/>
<path d="M19.149 5.04379C18.4324 4.87094 17.0245 5.58747 16.8328 4.16384C16.6411 2.74021 18.3759 2.93819 19.105 2.21223C19.4192 1.89796 21.6191 3.15504 21.7417 3.67044C21.9397 4.40897 21.6631 4.92751 20.89 5.03122C20.3105 5.07085 19.729 5.07504 19.149 5.04379Z" fill="#FCFBFA"/>
<path d="M41.7543 31.7849C41.6717 31.7769 41.5886 31.7769 41.506 31.7849C40.0541 32.118 38.5644 32.1683 37.1062 32.4134H33.6493C32.5839 32.0991 31.4934 32.3505 30.4155 32.2657C28.8449 32.3352 27.2725 32.1743 25.7486 31.788C25.3023 31.3794 24.6581 32.1274 24.2464 31.5272L24.4821 30.2198C24.6487 29.9684 24.9881 29.9055 25.1106 29.6195C26.1006 28.4253 27.3105 28.4348 28.6304 28.9564C28.709 29.4687 28.3162 29.4624 28.0019 29.585C27.7913 29.6573 27.3137 29.4404 27.4991 29.9967C28.3979 30.3612 28.9667 29.9244 29.3847 29.2079C29.6047 28.8213 29.6612 28.3373 30.1295 28.1205C30.334 28.0325 30.5542 27.9865 30.7769 27.9854C30.9984 27.9972 31.2139 28.0619 31.4054 28.1739C31.9208 28.6799 31.8203 29.6478 32.6908 29.8835C33.3916 30.1349 33.8944 29.3304 34.5764 29.5315C35.1892 29.3398 35.7392 28.7144 36.462 29.2581C36.7042 29.2566 36.9408 29.3305 37.139 29.4696C37.3373 29.6088 37.4873 29.8061 37.5682 30.0344C38.093 30.6378 38.731 30.2167 39.3344 30.2638C39.4192 29.607 38.9824 28.8967 39.6141 28.3499C40.0531 28.2953 40.4987 28.3424 40.9166 28.4873C41.3345 28.6322 41.7136 28.8712 42.0245 29.1859C43.2722 30.4209 43.225 31.0212 41.7543 31.7849Z" fill="#FED552"/>
<path d="M25.7486 31.788C27.3419 31.6906 28.8913 32.3191 30.4846 32.1368C30.5946 32.1934 30.6355 32.2562 30.6009 32.3222C30.5663 32.3882 30.5349 32.4228 30.4972 32.4228C28.8913 32.4165 27.2477 32.5548 25.7486 31.788Z" fill="#D17941"/>
<path d="M37.0968 32.4165C38.5111 31.9335 40.0036 31.7203 41.4965 31.7879C40.9812 32.3568 40.1389 31.9325 39.5921 32.4165H37.0968Z" fill="#D78043"/>
<path d="M24.834 39.6918C24.3207 39.5045 23.8548 39.2067 23.4692 38.8195C23.0836 38.4323 22.7878 37.9652 22.6027 37.451C23.4957 38.0329 24.256 38.7964 24.834 39.6918V39.6918Z" fill="#CD7E4E"/>
<path d="M30.4877 32.4228C30.4877 32.3254 30.4877 32.2311 30.4877 32.1337C31.5437 32.228 32.6436 31.8194 33.6524 32.4103L30.4877 32.4228Z" fill="#E2993D"/>
<path d="M24.1773 40.5906C24.6927 40.5184 25.2866 40.8326 25.7078 40.2764C25.978 40.4398 26.5123 40.3235 26.3771 40.9049L24.4915 40.9269C24.4389 40.9634 24.3764 40.983 24.3124 40.983C24.2484 40.983 24.1859 40.9634 24.1333 40.9269C24.1011 40.8742 24.088 40.8122 24.096 40.751C24.104 40.6898 24.1327 40.6332 24.1773 40.5906Z" fill="#B47B4D"/>
<path d="M29.2212 42.1839L28.5927 42.1619C28.3224 41.6842 27.7222 41.8225 27.3671 41.502C28.137 41.3103 28.8158 41.3762 29.2212 42.1839Z" fill="#CD8351"/>
<path d="M22.3199 37.1651C22.056 36.9836 21.8349 36.7468 21.6721 36.471C21.5092 36.1953 21.4086 35.8873 21.3771 35.5686C22.0276 35.8923 22.2256 36.4988 22.3199 37.1651Z" fill="#CA8152"/>
<path d="M24.1772 40.5906C24.1701 40.6966 24.1818 40.803 24.2118 40.9049C24.3061 42.1023 25.2583 41.4109 25.7988 41.6246C26.0565 41.9137 25.9371 42.1903 25.78 42.47C25.4739 42.6023 25.1445 42.6723 24.8111 42.6761C24.4777 42.6799 24.1468 42.6173 23.8378 42.492C23.2501 42.2625 23.0679 41.7409 22.895 41.2066C22.8164 41.1438 22.7913 41.0809 22.8196 41.0212C22.8479 40.9615 22.873 40.9301 22.9013 40.9301L24.1772 40.5906Z" fill="#F4E19D"/>
<path d="M17.213 40.8702C17.5996 39.8489 18.1307 39.6132 18.8849 40.556L18.7561 40.71C18.2564 41.0242 18.4072 41.2882 18.8849 41.3762C20.1703 41.6119 20.5065 40.622 20.9151 39.742L21.0879 39.6132C21.5531 39.9274 21.3237 40.4397 21.4022 40.8702C21.5499 41.0305 21.5216 41.1405 21.3142 41.2065C19.6675 42.6301 18.5361 42.6427 17.2287 41.2599C17.1947 41.2279 17.1694 41.1877 17.1551 41.1432C17.1408 41.0987 17.138 41.0512 17.147 41.0054C17.169 40.9174 17.1879 40.8702 17.213 40.8702Z" fill="#F8AE2F"/>
<path d="M14.4632 41.2034C14.6015 41.5711 15.3117 41.7691 14.7775 42.3379C14.6541 42.5038 14.486 42.6312 14.2929 42.7052C14.0998 42.7792 13.8897 42.7968 13.687 42.7559C13.5946 42.7293 13.509 42.6829 13.4363 42.62C13.3636 42.557 13.3054 42.479 13.2659 42.3914C13.1527 41.9734 13.4356 41.7314 13.7781 41.5554C14.0044 41.4391 14.2369 41.3291 14.4695 41.2191L14.4632 41.2034Z" fill="#F0CF78"/>
<path d="M17.2131 40.8703L17.2319 41.2568L14.4632 41.2003V41.216C13.8127 40.6346 13.0019 41.0683 12.2916 40.8671C13.313 40.3329 14.3312 40.6063 15.3746 40.8231C15.9847 40.8948 16.6001 40.9106 17.2131 40.8703Z" fill="#A68C60"/>
<path d="M25.8083 41.612C25.1044 41.7534 24.1836 42.3788 24.2213 40.8923C24.3156 40.9051 24.4091 40.924 24.501 40.9489C24.4664 42.0897 25.6763 40.7886 25.8083 41.612Z" fill="#F6BB49"/>
<path d="M23.863 42.4793L25.8051 42.4573C25.1483 43.0262 24.4915 42.9382 23.863 42.4793Z" fill="#F6C054"/>
<path d="M28.5959 42.1556L27.9674 43.0984C27.5525 42.3316 27.5777 42.2876 28.5959 42.1556Z" fill="#F3BF54"/>
<path d="M21.3237 41.2066C21.352 41.0966 21.3834 40.9834 21.4117 40.8703L22.9171 40.9174C22.9297 41.0092 22.9297 41.1023 22.9171 41.194L21.3237 41.2066Z" fill="#9C8056"/>
<path d="M9.77749 40.5561L9.74921 40.2952C10.1483 40.4586 10.7706 39.8584 10.9874 40.6535L9.77749 40.5561Z" fill="#8A6238"/>
<path d="M37.4142 30.1852L36.4714 29.2644C36.5374 28.7521 36.2074 27.9759 36.9711 27.8722C37.7348 27.7685 37.1942 28.7458 37.6531 29.0035L37.7945 29.0601C38.2973 29.2424 38.9384 28.7207 39.3438 29.3744C39.4148 29.484 39.4431 29.6159 39.4234 29.745C39.4037 29.8742 39.3374 29.9916 39.237 30.0752C38.6681 30.5529 38.0522 30.6723 37.4142 30.1852Z" fill="#F4E19D"/>
<path d="M37.4142 30.1851C37.6216 30.2008 37.8259 30.2323 38.0427 30.2291C38.5016 30.2291 39.1301 30.2857 39.1521 29.6949C39.1741 29.104 38.5235 29.4026 38.1779 29.2832C37.9953 29.205 37.8197 29.1114 37.653 29.0035C38.4324 29.1669 38.7121 27.7967 39.6235 28.3561C39.6235 28.7646 39.7241 29.2015 39.6046 29.5692C39.4852 29.9368 40.4877 30.534 39.6235 30.5685C38.9478 30.6031 37.8982 31.5396 37.4142 30.1851Z" fill="#FCB833"/>
<path d="M31.44 28.3436L30.7769 28.3184C30.666 28.0125 30.6739 27.6761 30.7989 27.3756C32.1345 27.7339 33.577 27.8439 34.5701 29.0098C33.9636 29.4529 33.3413 29.7798 32.6059 29.2769C32.2885 28.8778 31.7982 28.6893 31.44 28.3436Z" fill="#FED552"/>
<path d="M27.0465 30.2449C26.6505 29.6164 26.22 28.9658 27.5745 29.2549C27.9673 29.3366 28.3759 29.4058 28.6304 28.9595C28.6651 28.8226 28.7332 28.6963 28.8287 28.5921C28.9241 28.4879 29.0439 28.409 29.1773 28.3624C29.7398 29.1638 29.4067 30.0658 28.4042 30.3266C27.9572 30.4692 27.4731 30.4401 27.0465 30.2449V30.2449Z" fill="#F4E3A1"/>
<path d="M32.6625 29.0727C33.3099 29.7012 33.9196 28.6924 34.5481 29.0161L34.5669 29.5441C33.995 29.9275 33.4921 30.4868 32.6813 30.2543C32.3974 30.0478 32.1323 29.8164 31.8894 29.5629C31.6631 29.2832 31.3991 28.9344 31.77 28.6547C32.2445 28.2996 32.4928 28.6767 32.6625 29.0727Z" fill="#F4E29E"/>
<path d="M27.0465 30.2449C29.0453 30.1569 29.5764 29.6886 29.1772 28.3593L30.4595 27.3851C30.8837 27.847 30.494 28.0796 30.1892 28.3279C29.1615 30.6126 28.7718 30.8514 27.0465 30.2449Z" fill="#FBB331"/>
<path d="M25.12 29.6195C25.6197 30.5623 24.7649 30.0909 24.4915 30.2197C24.0798 29.3775 24.7649 29.6792 25.12 29.6195Z" fill="#ECD77D"/>
<path d="M30.1892 28.3373C30.2803 28.0231 30.3715 27.7088 30.4595 27.3945H30.7989C30.8987 27.5325 30.9506 27.6994 30.9467 27.8696C30.9427 28.0399 30.8831 28.2042 30.7769 28.3373H30.1892Z" fill="#F0D678"/>
<path d="M17.2633 19.5316L16.7133 18.925C15.6543 17.6365 15.648 16.2569 16.3614 14.8175V14.8364C16.6863 14.3213 17.1222 13.8854 17.6373 13.5605H17.6153C18.0898 13.2682 18.5424 12.8691 19.1583 13.2242H20.1483C20.5663 12.91 20.9811 13.1645 21.4054 13.2242L21.7196 13.5039C22.1052 13.7626 22.4326 14.0986 22.6813 14.4907L22.6656 14.4687C22.9679 14.8625 23.159 15.3303 23.2187 15.8232C23.3293 16.3134 23.3217 16.823 23.1967 17.3097C23.1869 17.9025 22.9985 18.4786 22.6561 18.9627L22.2067 19.5001C20.5286 20.5278 18.8912 20.7258 17.2633 19.5316Z" fill="#97D058"/>
<path d="M17.2634 19.5316C18.9007 20.4335 20.538 20.2198 22.1754 19.5316C20.5318 20.93 18.6084 20.93 17.2634 19.5316Z" fill="#E6F1D4"/>
<path d="M16.3519 14.8175C15.9228 16.1795 16.0493 17.6559 16.7039 18.925C15.4311 17.7308 15.3117 16.3574 16.3519 14.8175Z" fill="#E2F0D1"/>
<path d="M17.6153 13.5604C17.3115 14.092 16.871 14.5326 16.3394 14.8364C16.4588 14.1041 16.7825 13.5793 17.6153 13.5604Z" fill="#EAF5DF"/>
<path d="M22.606 18.9942L22.9548 17.3883L23.0742 17.2217L23.2439 17.338C23.3728 18.0168 23.2345 18.5982 22.606 18.9942Z" fill="#E5F0D6"/>
<path d="M19.149 13.2399L17.606 13.5761C17.9862 12.9005 18.4513 12.5673 19.149 13.2399Z" fill="#ECF4DA"/>
<path d="M23.2344 15.776C23.6493 16.2945 23.7907 16.8162 23.2344 17.3473H23.2564C22.9422 16.9231 23.1464 16.436 23.1056 15.9803L23.2344 15.776Z" fill="#F0F7E8"/>
<path d="M21.3771 13.2556C20.9591 13.6547 20.5443 13.0953 20.12 13.2556C20.5443 12.6302 20.9622 12.9005 21.3771 13.2556Z" fill="#F3F9EB"/>
<path d="M22.6405 14.5221C22.4109 14.4503 22.2027 14.3226 22.0348 14.1503C21.8669 13.978 21.7446 13.7667 21.6788 13.5353C22.2445 13.6264 22.6562 13.8621 22.6405 14.5221Z" fill="#E7F4DB"/>
<path d="M22.9423 15.7823C22.8354 15.3549 22.7286 14.9275 22.628 14.5001C23.2565 14.7264 23.3194 15.2167 23.2565 15.776L23.2817 15.754C23.179 15.9049 23.0659 15.9143 22.9423 15.7823Z" fill="#EEF6E2"/>
<path d="M18.885 40.556C19.4412 40.5969 19.6424 40.2135 19.8875 39.8081C20.1798 39.3241 20.5883 39.0601 21.088 39.6132L21.0031 39.6981C20.6889 40.0312 20.5317 40.5058 20.1452 40.776C19.6801 41.0903 19.1835 41.4548 18.8378 40.6283L18.885 40.556Z" fill="#FBB231"/>
<path d="M32.6625 29.0728C32.4362 28.9659 32.1156 28.7114 32.0025 28.7836C31.6097 29.035 31.9302 29.299 32.1125 29.5347C32.2948 29.7704 32.4896 30.0156 32.6813 30.2544C31.5908 30.0564 31.3331 29.3116 31.4243 28.3437C31.9774 28.3751 32.6625 28.1363 32.6625 29.0728Z" fill="#FCBB37"/>
<path d="M34.4946 30.2794C35.3652 30.4051 35.6637 30.6943 35.7109 31.3574C35.0226 31.3731 34.8435 30.9394 34.4946 30.2794Z" fill="#FBC03E"/>
<path d="M29.8655 31.1436C29.7523 29.9243 30.5286 30.468 31.066 30.5402C31.0408 31.4893 30.4972 31.4045 29.8655 31.1436Z" fill="#EAD480"/>
<path d="M29.8655 31.1437C30.3966 31.2034 30.89 31.1877 31.066 30.5403C31.4431 30.7666 31.4274 31.0463 31.1037 31.2694C30.6794 31.5648 30.2332 31.6182 29.8655 31.1437Z" fill="#FCC240"/>
<path d="M40.6732 31.1061C40.3966 31.0086 40.4249 30.8672 40.4877 30.7352C40.5506 30.6032 40.6197 30.3298 40.8869 30.4807C40.956 30.5215 41.0377 30.6849 41.0126 30.7258C40.9106 30.8621 40.797 30.9893 40.6732 31.1061V31.1061Z" fill="#FCB936"/>
<path d="M18.8347 40.6378C19.3784 41.1626 19.7932 40.8357 20.0917 40.3738C20.3243 40.0155 20.4783 39.6352 21 39.7075C20.956 41.3417 19.9315 42.2217 18.5424 41.7943C18.0804 41.6528 17.5807 41.392 17.7033 40.8358C17.8919 40.0312 18.4481 40.6723 18.8347 40.6378Z" fill="#F4E5A4"/>
<path d="M22.9422 15.7823L23.2722 15.754C23.2722 16.2851 23.2722 16.8163 23.2722 17.3474L22.9579 17.3882C22.9579 16.854 22.9485 16.3197 22.9422 15.7823Z" fill="#97D058"/>
</svg>
