<svg width="47" height="46" viewBox="0 0 47 46" fill="none" xmlns="http://www.w3.org/2000/svg">
<path d="M38.0301 40.6591C34.9817 42.7081 31.7448 44.3329 28.0427 44.7634C27.5901 44.8695 27.1185 44.864 26.6685 44.7474C26.2185 44.6307 25.8036 44.4065 25.4594 44.094C25.1231 43.8146 24.731 43.6101 24.3094 43.4942C23.8878 43.3782 23.4464 43.3534 23.0144 43.4215C21.7574 42.9501 21.2357 41.8282 20.6449 40.7659C20.6087 40.6215 20.6087 40.4704 20.6449 40.326C20.9591 39.5434 22.5619 38.8866 20.8868 37.8998C20.6641 37.6861 20.5136 37.4081 20.4563 37.1047C20.5286 35.128 21.22 33.2612 21.5028 31.319C21.6128 30.5679 21.6725 29.8892 21.1885 29.2669C20.9182 28.8069 20.6859 28.3254 20.494 27.8275C20.3212 27.155 20.5569 26.4982 20.5757 25.8319C20.873 25.3886 21.0178 24.8605 20.9884 24.3275C20.9589 23.7946 20.7566 23.2857 20.4123 22.8778C20.2619 22.707 20.1474 22.5077 20.0756 22.2917C20.0038 22.0758 19.9761 21.8476 19.9943 21.6207C20.758 19.4209 22.6844 19.6063 24.4475 19.468C24.6185 19.5277 24.7725 19.6277 24.8967 19.7596C25.0209 19.8914 25.1115 20.0512 25.1609 20.2254C25.67 21.8313 26.6568 23.1198 27.8133 24.3109C27.983 24.8294 27.7284 25.2317 27.4142 25.5868C26.3834 26.7653 26.088 28.1544 26.198 29.6723C26.3142 29.7257 26.3708 29.6723 26.4494 29.5654C26.9962 28.8395 27.2099 27.4567 28.1716 27.5698C29.0075 27.6673 28.8912 29.1977 29.702 29.8263C30.0792 27.9407 29.6015 26.1839 28.8095 24.4837C28.9007 23.8552 29.3846 23.5126 29.7869 23.123C30.8617 22.0827 31.9051 21.0236 32.6373 19.6974C35.076 19.6597 36.8014 20.9985 37.1942 23.3021C37.3758 24.6004 37.8195 25.8482 38.4984 26.9696C38.8975 27.5981 39.2401 28.3052 38.7561 29.0218C38.2721 29.7383 37.5305 29.7257 36.7762 29.5372C35.7611 29.1852 35.0226 30.2977 34.0295 30.062C33.3821 28.4215 34.5166 26.8847 34.1521 25.568C34.2526 27.3404 33.3664 29.402 34.2275 31.4856C34.3249 31.7087 34.4161 31.9319 34.5009 32.1582C35.1167 34.5309 36.1042 36.7912 37.4267 38.8552C37.7536 39.3738 38.3193 39.8829 38.0301 40.6591Z" fill="#FCD678"/>
<path d="M24.5167 19.5529C23.819 20.1091 22.9453 19.8137 22.1502 20.0809C21.2232 20.3951 20.4721 20.7817 20.1672 21.7685C20.1272 21.8019 20.0807 21.8266 20.0307 21.8411C19.9806 21.8557 19.9281 21.8597 19.8764 21.8529C19.8247 21.8461 19.775 21.8286 19.7304 21.8017C19.6858 21.7747 19.6473 21.7388 19.6172 21.6962C18.5143 20.4956 17.0697 19.662 15.4783 19.3077C15.1892 19.2323 14.8058 19.1852 14.7964 18.7923C14.787 18.3995 15.1295 18.2958 15.4061 18.1638C15.5952 18.0759 15.7919 18.0055 15.9937 17.9533C16.6883 17.7364 16.5374 17.287 16.264 16.8533C15.9089 16.2845 15.5475 16.6584 15.2269 16.9036C14.7896 17.2866 14.4639 17.7807 14.2841 18.3335C14.0044 19.0249 13.5833 19.4586 12.7599 19.4115C11.3866 19.3298 10.3526 20.0777 9.48211 20.9828C8.47696 22.0504 7.60722 23.2379 6.89255 24.5183C6.38344 25.4234 6.35515 26.1588 7.12825 26.8785C7.58116 28.0844 7.87793 29.3433 8.01134 30.6245C8.16533 32.4567 9.67696 33.2172 11.1163 33.9778C11.7448 34.292 12.8008 34.4335 12.0591 35.5868C10.8492 35.9482 10.0855 34.9583 9.105 34.6157C7.96106 33.9463 7.44566 32.397 5.88375 32.3058C4.31241 31.4887 3.68387 29.8357 3.46389 28.4121C3.28161 27.2838 2.88564 27.0325 2.07168 26.7182C1.66942 26.5673 1.08488 26.7528 0.890034 26.1619C0.789468 21.9853 2.95164 18.6792 5.23636 15.5177C8.77502 10.6182 13.3068 6.90046 19.083 4.83258C19.715 4.59541 20.3885 4.48851 21.0629 4.51831C21.4714 5.14684 21.0629 5.72194 20.956 6.31277C20.5066 8.61006 20.1986 10.8948 20.3872 13.2644C20.6135 16.1336 21.7417 18.123 24.6927 18.7766C25.0824 19.1506 24.8467 19.3675 24.5167 19.5529Z" fill="#DAECC8"/>
<path d="M24.8592 18.8835C21.9679 18.83 20.494 17.4158 20.1231 14.4366C19.6781 11.1003 20.0083 7.70629 21.0879 4.5183C22.6593 2.00416 24.8592 0.486238 27.8541 0.501952C34.504 0.539664 36.0754 2.99722 37.5964 8.92745C37.6499 9.12858 37.6813 9.33288 37.7221 9.53715C39.0546 12.705 37.3702 17.1896 35.8365 18.6949C35.423 19.0915 34.9266 19.3914 34.3831 19.5729C33.8397 19.7544 33.2627 19.813 32.6938 19.7446C32.3568 19.7633 32.0256 19.6507 31.7699 19.4303C31.6678 19.3098 31.617 19.1541 31.6285 18.9966C31.9836 18.2801 32.4079 17.5856 32.3482 16.737C32.7073 15.6048 33.3089 14.5645 34.1112 13.6886C34.4255 13.2864 34.812 12.9595 35.0289 12.4913C35.1671 12.2241 35.3023 11.9539 35.4657 11.6993C35.2934 11.9333 35.1429 12.1826 35.0163 12.4441C34.702 12.9658 34.4223 13.5095 33.7592 13.7012C33.1087 13.2864 33.4261 12.6798 33.4607 12.1299C33.4984 11.5013 33.6115 10.8728 33.3727 10.2725C33.159 9.95826 32.7881 9.89541 32.4833 9.73199C31.0408 8.22351 29.3092 7.02929 27.9044 5.48623C26.9899 4.48372 26.0188 4.52457 24.9817 5.2411C24.2506 5.70993 23.6567 6.364 23.2604 7.13679C22.8641 7.90959 22.6794 8.77355 22.7253 9.64084C22.7976 11.8407 23.0395 14.0155 24.2966 15.9262C24.5279 16.2736 24.7 16.657 24.8057 17.0607C24.878 17.5541 25.1546 18.0035 25.2426 18.4781C25.2385 18.5806 25.1974 18.6781 25.1269 18.7527C25.0564 18.8272 24.9613 18.8737 24.8592 18.8835Z" fill="#22201C"/>
<path d="M32.3483 19.5529C35.4909 19.2606 37.2194 17.3216 37.6185 13.4624C37.7537 12.1676 37.6877 10.8508 37.7128 9.54346C41.484 12.6516 43.5456 16.737 44.6078 21.4071C44.7084 21.8596 44.6078 22.3719 45.2364 22.4787C45.271 23.2487 44.9535 23.9432 44.1962 23.9589C43.4953 23.9589 43.7593 23.0601 43.4828 22.4913C43.0868 24.9646 43.0459 25.0054 41.6412 24.7351C41.3992 25.1877 41.7103 25.5334 41.8737 25.8979C42.6562 27.6201 42.5022 28.1921 40.9309 29.3235C40.3389 29.7538 39.7704 30.2153 39.2276 30.7062C38.709 31.1714 38.1811 32.0639 37.4143 31.5265C36.6474 30.9891 36.2138 30.0871 36.7574 29.0626C37.3608 29.3549 37.9674 29.4775 38.4451 28.8804C38.9227 28.2833 38.5613 27.7239 38.2345 27.309C37.2351 26.0237 36.9271 24.5466 36.7134 22.9878C36.4777 21.2405 34.7995 20.0966 32.4048 19.908C32.3702 19.8828 32.3421 19.8497 32.323 19.8114C32.3039 19.7731 32.2942 19.7308 32.2948 19.688C32.32 19.5906 32.3483 19.5529 32.3483 19.5529Z" fill="#DAECC8"/>
<path d="M9.24009 34.3234L11.9428 35.5491C13.1119 35.0557 14.3784 35.8225 15.5412 35.2662C17.8039 34.4491 19.3124 35.6967 20.7109 37.1801L21.0848 37.7018C22.6153 38.7954 21.2137 39.5528 20.7706 40.4202C20.7804 40.5026 20.7856 40.5855 20.7863 40.6685C20.5474 41.4133 19.8686 41.7024 19.3061 42.1047C19.0327 42.3435 19.1112 42.6389 19.193 42.9312C19.2747 43.2235 19.3972 43.5943 19.149 43.9086C18.5204 44.2228 18.0584 44.8765 17.2445 44.7634C15.75 44.6293 14.2966 44.2022 12.9673 43.5063C13.2093 43.1072 13.6713 43.1072 14.0264 42.9155C14.8686 42.4598 15.4877 41.8407 15.1389 40.8162C15.0284 40.381 14.7554 40.0047 14.3761 39.7645C13.9968 39.5243 13.5399 39.4385 13.0993 39.5246C12.0685 39.6754 11.6254 40.3825 11.572 41.3725C11.5796 41.5791 11.6134 41.7839 11.6725 41.9821C11.7202 42.1203 11.7384 42.2669 11.7259 42.4125C11.7135 42.5581 11.6706 42.6995 11.6002 42.8275C10.4092 42.617 9.49464 41.8596 8.49841 41.2562C7.79131 39.3521 6.46261 37.7421 4.7272 36.6867C4.12381 36.297 3.47013 35.8193 4.09866 34.9394C4.87491 34.5277 5.15461 33.6823 5.68572 33.0538C6.29226 32.3435 6.85794 32.111 7.57133 32.9438C8.06159 33.5 8.49528 34.1191 9.24009 34.3234Z" fill="#88BA86"/>
<path d="M36.7763 29.0564C36.7768 29.2671 36.7958 29.4774 36.8329 29.6849C37.4331 31.8251 37.5463 31.8533 39.149 30.2726C39.3977 30.0054 39.6633 29.7546 39.9441 29.5215C42.0968 27.8747 42.0937 27.881 41.2012 25.436C41.0283 24.9677 40.7266 24.4586 41.3143 24.0344C42.1 23.4687 42.1408 24.5749 42.672 24.6409C42.8448 23.8395 43.1528 23.0696 43.0868 22.2305C43.0648 21.9162 43.1465 21.5579 43.555 21.5642C43.9636 21.5705 43.9699 21.935 44.017 22.2525C44.083 22.7396 43.8567 23.2676 44.2401 23.8521L45.2584 22.4725C46.0943 23.2644 45.0855 23.8709 45.0541 24.6158C45.5004 24.9897 46.176 23.7138 46.374 24.6346C46.4966 25.216 47.3168 26.1651 46 26.6585C45.5695 26.8219 45.2898 27.3845 44.941 27.7647C42.8762 29.9646 41.1446 32.4504 38.9259 34.5058C38.538 34.9279 38.0913 35.292 37.5997 35.5869C36.6286 36.0708 35.8303 36.0205 35.2615 34.9206C34.8567 34.0326 34.5287 33.1116 34.281 32.1676L33.9667 31.8534C33.6996 31.1557 33.7405 30.5208 34.3313 29.9929C34.9881 29.2952 35.7392 28.8049 36.7763 29.0564Z" fill="#E8D2C0"/>
<path d="M34.2684 32.1675C34.8152 32.7741 34.8152 33.61 35.1672 34.3045C35.9057 35.7785 36.7385 35.989 37.9704 34.8765C39.7111 33.2961 41.3008 31.5569 42.719 29.6817C43.2773 28.8588 44.0425 28.1975 44.9378 27.7646C44.5921 30.2285 44.1144 32.6735 43.0302 34.9237C41.8988 37.2713 40.4186 39.3706 38.0396 40.6591C36.9616 38.6415 35.5694 36.7873 34.8592 34.5717C34.5983 33.7829 34.1741 33.0381 34.2684 32.1675Z" fill="#DAECC8"/>
<path d="M4.37836 34.974C3.72469 35.6402 4.26523 35.9514 4.76492 36.2782C5.66904 36.8834 6.50373 37.5864 7.25391 38.3744C8.04272 39.1852 8.58012 40.0903 8.48898 41.2719C4.07038 38.3618 1.30483 34.4303 0.930847 29.0155C1.09136 28.9579 1.2619 28.9336 1.4321 28.9441C1.60231 28.9545 1.7686 28.9994 1.92088 29.0761C2.07317 29.1529 2.20825 29.2598 2.31791 29.3904C2.42757 29.521 2.50951 29.6725 2.55875 29.8357C3.05844 31.2625 3.86611 32.5102 4.59206 33.8081C4.70218 34.0453 4.72228 34.3145 4.64863 34.5655C4.5995 34.7247 4.5057 34.8665 4.37836 34.974V34.974Z" fill="#DAECC8"/>
<path d="M4.40978 34.6661C4.5292 33.9653 4.06722 33.475 3.70267 33.013C3.11499 32.2682 2.63731 31.5077 2.51474 30.5555C2.39218 29.6032 1.62851 29.3675 0.943403 29.025C-0.109394 28.0822 0.676276 27.1205 0.91512 26.162C1.89564 25.8477 2.64045 27.0671 3.68382 26.5863C3.91009 26.4825 4.1175 26.8691 4.02322 27.1425C3.21241 29.4241 5.07916 30.6529 6.0094 32.2462C5.93083 33.3524 5.32115 34.1161 4.40978 34.6661Z" fill="#E4CFBB"/>
<path d="M11.352 42.2021C10.9371 40.4611 11.5185 39.292 12.9233 39.0594C13.232 39.0019 13.5489 39.0062 13.8559 39.0719C14.1629 39.1376 14.4539 39.2636 14.7119 39.4424C14.9699 39.6212 15.19 39.8495 15.3593 40.1139C15.5286 40.3782 15.6438 40.6735 15.6983 40.9827C15.9214 42.2398 14.7555 43.3335 12.9767 43.5158C12.5179 43.4718 11.9868 43.544 11.9522 42.8464C11.8548 42.5667 12.0182 42.4755 12.2508 42.4378C12.7632 42.5275 13.2882 42.5179 13.797 42.4095C13.8583 42.358 13.9039 42.2904 13.9289 42.2144C13.9539 42.1383 13.9572 42.0568 13.9384 41.979C13.8567 41.7276 13.6241 41.6459 13.4262 41.5421C13.3123 41.4892 13.2106 41.4132 13.1276 41.319C13.0435 41.1772 13.0134 41.0098 13.0427 40.8476C13.0427 40.8665 13.0742 40.7753 13.0742 40.7753C13.0504 40.7801 13.0272 40.7875 13.005 40.7973C12.7913 40.9859 12.9516 41.1525 13.005 41.3253C13.0427 41.4536 13.0427 41.5899 13.005 41.7182C12.9671 41.8564 12.8989 41.9845 12.8055 42.0932C12.712 42.2019 12.5955 42.2885 12.4645 42.3467C12.3162 42.3373 12.1742 42.2834 12.057 42.192C11.9398 42.1006 11.8529 41.976 11.8077 41.8344C11.7417 41.4353 11.8611 41.0267 11.7008 40.5113C11.7793 40.9551 11.8046 41.4067 11.7762 41.8564C11.7668 42.111 11.6443 42.2524 11.352 42.2021Z" fill="#F7F9F5"/>
<path d="M18.8598 41.891L20.7894 40.6748L22.8856 43.1889C23.6932 43.7012 24.3972 44.2952 24.57 45.3103L22.2916 45.3448C21.8978 44.949 21.4553 44.6048 20.9748 44.3203C20.5293 44.0905 20.1374 43.7693 19.8246 43.3775C19.526 42.8716 18.7592 42.661 18.8598 41.891Z" fill="#EEDCC9"/>
<path d="M24.5701 45.3229L22.8856 43.2016C23.885 42.7396 24.7492 42.9125 25.538 43.6919C26.2231 44.3675 27.1439 44.5624 28.0522 44.7792C26.9554 45.3983 25.7486 45.3449 24.5701 45.3229Z" fill="#CAA06A"/>
<path d="M20.1201 43.1702L21.0629 44.1381C21.4274 44.6409 21.0943 44.9772 20.78 45.3166H20.0415C19.5135 44.952 19.0516 44.5435 19.0987 43.8144C19.0201 43.5001 18.9416 43.1859 18.8599 42.8716C19.3627 42.6987 19.7398 42.9376 20.1201 43.1702Z" fill="#D7E9C5"/>
<path d="M19.1237 43.8144C19.4192 44.3235 20.0006 44.6598 20.0666 45.3197C19.1237 45.1909 18.1275 45.3197 17.2601 44.7666C17.8918 44.4744 18.2375 43.6164 19.1237 43.8144Z" fill="#1F7699"/>
<path d="M11.3521 42.2021L11.6663 41.8879C11.769 41.7622 11.857 41.7716 11.9303 41.9162L12.7003 42.1959C12.7813 42.1086 12.84 42.0029 12.8712 41.888C12.9024 41.773 12.9052 41.6522 12.8794 41.5359V41.3348C12.8942 41.3078 12.9152 41.2846 12.9405 41.2671C12.9659 41.2496 12.995 41.2382 13.0255 41.234C13.056 41.2297 13.0871 41.2326 13.1163 41.2425C13.1455 41.2523 13.172 41.2689 13.1937 41.2908H13.5362C13.7024 41.3746 13.8414 41.5038 13.9371 41.6634C14.0328 41.8231 14.0812 42.0066 14.0767 42.1927L14.4413 42.5384C13.7362 42.7717 12.9748 42.7717 12.2697 42.5384L11.9334 42.8527H11.5909L11.3521 42.2021Z" fill="#E2EDE0"/>
<path d="M20.7926 45.3229L21.0754 44.1444C21.7763 44.2481 22.2728 44.5561 22.2917 45.348L20.7926 45.3229Z" fill="#CAA06F"/>
<path d="M6.91449 26.847C5.65742 26.473 5.79883 25.7722 6.32995 24.8106C7.0694 23.4284 7.96346 22.1348 8.99494 20.9545C9.38701 20.5336 9.81499 20.1477 10.274 19.8011C11.2168 19.0595 12.3607 19.1726 13.4544 18.984C14.2024 18.852 14.0421 16.9947 15.1012 16.3945C15.4531 16.1965 15.8397 15.8068 16.2231 16.0991C16.7825 16.5202 16.9742 17.2462 17.1156 17.881C17.1722 18.1324 16.4871 18.2769 16.0848 18.3618C15.6826 18.4466 15.3117 18.6006 14.4915 18.8615C15.591 18.9136 16.6666 19.2009 17.6457 19.704C18.6247 20.2071 19.4846 20.9143 20.1672 21.7779C20.3526 22.0921 20.5223 22.4064 20.7266 22.7207C21.4619 23.7829 21.7699 24.8357 20.7266 25.8854C20.186 26.9224 19.1992 26.5139 18.3695 26.6207C18.0388 26.6341 17.7113 26.5511 17.4267 26.3819C16.7982 26.0299 17.0276 25.4391 16.9868 25.04C17.0748 25.4297 16.1194 26.1179 17.2853 26.4416C17.3199 27.4221 16.3802 27.2336 15.9025 27.5981C15.7602 27.6438 15.612 27.6692 15.4626 27.6735C15.1923 27.6421 14.7869 27.4881 14.834 27.3247C15.1232 26.2405 14.1018 26.5736 13.7215 26.2342C13.4073 25.7911 13.5267 25.2568 13.4073 25.0023C13.8158 26.0456 13.093 26.5359 12.0245 26.7999C11.5627 27.0401 11.0391 27.1354 10.5223 27.0733C9.33747 26.82 8.12166 26.7437 6.91449 26.847V26.847Z" fill="#1D1D1B"/>
<path d="M20.7202 37.1865C20.0917 37.0765 19.6077 36.6459 19.1489 36.2657C18.115 35.4046 17.0119 35.1186 15.736 35.568C15.1357 34.8137 15.5568 34.3109 16.1791 33.8961C17.5284 32.9844 18.6126 31.7322 19.3218 30.2663C19.988 29.842 20.3871 28.9558 21.3645 29.0501C22.0873 29.4429 22.279 29.9269 22.0559 30.8068C21.4996 32.9093 21.1414 35.0557 20.7202 37.1865Z" fill="#DAECC8"/>
<path d="M32.3482 19.5529C32.3702 19.6723 32.3954 19.7886 32.4174 19.9049C32.7065 20.6874 32.2068 21.1809 31.7354 21.6523C30.824 22.5636 29.8812 23.4467 28.9541 24.3424C28.511 24.5184 28.0679 24.6189 27.6279 24.3424C25.7423 23.3084 25.1766 21.4102 24.5104 19.5781L24.8529 18.8993L25.0761 18.7201C25.4413 18.6157 25.8326 18.655 26.1697 18.8301C27.3262 19.6975 27.6122 21.074 28.2376 22.4348C29.1144 21.272 29.7084 19.9521 31 19.2921C31.286 19.1727 31.572 19.0564 31.8611 19.2921L32.3482 19.5529Z" fill="#DC7B69"/>
<path d="M27.6342 24.3265C28.0773 24.2794 28.5204 24.0123 28.9604 24.3265C30.4752 26.2121 30.2175 28.412 30.1484 30.7659C28.9384 29.9771 28.4922 28.8803 28.1025 27.6232C27.4111 28.6949 26.7668 29.688 25.956 30.9356C25.5852 28.852 25.6418 27.1455 26.8265 25.593C27.1345 25.2096 27.6625 24.9394 27.6342 24.3265Z" fill="#E3907C"/>
<path d="M34.3062 29.9928C34.1365 30.6025 33.8536 31.1902 33.9416 31.8533C33.2974 30.6779 33.6022 29.3989 33.6902 28.1984C33.7719 27.1361 33.9636 26.0645 34.0642 24.9834C34.3317 26.1107 34.3403 27.284 34.0893 28.4152C33.951 28.9809 33.7499 29.534 34.3062 29.9928Z" fill="#EBCE74"/>
<path d="M18.2062 26.228C19.0358 26.0457 19.9504 26.4417 20.7203 25.876C21.1949 26.5045 20.6355 27.1048 20.7203 27.7176C20.7034 27.8158 20.6633 27.9086 20.6034 27.9883C20.5435 28.0679 20.4655 28.1323 20.3758 28.1759C20.2862 28.2195 20.1875 28.2411 20.0878 28.239C19.9881 28.2369 19.8904 28.2112 19.8027 28.1639C19.501 27.3185 18.5833 26.9916 18.2062 26.228Z" fill="#5C5B53"/>
<path d="M19.8026 28.0821L20.7203 27.7239C20.9183 28.1733 21.4431 28.4687 21.3488 29.0564C20.6386 29.3266 20.3809 30.2789 19.4947 30.2852C19.3488 29.9231 19.3005 29.5291 19.3546 29.1425C19.4086 28.756 19.5631 28.3903 19.8026 28.0821V28.0821Z" fill="#E1C5AA"/>
<path d="M20.7737 40.4266C20.7486 39.5057 22.2602 38.7609 21.088 37.7081C22.5871 38.4687 22.5211 39.0532 20.7737 40.4266Z" fill="#83B873"/>
<path d="M32.8479 40.37C31.836 39.0878 31.704 38.5913 31.9051 37.0042C32.2634 38.2236 32.4236 39.3298 32.8479 40.37Z" fill="#E9CD74"/>
<path d="M19.8026 28.0822C19.7806 28.827 19.9189 29.5938 19.4883 30.282C19.1018 32.0168 17.9578 33.1953 16.5248 34.0815C15.8962 34.4681 15.6228 34.8766 15.7234 35.5711C14.4663 36.3474 13.2092 35.8006 11.9522 35.5711C12.0559 35.1092 12.1344 34.7918 11.4713 34.5592C10.3054 34.1538 9.18661 33.5724 8.40409 32.5447C8.12753 32.1802 7.6907 31.7717 7.69384 31.3851C7.69384 29.8138 7.11559 28.3776 6.92389 26.8628C8.08354 25.92 9.29661 26.1557 10.4751 26.7716C11.1036 27.0859 11.3991 26.3788 11.9145 26.4763C12.543 26.3568 13.203 26.2626 13.8504 26.1997C14.1426 26.514 15.3714 25.612 14.8843 27.0451C14.7617 27.4033 15.5128 27.3593 15.8837 27.4128C15.8874 27.5702 15.8375 27.7242 15.7422 27.8496C15.4123 28.2456 14.9283 28.5913 15.2457 29.2041C15.6071 29.908 16.2042 29.6566 16.7605 29.5372C17.7755 29.2041 17.7504 28.783 16.861 28.2802C16.4179 28.1136 15.9182 28.0256 15.8554 27.4096C16.0031 26.5737 17.1124 27.2871 17.2947 26.5171C17.2665 26.4849 17.2451 26.4471 17.2319 26.4063C17.2188 26.3655 17.2141 26.3224 17.2182 26.2798C17.2224 26.2371 17.2352 26.1957 17.2559 26.1581C17.2766 26.1206 17.3048 26.0876 17.3387 26.0614L18.203 26.2311C19.218 26.4228 19.966 26.8597 19.8026 28.0822Z" fill="#EDD5BE"/>
<path d="M4.40979 34.6659C5.07278 33.953 5.61328 33.1354 6.00941 32.2461C6.49338 31.7213 6.87364 31.9538 7.26648 32.3812C7.89501 33.0475 8.57069 33.6823 9.22751 34.3297C8.47012 34.4365 8.06472 33.874 7.70017 33.3869C6.87679 32.3278 6.33625 32.6924 5.69514 33.5786C5.33059 34.0846 5.31487 34.9834 4.37836 34.9582C4.39407 34.8702 4.40036 34.7665 4.40979 34.6659Z" fill="#80B97A"/>
<path d="M34.2683 13.6226C34.0672 14.8546 32.8918 15.5679 32.5964 16.7496C32.1596 17.2776 31.8988 17.9281 31.4022 18.4121C31.2011 18.4435 30.9465 18.3335 30.7988 18.431C29.3972 19.3738 27.917 19.2135 26.3991 18.8175C25.6385 18.5441 25.208 17.8747 24.6235 17.375C23.5246 15.5391 22.7785 13.5139 22.4236 11.4039C21.8516 8.26121 23.0867 5.39826 25.8208 4.32347C26.2985 4.13491 26.9208 3.85207 27.2916 4.28576C28.9446 6.20593 31.1822 7.52586 32.6813 9.59374C32.7661 9.67264 32.8204 9.77879 32.8347 9.8937C32.8491 10.0086 32.8226 10.1249 32.7598 10.2223C32.345 10.6025 31.7793 10.5365 31.2985 10.7031C31.0651 10.7287 30.8447 10.8235 30.6655 10.9752C30.4863 11.127 30.3566 11.3288 30.2928 11.5548C30.1609 11.9382 29.8026 12.397 30.6071 12.4661C31.6191 12.551 31.5908 11.5642 32.0465 11.0708C32.8604 11.6993 32.8793 10.9105 33.1024 10.4863C33.2038 10.2127 33.3956 9.98208 33.6461 9.83255C34.2086 10.7251 33.9603 11.6616 33.8001 12.595C33.7404 12.947 33.3821 13.3555 33.9415 13.6258C33.9589 13.5984 33.9829 13.5758 34.0113 13.56C34.0397 13.5442 34.0716 13.5358 34.1041 13.5355C34.1365 13.5352 34.1686 13.543 34.1973 13.5582C34.226 13.5734 34.2504 13.5956 34.2683 13.6226V13.6226Z" fill="#EFCBB0"/>
<path d="M26.396 18.6478C26.5688 18.4121 26.8359 18.2612 27.0716 18.4089C28.269 19.1569 29.3469 18.9118 30.3746 18.0947C30.8397 17.7207 31.1194 18.0475 31.4117 18.3524C31.7259 18.4875 31.7699 18.7672 31.8297 19.0469C31.8485 19.1179 31.8612 19.1905 31.8674 19.2637L31.0943 19.578C30.4657 19.5277 29.8686 19.7508 29.2684 19.8923C28.1684 20.128 27.2162 19.9457 26.44 19.1066C26.4014 19.0836 26.3689 19.0519 26.3449 19.0139C26.3209 18.976 26.3061 18.933 26.3018 18.8883C26.2976 18.8436 26.3038 18.7986 26.3202 18.7568C26.3366 18.715 26.3625 18.6777 26.396 18.6478Z" fill="#DDBA9D"/>
<path d="M31.8296 19.0375C31.7025 18.9718 31.5961 18.8721 31.5223 18.7494C31.4485 18.6268 31.4102 18.4861 31.4117 18.343C31.4117 17.5134 31.7259 16.9351 32.5965 16.7528C32.873 17.6925 32.7064 18.4813 31.8296 19.0375Z" fill="#D8E9C5"/>
<path d="M26.396 18.6478C26.396 18.7515 26.396 18.8584 26.396 18.9621C26.3783 18.9918 26.3538 19.0171 26.3247 19.0358C26.2955 19.0545 26.2623 19.0661 26.2279 19.0698C26.1934 19.0734 26.1586 19.069 26.1261 19.0569C26.0937 19.0447 26.0645 19.0252 26.0409 18.9998C25.7078 18.9432 25.3243 19.0438 25.0761 18.7044C25.1892 18.1733 24.2024 18.013 24.6267 17.375C25.5883 17.2902 25.8775 18.1261 26.396 18.6478Z" fill="#D8E6C4"/>
<path d="M34.8624 12.3248C35.0132 11.7371 35.1766 11.1494 35.3463 10.4391C36.2609 11.382 35.6449 12.0105 35.1892 12.6704C34.9001 12.7364 34.7398 12.6736 34.8624 12.3248Z" fill="#DABBA3"/>
<path d="M33.6367 9.81055C33.6532 9.94471 33.6305 10.0808 33.5714 10.2023C33.5123 10.3239 33.4193 10.4258 33.3036 10.4957C33.2607 10.5402 33.2057 10.5712 33.1453 10.5846C33.0849 10.598 33.0219 10.5933 32.9642 10.5711C32.8795 10.5252 32.8085 10.4576 32.7582 10.3754C32.708 10.2932 32.6804 10.1992 32.6782 10.1028V9.57171C33.0428 9.47743 33.4105 9.36743 33.6367 9.81055Z" fill="#C9AF97"/>
<path d="M34.8624 12.3247C34.9692 12.4378 35.0792 12.5478 35.1766 12.661C34.9948 13.0769 34.6673 13.4121 34.2558 13.6038H33.9196L34.8624 12.3247Z" fill="#A38C7A"/>
<path d="M17.7315 39.9237C17.9044 40.4768 18.0772 41.0331 18.3601 41.9162C17.389 41.2688 17.7315 40.5146 17.3419 40.0306L17.7315 39.9237Z" fill="#77B573"/>
<path d="M20.12 43.1701C19.6846 43.2085 19.2491 43.0977 18.885 42.8558C18.797 42.5416 18.2564 42.2273 18.8598 41.8753L20.12 43.1701Z" fill="#F8D572"/>
<path d="M12.2822 42.5353H14.4538C14.1405 42.7701 13.7595 42.8971 13.368 42.8971C12.9764 42.8971 12.5954 42.7701 12.2822 42.5353V42.5353Z" fill="#CADFC5"/>
<path d="M13.2061 41.2782L12.8918 41.3222C12.6467 41.2217 12.2445 41.2499 12.4142 40.788C12.5839 40.326 12.9138 40.4737 13.2218 40.656L13.203 40.6308L13.2061 41.2782Z" fill="#9EC69A"/>
<path d="M14.0893 42.196C13.9102 41.8817 13.731 41.5926 13.5488 41.294C14.4916 41.1369 14.5387 41.5172 14.0893 42.196Z" fill="#94C192"/>
<path d="M11.9208 41.9036C11.8322 41.9004 11.744 41.891 11.6568 41.8754V40.5114C12.1031 41.0425 11.8768 41.4919 11.9208 41.9036Z" fill="#BFD9BD"/>
<path d="M13.2062 40.656C13.3979 40.3857 13.6336 40.1971 13.9605 40.4234C13.9952 40.4765 14.0158 40.5375 14.0202 40.6008C14.0246 40.6641 14.0127 40.7274 13.9856 40.7848C13.6714 41.0991 13.4545 40.7062 13.1874 40.6308L13.2062 40.656Z" fill="#91BE8D"/>
<path d="M15.0446 40.3197V41.6774C14.6424 41.3002 14.7492 40.9734 15.0446 40.3197Z" fill="#B7D4B3"/>
<path d="M12.8636 41.5233C13.0962 41.6365 13.3696 41.7716 13.2439 42.0701C13.1999 42.1676 12.8793 42.1487 12.6845 42.1833C12.6478 42.1296 12.6232 42.0686 12.6123 42.0045C12.6015 41.9404 12.6047 41.8747 12.6218 41.812C12.6388 41.7492 12.6692 41.6909 12.711 41.6411C12.7527 41.5913 12.8048 41.5511 12.8636 41.5233V41.5233Z" fill="#95C08D"/>
<path d="M17.3294 26.0583C17.3294 26.2091 17.3011 26.3726 17.2854 26.514L15.7706 26.0017C17.0088 25.9074 16.5123 25.0589 16.7291 24.4775C16.9453 24.6761 17.1122 24.9224 17.2164 25.1968C17.3206 25.4713 17.3593 25.7662 17.3294 26.0583V26.0583Z" fill="#C1B19B"/>
<path d="M13.841 26.184C13.5547 26.3606 13.235 26.4764 12.9019 26.524C12.5688 26.5715 12.2295 26.55 11.9052 26.4605C13.1811 26.0834 13.1811 26.0834 13.2754 24.4775C13.6588 25.0495 13.9259 25.5555 13.841 26.184Z" fill="#A09080"/>
<path d="M10.5412 25.7722C10.428 25.5821 10.3683 25.3649 10.3683 25.1437C10.3683 24.9224 10.428 24.7053 10.5412 24.5151C10.6332 24.7119 10.681 24.9265 10.681 25.1437C10.681 25.3609 10.6332 25.5755 10.5412 25.7722V25.7722Z" fill="#C9B4A1"/>
<path d="M26.0628 18.9997L26.4179 18.962C26.9153 19.2839 27.4815 19.4841 28.0706 19.5463C28.6597 19.6085 29.2552 19.5311 29.8089 19.3203C30.0237 19.219 30.265 19.1878 30.4985 19.2312C30.732 19.2747 30.9459 19.3905 31.1099 19.5623C29.8372 20.5051 29.0138 21.7967 28.3067 23.5032C27.4424 21.8847 27.2036 20.1814 26.0628 18.9997Z" fill="#E8C7B0"/>
<path d="M15.1672 31.9539C14.7492 33.1921 14.0013 33.8081 12.7945 33.7295C11.726 33.6573 10.9089 33.1921 10.5569 31.9539H15.1672Z" fill="#D08167"/>
<path d="M16.9491 29.6378C16.1854 30.2883 15.3966 30.5806 14.7964 29.4995C14.1678 28.3461 15.0603 27.8747 15.8649 27.397H15.8366L16.9491 28.0853C17.5085 28.607 17.8133 29.1224 16.9491 29.6378Z" fill="#282724"/>
<path d="M10.0666 29.402C9.38463 29.8043 8.77181 29.7571 8.32555 29.0595C8.19159 28.8634 8.13107 28.6264 8.15464 28.3901C8.17821 28.1539 8.28436 27.9335 8.4544 27.7678C9.04208 27.111 9.64548 27.375 10.2363 27.7678C10.8303 28.3901 10.8963 28.9432 10.0666 29.402Z" fill="#232220"/>
<path d="M16.9491 29.6378C17.3105 29.1224 17.2099 28.6102 16.9491 28.0948C17.0756 28.0545 17.2102 28.0466 17.3405 28.0717C17.4708 28.0969 17.5928 28.1542 17.6953 28.2386C17.7978 28.3229 17.8775 28.4316 17.9272 28.5547C17.9769 28.6778 17.9951 28.8114 17.9799 28.9433C17.9768 29.2638 17.6656 29.9521 16.9491 29.6378Z" fill="#F4F0ED"/>
<path d="M10.0665 29.4021C10.5474 28.9087 10.4248 28.3493 10.2362 27.7836C10.3756 27.8005 10.5089 27.8501 10.6255 27.9283C10.7421 28.0064 10.8386 28.111 10.9072 28.2335C10.9758 28.356 11.0145 28.4929 11.0202 28.6331C11.026 28.7734 10.9986 28.913 10.9402 29.0406C10.8208 29.4178 10.5788 29.8137 10.0665 29.4021Z" fill="#F1EDE9"/>
<path d="M23.2344 11.1243C23.8787 10.4958 24.5921 10.2538 25.3966 10.81C26.0471 11.25 26.4902 11.8188 26.0691 12.6391C25.648 13.4593 24.9912 13.4876 24.2652 13.0036C23.5676 12.5574 23.7058 11.668 23.2344 11.1243Z" fill="#2A2926"/>
<path d="M26.6097 15.8571C27.917 15.9671 28.8787 15.3795 29.9503 15.59C29.8938 16.4763 29.6361 17.2211 28.7216 17.3845C27.7379 17.5605 27.2382 16.8816 26.6097 15.8571Z" fill="#D18268"/>
<path d="M30.1012 11.4196C29.9818 10.6685 30.3652 10.4108 31.044 10.4548C31.1011 10.4181 31.1651 10.3933 31.2321 10.3819C31.2991 10.3706 31.3676 10.3729 31.4337 10.3888C31.5999 10.441 31.7483 10.5383 31.8626 10.6698C31.9769 10.8013 32.0525 10.9618 32.0811 11.1336C32.1282 12.705 31.8014 13.0192 30.4909 12.6798C29.8498 12.4221 29.9063 11.9444 30.1012 11.4196Z" fill="#252421"/>
<path d="M32.1188 9.4712C31.6509 9.53029 31.1862 9.61313 30.7266 9.71944C30.3747 9.82629 30.0384 9.9646 29.7053 9.74775C29.6393 9.70376 29.633 9.47117 29.6833 9.36746C29.9001 8.92435 30.3118 8.8898 30.7392 8.92123C31.1666 8.95265 31.6632 8.94008 32.1188 9.4712Z" fill="#35312B"/>
<path d="M32.0905 11.1337C31.9479 11.0818 31.819 10.9984 31.7134 10.8895C31.6078 10.7806 31.5282 10.6492 31.4808 10.5051C31.7113 10.3811 31.968 10.3136 32.2297 10.3081C32.4914 10.3026 32.7506 10.3594 32.9861 10.4737L33.3004 10.5051C33.423 11.1997 32.9861 11.6396 32.5839 12.1173C32.1847 11.9005 32.5367 11.3097 32.0905 11.1337Z" fill="#E2E0DD"/>
<path d="M23.2345 11.1242C23.6147 11.2373 24.6204 10.6371 24.0421 11.8313C23.8253 12.2807 24.2558 12.5918 24.2652 12.9909C23.2345 12.7395 22.7882 12.177 23.2345 11.1242Z" fill="#F2F1EF"/>
<path d="M23.4293 9.89232C24.083 9.1695 24.7901 8.69181 25.9969 9.42091L23.4293 9.89232Z" fill="#3E3832"/>
<path d="M30.1012 11.4197C30.1829 11.8534 30.1389 12.3311 30.5003 12.6767C30.1578 13.079 29.8718 12.8873 29.6644 12.551C29.3595 12.0293 29.7618 11.7245 30.1012 11.4197Z" fill="#E8E8E6"/>
<path d="M32.9768 10.4674L31.4714 10.4988L31.044 10.4549C31.4997 9.93317 32.1408 10.282 32.6688 10.1091C32.851 10.1688 33.0019 10.2443 32.9768 10.4674Z" fill="#262622"/>
</svg>
