<svg width="47" height="42" viewBox="0 0 47 42" fill="none" xmlns="http://www.w3.org/2000/svg">
<path d="M43.3319 31.353C43.3699 31.518 43.3677 31.6898 43.3256 31.8538C43.2835 32.0179 43.2027 32.1694 43.0899 32.2958C42.7442 32.5755 43.0365 33.0406 42.7756 33.3486C42.7033 35.3127 41.5374 36.5855 40.0603 37.6635C39.5892 37.8497 39.1277 38.0595 38.6776 38.292C38.3633 38.7917 37.829 38.6785 37.3765 38.8074C36.775 38.6754 36.1521 38.6754 35.5506 38.8074L35.208 38.6534C34.7241 38.116 34.0107 38.6063 33.4796 38.27L31.132 37.9809C30.9618 38.0546 30.7762 38.086 30.5912 38.0724C30.4062 38.0587 30.2273 38.0003 30.0698 37.9023C29.3627 37.522 28.6336 37.2958 27.829 37.588C27.0712 37.6246 26.3182 37.4494 25.6543 37.0821C24.8875 36.6358 24.083 36.3781 23.1873 36.6421C22.3891 36.7489 21.7008 36.4378 21.0189 36.0921C20.2678 35.6584 19.4852 35.407 18.6084 35.6364C18.4739 35.665 18.3341 35.6554 18.2047 35.6087C18.0753 35.5621 17.9616 35.4803 17.8762 35.3724C17.1722 34.8539 16.3897 34.8979 15.5914 35.0582C14.7995 35.1556 14.1207 34.8256 13.4419 34.5019C12.6405 34.1468 11.8328 33.8357 10.9277 34.1122C10.2398 34.1874 9.54852 34.0036 8.98868 33.5968C8.27215 33.116 7.58077 32.5597 6.61911 32.8552C4.20868 32.5692 2.25707 31.5981 1.23885 29.2411C1.09325 28.6608 0.890068 28.0965 0.632312 27.5566C0.410814 27.1781 0.294067 26.7475 0.294067 26.309C0.294067 25.8704 0.410814 25.4398 0.632312 25.0613C0.764304 24.2285 1.26085 23.4586 1.044 22.566L1.32369 21.265C1.85794 20.1902 1.97422 19.0337 1.99308 17.8552L2.15021 17.5095C2.3702 16.6892 2.8039 15.9099 2.59334 15.0142C2.63675 14.2525 2.82445 13.506 3.14645 12.8143C3.2753 12.0789 3.83783 11.419 3.511 10.6144C3.53095 9.85155 3.71308 9.10164 4.04526 8.41457C4.42238 7.9086 4.50722 7.28948 4.70206 6.71751C5.64487 4.69363 7.42363 3.88911 9.46008 3.4617C9.96254 3.61166 10.4989 3.60398 10.9969 3.4397L11.6254 3.33599C12.3294 3.16 12.9579 3.38628 13.5739 3.69426C14.2464 4.06195 14.9315 4.36364 15.7266 4.09966C16.5908 3.99595 17.2979 4.54277 18.1087 4.66848C18.8598 4.98275 19.6141 5.29703 20.4563 5.03619C20.6237 4.99116 20.8003 4.99315 20.9666 5.04194C21.1329 5.09073 21.2826 5.18442 21.3991 5.31273C22.0716 6.02926 22.9013 5.76528 23.7058 5.671C24.3799 5.66918 25.0431 5.84013 25.6323 6.16755C26.4284 6.66707 27.3888 6.83408 28.3067 6.63266C28.9918 6.63266 29.5104 7.12607 30.164 7.21406C31 7.40577 31.8077 7.81117 32.7033 7.52833C33.0679 7.49062 33.423 7.50005 33.6618 7.8426C33.8347 8.68169 34.2904 7.70118 34.5512 7.96202C34.7652 7.97676 34.9718 8.04599 35.1515 8.16314C35.4701 8.37909 35.8315 8.52398 36.2111 8.58797C36.5906 8.65195 36.9795 8.63353 37.3513 8.53397C37.4849 8.50668 37.6235 8.5169 37.7516 8.56349C37.8797 8.61009 37.9925 8.69124 38.0773 8.79797C38.6241 9.31336 39.3532 9.14051 39.9943 9.30393L40.1986 9.28508C40.8271 9.3165 41.0911 10.165 41.8045 10.0142C42.5054 10.2373 43.1307 10.6427 43.8095 10.9099C44.9189 11.4127 45.3055 12.4812 45.8177 13.4586C45.6386 14.1437 46.088 14.7156 46.1886 15.3442V16.287C46.1163 17.2298 45.6606 18.1254 45.8303 19.1154C45.8222 19.8828 45.6304 20.6372 45.2709 21.3153C45.1578 22.1512 44.6204 22.918 44.8781 23.8294C44.8781 24.1719 44.9189 24.5271 44.6612 24.8162C44.3752 25.4007 43.9447 25.957 44.2747 26.6704C44.3344 27.4686 43.9604 28.1537 43.709 28.8702C43.5959 29.6873 43.0742 30.4573 43.3319 31.353Z" fill="#96D058"/>
<path d="M13.511 4.01807L11.6254 3.34556C14.0107 0.382011 17.3922 0.0960158 20.7391 0.328574C25.4845 0.678757 30.0962 2.06014 34.2526 4.37634C36.5217 5.63342 38.731 7.03506 40.1986 9.29464L40.2143 9.42977C39.4255 9.64976 38.7561 9.23806 38.0522 9.0055L37.345 8.83895C36.4682 9.0118 35.7014 8.52467 34.8749 8.41782L34.5261 8.19785C34.2118 8.25128 33.8975 8.37698 33.6524 8.07528C33.5146 7.96522 33.3536 7.88794 33.1816 7.84929C33.0095 7.81063 32.8309 7.8116 32.6593 7.85214C31.7731 8.07842 30.9937 7.56616 30.1452 7.48131C29.3815 7.73587 28.9227 6.92506 28.2281 6.93763C27.2445 7.13248 26.3425 6.71451 25.4374 6.48823C24.8465 6.18011 24.1956 6.00424 23.5298 5.97283C22.7379 6.22424 22.0528 5.94768 21.3897 5.54856L20.4029 5.32229C19.5103 5.57371 18.7341 5.06145 17.8887 4.95146C17.0433 5.18716 16.4997 4.26635 15.6888 4.3732C14.878 4.48005 14.2526 4.18149 13.511 4.01807Z" fill="#E4F3D5"/>
<path d="M13.5519 34.2065C14.2307 34.5657 14.9839 34.7615 15.7517 34.7785C16.5406 34.5334 17.2037 34.9545 17.8982 35.1933L18.5959 35.3788C19.4727 35.1713 20.2489 35.6459 21.0786 35.7559C21.7568 36.1191 22.5095 36.3213 23.2785 36.3467C24.1647 36.1141 24.9441 36.6201 25.7926 36.7238C26.4668 37.0947 27.223 37.2913 27.9925 37.2958C28.8001 37.0318 29.4758 37.5221 30.2112 37.6761L31.1257 38.0123C24.7712 42.9935 16.6097 41.9281 10.8994 36.6924C9.84036 35.7213 9.07355 34.436 8.16846 33.2952C8.50158 33.0375 8.82213 32.9809 9.11126 33.3423C9.69307 33.6664 10.3498 33.8323 11.0157 33.8231C11.9397 33.6157 12.7128 34.1028 13.5519 34.2065Z" fill="#E4F3D5"/>
<path d="M2.00875 17.8835C2.17875 18.4639 2.20667 19.0767 2.09017 19.6702C1.97367 20.2636 1.71616 20.8203 1.33936 21.2934L2.00875 17.8835Z" fill="#87AF52"/>
<path d="M1.05969 22.5944C1.58137 23.5372 1.10997 24.3134 0.647997 25.0896C0.468865 24.2066 0.899411 23.424 1.05969 22.5944Z" fill="#87B650"/>
<path d="M45.8523 19.0998C45.3526 18.0847 45.8869 17.1985 46.2106 16.2714C46.4589 17.2707 46.0503 18.1727 45.8523 19.0998Z" fill="#80B046"/>
<path d="M44.3092 26.6516C43.6807 25.8659 44.3658 25.1808 44.4789 24.4517C44.5197 24.4706 44.5795 24.48 44.5952 24.5146C44.6352 24.6064 44.6688 24.7009 44.6957 24.7974L44.3092 26.6516Z" fill="#7DAD43"/>
<path d="M44.9001 23.8107C44.3721 22.8678 44.922 22.1073 45.2929 21.2965C45.4312 22.1859 45.0383 22.9778 44.9001 23.8107Z" fill="#7DA946"/>
<path d="M2.60909 15.0425C3.11506 15.9853 2.60909 16.7615 2.16598 17.5378C2.03084 16.6547 2.5588 15.891 2.60909 15.0425Z" fill="#7FAD47"/>
<path d="M43.3319 31.353C42.804 30.4102 43.3319 29.6434 43.731 28.8389C43.9353 29.7565 43.3885 30.5076 43.3319 31.353Z" fill="#7EAC45"/>
<path d="M9.13647 33.3423L8.19366 33.2952L6.63489 32.8992C7.59655 32.3398 8.36022 32.8803 9.13647 33.3423Z" fill="#7FA946"/>
<path d="M43.841 10.9193C43.0881 10.8656 42.3783 10.5485 41.8359 10.0236C42.7379 9.80991 43.2564 10.4322 43.841 10.9193Z" fill="#81AD4A"/>
<path d="M3.52673 10.6334C4.1207 11.4882 3.52674 12.145 3.16219 12.8332C2.99249 12.057 3.4356 11.375 3.52673 10.6334Z" fill="#7CA942"/>
<path d="M46.2201 15.3442C45.8587 14.766 45.3747 14.2129 45.8492 13.4586C46.1069 14.0652 46.3992 14.6717 46.2201 15.3442Z" fill="#80B046"/>
<path d="M4.71152 6.72705C4.75237 7.3933 4.66751 8.00927 4.05469 8.4241C4.04842 7.79522 4.2835 7.18785 4.71152 6.72705V6.72705Z" fill="#80B048"/>
<path d="M35.56 38.8389C35.8308 38.66 36.1483 38.5646 36.473 38.5646C36.7976 38.5646 37.115 38.66 37.3859 38.8389C36.7837 38.9646 36.1621 38.9646 35.56 38.8389V38.8389Z" fill="#77A03D"/>
<path d="M0.648128 27.585C0.888607 27.7875 1.07133 28.0499 1.17784 28.3457C1.28435 28.6414 1.31085 28.9601 1.25466 29.2694C0.852399 28.7823 0.547562 28.2575 0.648128 27.585Z" fill="#87B650"/>
<path d="M11.0125 3.44922C10.8011 3.63555 10.53 3.74018 10.2482 3.74421C9.96642 3.74824 9.69246 3.65142 9.47577 3.47122L11.0125 3.44922Z" fill="#7CA445"/>
<path d="M38.687 38.3077C38.8426 38.0915 39.0522 37.9196 39.2947 37.8094C39.5373 37.6991 39.8045 37.6542 40.0698 37.6792C39.7587 38.2229 39.2433 38.3046 38.687 38.3077Z" fill="#7CA945"/>
<path d="M42.785 33.3644C42.785 32.9495 42.6499 32.4781 42.807 32.1356C42.9641 31.793 43.0081 32.2079 43.0898 32.3116C43.0521 32.6855 43.1716 33.0941 42.785 33.3644Z" fill="#7CA943"/>
<path d="M33.4891 38.3015C34.0799 38.3612 34.765 37.9872 35.2175 38.6849C34.6299 38.6157 33.9856 38.7886 33.4891 38.3015Z" fill="#7CAA43"/>
<path d="M14.7964 32.2707L14.4569 32.079C14.1427 32.145 13.8284 32.2707 13.5739 31.9595C13.049 31.2839 12.2916 32.1324 11.7322 31.6767C11.3551 31.3467 10.7894 31.749 10.4312 31.3247L9.74607 31.133C8.86927 31.3562 8.09931 30.8533 7.2665 30.7748C6.71967 30.8407 6.71967 30.0205 6.16656 30.0959C5.28351 29.6985 4.56511 29.0079 4.13324 28.1412L3.17158 26.0325C2.91633 25.1059 2.92395 24.1266 3.19358 23.2041V23.2323C3.46385 22.9683 3.19358 22.5189 3.50785 22.2895C3.82211 22.0601 3.72156 21.661 3.73728 21.3184C3.48272 20.4228 4.0201 19.6465 4.11753 18.8043C4.1741 18.0406 4.83406 17.4278 4.67379 16.6044C4.4758 15.7151 4.9409 14.9357 5.07604 14.0903C5.95285 12.167 5.60401 9.82881 7.27591 8.15376C9.11124 6.31844 11.2451 5.68991 13.7436 6.09217C14.5072 6.21473 15.2615 6.40642 16.0188 6.55099C16.2608 6.86525 16.7385 6.53213 16.9616 6.90926L17.9453 7.13554C18.8473 6.92812 19.6392 7.30209 20.4595 7.60065C21.0579 7.88747 21.7129 8.03674 22.3765 8.03749C23.3507 7.91806 24.2621 8.28889 25.1798 8.45859L25.1043 8.5026C25.6417 8.90486 25.3809 9.42969 25.318 9.91995C25.1012 11.5541 24.5984 13.1318 24.3532 14.7565C23.6556 18.4869 22.719 22.1638 22.0371 25.8973C21.8774 26.4991 21.8484 27.1282 21.9522 27.7421C22.0124 28.2304 21.9237 28.7255 21.6977 29.1626C21.2501 29.9349 20.9646 30.7904 20.8586 31.6767C20.7266 32.2518 20.8586 32.8992 20.384 33.38C20.0698 33.38 19.7555 33.4775 19.5041 33.2418L19.413 33.1978L19.3218 33.2355C19.0075 32.9998 18.5644 33.2355 18.2784 32.9212C17.9924 32.6069 17.6499 32.6761 17.3074 32.6886C16.3991 32.8992 15.6197 32.4498 14.7964 32.2707Z" fill="#FEFEFE"/>
<path d="M40.5035 11.947C41.1666 12.4247 41.9491 12.7547 42.4394 13.4586C42.7364 13.5985 42.9866 13.8212 43.16 14.1C43.3334 14.3788 43.4226 14.7017 43.4167 15.03L43.9918 16.9438C44.135 17.1688 44.2111 17.4299 44.2111 17.6965C44.2111 17.9632 44.135 18.2243 43.9918 18.4492C43.5728 20.3348 43.1538 22.2204 42.7348 24.106C41.8203 24.6403 40.9654 24.106 40.0855 23.9677C39.479 23.8798 38.9038 23.6189 38.2753 23.6535C35.6512 23.3204 33.093 22.6541 30.5286 22.0444C29.9816 21.882 29.4192 21.7767 28.8504 21.7302C27.4928 21.4075 26.131 21.1089 24.7649 20.8345C23.3727 20.5579 23.0365 20.1651 23.357 18.8515C23.6273 17.7484 23.7467 16.6139 24.061 15.5234C24.4381 13.8829 24.5795 12.1921 25.1389 10.5894C26.22 9.7377 27.3891 10.4291 28.5173 10.4071C27.8385 10.3379 27.1754 10.1431 26.4871 10.1777C25.7989 10.2122 25.4375 9.8634 25.5443 9.14687C25.5882 8.99459 25.6838 8.86236 25.8146 8.77289C26.191 9.00202 26.6358 9.09209 27.0717 9.02744C27.8636 8.79174 28.5456 9.09659 29.2213 9.45172L29.9127 9.63085C30.2269 9.56486 30.5412 9.43285 30.7895 9.7534C31.2483 10.2342 31.8454 9.95139 32.3608 10.03C32.7222 10.3725 33.2816 9.97025 33.6179 10.3631C33.8957 10.5637 34.2402 10.6492 34.5795 10.6019C35.5977 10.4291 36.5248 10.7716 37.4519 11.1016C38.533 11.1928 39.5952 11.2525 40.5035 11.947Z" fill="#FEFEFE"/>
<path d="M21.3928 29.1783L21.7071 27.9024C21.6914 25.6617 22.5305 23.5655 22.8322 21.3751C22.917 20.7465 23.3287 20.5077 24.0892 20.6051C25.8303 20.8345 27.5116 21.3311 29.2369 21.6265C30.7486 22.1513 32.5493 21.793 33.8033 23.1193C33.4639 26.0294 32.697 28.8609 32.1816 31.7396C31.7919 32.9684 31.9648 34.3481 31.2043 35.4794C30.4909 36.2997 30.1641 34.9169 29.5481 35.1903C28.7624 35.426 28.0805 35.1054 27.4048 34.7723C27.2654 34.6697 27.1066 34.5965 26.938 34.557C26.7695 34.5176 26.5947 34.5128 26.4243 34.5429C25.5349 34.8163 24.7586 34.2695 23.9101 34.1909C23.1779 34.3166 22.653 33.7384 21.9868 33.6378C21.4682 33.7886 21 33.7604 20.6669 33.2607C20.5623 32.9422 20.5623 32.5986 20.6669 32.2802C20.7917 31.2223 21.0352 30.1817 21.3928 29.1783V29.1783Z" fill="#F4E6A6"/>
<path d="M31.4557 35.7088C31.4625 35.6685 31.4607 35.6272 31.4504 35.5877C31.4401 35.5481 31.4216 35.5112 31.396 35.4794C31.1948 35.0834 31.374 34.766 31.6128 34.4611C31.7336 34.3764 31.8705 34.3176 32.0151 34.2883C32.1582 34.2726 32.3025 34.2726 32.4456 34.2883C33.2313 34.2254 33.9384 34.5428 34.6644 34.7628C34.9786 34.2506 34.8812 33.4869 35.5852 33.1915C35.7189 33.1346 35.865 33.1129 36.0094 33.1286C36.1372 33.1914 36.249 33.2822 36.3367 33.3943C36.4243 33.5064 36.4854 33.6369 36.5154 33.776C36.682 34.0526 36.6977 34.5334 37.2319 34.3134C37.609 33.424 37.7945 32.4561 38.4104 31.6799C38.5236 31.5039 38.6524 31.3342 38.7781 31.1676C39.1584 30.6805 39.4318 30.0708 40.1389 29.9482C40.582 30.0394 41.0817 29.8131 41.4777 30.1682C41.3986 31.2899 41.0411 32.3742 40.4375 33.323C39.8339 34.2717 39.0033 35.055 38.0207 35.6019C37.5682 35.9602 37.1062 36.2807 36.4808 36.1173H34.2464C33.2784 36.2965 32.3671 35.9256 31.4557 35.7088Z" fill="#FDFDFC"/>
<path d="M41.4808 30.1933C41.0534 30.4133 40.626 30.5736 40.2237 30.1682C40.0513 29.8823 39.9504 29.559 39.9296 29.2258C39.9088 28.8926 39.9687 28.5593 40.1043 28.2543C40.4507 27.4345 40.5596 26.5339 40.4186 25.6553C40.434 25.502 40.4867 25.3548 40.5722 25.2266C40.6577 25.0984 40.7732 24.9931 40.9088 24.9199C41.7448 24.6716 42.0748 25.1147 42.1848 25.8627C42.2165 25.9328 42.233 26.0089 42.233 26.0858C42.233 26.1628 42.2165 26.2389 42.1848 26.309L42.0999 26.4001C41.6914 27.5126 41.6505 28.6848 41.5279 29.857C41.4997 29.9576 41.4808 30.0707 41.4808 30.1933Z" fill="#94CC57"/>
<path d="M25.4531 10.6208C24.7775 12.167 24.8246 13.8891 24.2652 15.4573C23.9509 15.3002 24.1301 14.9357 23.9509 14.7219C24.326 12.6478 24.702 10.5726 25.0792 8.49631C25.3934 8.4146 25.6543 8.41145 25.8083 8.75086C25.7676 8.81219 25.7418 8.88213 25.7328 8.95514C25.4531 9.47683 25.8931 10.1211 25.4531 10.6208Z" fill="#C9713F"/>
<path d="M38.3382 23.2668L42.7379 24.0997C43.0522 24.3385 42.8228 24.5774 42.7379 24.8131C42.446 24.8947 42.1373 24.8947 41.8454 24.8131C41.0786 24.8041 40.3184 24.6693 39.5953 24.4139C38.9856 24.0997 38.1559 24.4139 37.6845 23.7194C37.6499 23.204 38.1496 23.4523 38.3382 23.2668Z" fill="#CA703E"/>
<path d="M41.5092 29.8383C40.9341 28.5624 41.1949 27.4247 42.0811 26.3813C42.5274 27.6478 42.4237 28.8138 41.5092 29.8383Z" fill="#78A53D"/>
<path d="M31.7794 34.4705L31.3959 35.4794H31.2954H31.1948C31.11 34.1689 31.44 32.9244 31.8234 31.6861C31.856 31.6638 31.8928 31.6485 31.9316 31.641C31.9704 31.6335 32.0104 31.634 32.0489 31.6426C32.0875 31.6511 32.1239 31.6675 32.156 31.6906C32.188 31.7138 32.2149 31.7433 32.2351 31.7773C32.5713 32.4058 32.3859 33.0343 32.2162 33.644C32.1551 33.9565 32.0031 34.244 31.7794 34.4705V34.4705Z" fill="#C76A34"/>
<path d="M40.5034 11.9469L37.4173 11.2147C37.3293 11.1487 37.301 11.0827 37.3356 11.023C37.3702 10.9633 37.4016 10.935 37.433 10.935C38.555 10.9696 39.7649 10.7433 40.5034 11.9469Z" fill="#86AE51"/>
<path d="M37.4331 10.9319C37.4331 11.0262 37.4331 11.1173 37.4331 11.2116L34.6047 10.5831C35.6386 9.95769 36.5123 10.6271 37.4331 10.9319Z" fill="#7AA641"/>
<path d="M25.1641 8.45236C24.1804 8.63464 23.2784 8.21351 22.3608 8.03124C23.3947 7.49698 24.2684 8.04696 25.1641 8.45236Z" fill="#7EA844"/>
<path d="M31.4556 35.7087C32.4267 35.6207 33.3412 35.9727 34.2589 36.1487C33.2155 36.6924 32.3387 36.1833 31.4556 35.7087Z" fill="#7EAD45"/>
<path d="M4.1333 28.1349L6.16662 30.0896C5.65341 30.0507 5.16977 29.8343 4.79874 29.4776C4.42771 29.1209 4.19242 28.6462 4.1333 28.1349Z" fill="#88B252"/>
<path d="M27.3954 34.7849L29.5387 35.2028C28.7499 35.8314 28.0396 35.2783 27.3105 35.0394C27.3105 35.0394 27.2916 34.9451 27.3105 34.9043C27.3325 34.8604 27.3611 34.8201 27.3954 34.7849V34.7849Z" fill="#7AA73F"/>
<path d="M7.26648 30.7685C8.14014 30.5516 8.92268 30.979 9.74606 31.1267C8.81897 31.6924 8.04901 31.1802 7.26648 30.7685Z" fill="#7FA947"/>
<path d="M20.7392 33.2481L21.9963 33.6377C21.0535 34.2034 20.2804 33.7006 19.501 33.2418L20.4438 33.2229C20.5412 33.0972 20.6418 33.1004 20.7392 33.2481Z" fill="#7FA944"/>
<path d="M21.0785 35.7559C20.2049 35.9256 19.4223 35.4982 18.5958 35.3788C19.5292 34.8131 20.296 35.3348 21.0785 35.7559Z" fill="#83AE4D"/>
<path d="M29.2244 9.42976L27.0591 9.01492C27.851 8.40839 28.5644 8.93322 29.2967 9.17835C29.2967 9.17835 29.2967 9.27263 29.2967 9.31663C29.2767 9.35681 29.2525 9.39474 29.2244 9.42976V9.42976Z" fill="#77A53B"/>
<path d="M4.1175 18.7823C4.29349 19.6686 3.82524 20.4543 3.73725 21.2965C3.14014 20.3537 3.66495 19.5743 4.1175 18.7823Z" fill="#7FAB46"/>
<path d="M34.9064 8.41779C35.7769 8.28266 36.5563 8.68179 37.3765 8.83892C36.4526 9.34803 35.6732 8.88291 34.9064 8.41779Z" fill="#81AE49"/>
<path d="M25.4783 6.50066C26.4556 6.36239 27.3293 6.86835 28.269 6.95006C27.2319 7.44346 26.3582 6.95007 25.4783 6.50066Z" fill="#7CA944"/>
<path d="M14.7964 32.2707C15.6763 32.123 16.4557 32.5693 17.2917 32.6918C16.3394 33.2292 15.5569 32.827 14.7964 32.2707Z" fill="#7AA93F"/>
<path d="M23.907 34.1909C24.7807 34.0369 25.5758 34.4423 26.4212 34.5429C25.4784 35.1463 24.7116 34.5334 23.907 34.1909Z" fill="#7EA741"/>
<path d="M17.9107 35.1934L15.7517 34.7849C16.5374 34.1564 17.2288 34.876 17.9516 34.942C17.9633 34.9852 17.9633 35.0308 17.9516 35.074C17.9436 35.1155 17.9298 35.1557 17.9107 35.1934V35.1934Z" fill="#7BAC41"/>
<path d="M25.7957 36.7238C24.9189 36.881 24.1301 36.4504 23.2816 36.3467C24.2306 35.7842 24.9975 36.3561 25.7957 36.7238Z" fill="#7DAB46"/>
<path d="M3.19361 23.1978C3.19361 24.1406 3.19361 25.0834 3.17161 26.0262C2.91504 25.5983 2.78136 25.1079 2.78524 24.6089C2.78912 24.11 2.93042 23.6217 3.19361 23.1978Z" fill="#82AE48"/>
<path d="M5.076 14.084C5.26142 14.9671 4.76175 15.7402 4.67375 16.5981C4.14892 15.6459 4.68003 14.8759 5.076 14.084Z" fill="#81AB47"/>
<path d="M13.5109 4.018C14.2935 3.8483 14.9848 4.23171 15.7108 4.37313C14.8748 4.99538 14.218 4.3857 13.5109 4.018Z" fill="#81AD48"/>
<path d="M17.9359 4.95142C18.8096 4.82257 19.6078 5.1934 20.4501 5.32225C19.5041 5.91307 18.7373 5.32225 17.9359 4.95142Z" fill="#81AE49"/>
<path d="M21.4305 5.55798L23.5707 5.98224C22.7787 6.56678 22.0716 6.05453 21.3425 5.81254C21.3425 5.81254 21.3236 5.71826 21.3425 5.67741C21.366 5.63363 21.3957 5.59342 21.4305 5.55798V5.55798Z" fill="#7FAD46"/>
<path d="M38.0836 9.01483L40.2489 9.43909C39.4601 10.0331 38.7624 9.33853 38.0207 9.27253C38.0083 9.22941 38.0083 9.18367 38.0207 9.14055C38.0362 9.09613 38.0573 9.05387 38.0836 9.01483V9.01483Z" fill="#7EAC44"/>
<path d="M43.4167 15.0237C43.0941 14.502 42.7683 13.9782 42.4393 13.4523C43.3664 13.6 43.731 14.0997 43.4167 15.0237Z" fill="#7FB144"/>
<path d="M20.4437 7.59439L17.9296 7.12928C18.9007 6.59188 19.6769 7.06956 20.4437 7.59439Z" fill="#7BA942"/>
<path d="M13.5518 34.2066C12.6687 34.3889 11.8893 33.8923 11.0377 33.8232C11.9805 33.2764 12.7536 33.842 13.5518 34.2066Z" fill="#81AD49"/>
<path d="M30.1861 7.48122C31.066 7.29894 31.8486 7.7672 32.7002 7.85205C31.7574 8.40516 30.9875 7.83634 30.1861 7.48122Z" fill="#80AC4A"/>
<path d="M43.995 18.443C43.995 17.9433 43.995 17.4404 43.995 16.9407C44.0006 16.8892 44.0155 16.8392 44.039 16.793C44.0935 16.7264 44.1523 16.6635 44.215 16.6045C44.3987 17.2182 44.4096 17.8706 44.2464 18.4901C44.2464 18.509 44.1553 18.5309 44.1144 18.5247C44.0704 18.5042 44.0301 18.4765 43.995 18.443V18.443Z" fill="#77AA3B"/>
<path d="M30.2268 37.6761C29.4349 37.8552 28.7686 37.3021 28.0081 37.2958C28.8692 36.7081 29.5386 37.299 30.2268 37.6761Z" fill="#76A63C"/>
<path d="M42.1282 24.5428L42.7285 24.81C42.3293 25.228 42.7128 25.9413 42.1659 26.3028C42.1439 26.2022 42.1219 26.1048 42.0905 25.9885C41.9082 25.6491 42.0214 25.2594 41.9177 24.9074C41.9521 24.7685 42.0251 24.6421 42.1282 24.5428Z" fill="#F5F5EF"/>
<path d="M36.4934 36.1425L38.0333 35.6271C37.6625 36.2305 37.2288 36.6359 36.4934 36.1425Z" fill="#87B64C"/>
<path d="M33.6241 10.3412C33.1999 10.2217 32.6813 10.536 32.3671 10.008C32.873 10.008 33.4199 9.8949 33.8724 10.052C34.149 10.1495 33.7404 10.2469 33.6241 10.3412Z" fill="#6E9C33"/>
<path d="M18.2627 32.9181C18.6273 32.9684 19.0484 32.8332 19.3061 33.2324H18.1433C17.9767 33.2324 17.8793 33.1664 17.9988 33.0092C18.049 32.9589 18.1716 32.9527 18.2627 32.9181Z" fill="#70A135"/>
<path d="M33.6838 8.07202L34.5574 8.19459C34.4132 8.34732 34.2209 8.44592 34.0127 8.47395C33.8045 8.50198 33.593 8.45773 33.4135 8.34858C33.137 8.16002 33.5738 8.1663 33.6838 8.07202Z" fill="#81AE49"/>
<path d="M16.9679 6.90295C16.6537 6.83381 16.2263 6.98151 16.0251 6.54468C16.3803 6.54468 16.7354 6.54468 17.0874 6.54468C17.2476 6.54468 17.3639 6.62009 17.2319 6.78665C17.1754 6.85265 17.0497 6.86524 16.9679 6.90295Z" fill="#74A23A"/>
<path d="M3.50787 22.2707C3.40731 22.5849 3.68072 23.0375 3.19361 23.2135C3.13696 22.868 3.13696 22.5156 3.19361 22.1701C3.38845 21.6076 3.41359 22.167 3.50787 22.2707Z" fill="#71A136"/>
<path d="M13.5739 31.9564L14.457 32.0758C14.313 32.2311 14.1197 32.3317 13.91 32.3603C13.7002 32.389 13.487 32.344 13.3067 32.233C13.0239 32.0381 13.4733 32.0538 13.5739 31.9564Z" fill="#75A63A"/>
<path d="M10.4313 31.3279C10.8681 31.4284 11.3992 31.1927 11.7323 31.6799C11.3112 31.5102 10.6827 32.1513 10.4313 31.3279Z" fill="#6E9D33"/>
<path d="M30.7769 9.73134L29.9001 9.60877C30.2144 9.26308 30.6198 9.36679 30.9969 9.39507C31.1823 9.39507 31.2043 9.53963 31.0534 9.64648C30.9663 9.68916 30.873 9.71781 30.7769 9.73134Z" fill="#78A63C"/>
<path d="M6.47772 21.3404L6.05347 20.6585C6.19803 20.1336 6.19174 19.5522 6.62229 19.1311C7.28854 18.9049 7.28539 17.9401 8.05221 17.8238C8.75983 17.6037 9.38927 17.1848 9.86554 16.617C12.4771 14.9828 15.3275 14.8445 18.2533 15.3348C19.8027 15.5956 20.1924 16.4221 19.5764 17.9149C19.457 18.2072 19.2779 18.4649 19.4664 18.7823C19.5136 19.1437 19.5198 19.4925 19.2024 19.7534C17.2005 20.2782 15.2647 21.0104 13.2848 21.639C10.9969 21.9312 8.70588 22.3964 6.47772 21.3404Z" fill="#C49A6C"/>
<path d="M7.58078 28.4994C6.63797 27.7672 6.95223 26.9941 7.53048 26.2398C7.92646 25.715 8.37272 25.2248 8.78755 24.7188C9.41609 24.5145 9.8058 23.9928 10.1766 23.512C11.0849 22.3335 12.3514 21.7898 13.6964 21.3404C14.5764 20.8187 15.582 20.7936 16.55 20.5265C17.3545 20.3033 18.3884 19.8979 18.8567 20.7465C19.1268 21.2029 19.253 21.7301 19.2188 22.2594C19.1846 22.7886 18.9916 23.2953 18.665 23.7131C17.8542 24.7659 16.7794 25.539 15.736 26.3059C14.3447 27.3337 12.8035 28.1414 11.1666 28.7006C9.89692 29.128 8.74357 29.216 7.58078 28.4994Z" fill="#C49A6C"/>
<path d="M17.9327 9.9577C19.1898 9.12489 20.3872 10.2123 21.6254 10.0331C21.9396 9.99227 22.0088 10.3474 21.9868 10.6114C21.8988 11.6767 22.2696 12.7798 21.7259 13.8075C21.5704 13.6833 21.4598 13.5116 21.411 13.3187C21.3622 13.1258 21.3779 12.9221 21.4557 12.739C19.6926 13.996 18.0867 15.5674 15.4846 15.2531C14.0358 15.0771 12.4771 15.5045 11.0848 16.1739C10.4563 16.4882 9.82777 16.7585 9.17409 16.2902C9.05686 15.9417 9.04408 15.5665 9.13732 15.2108C9.23057 14.8551 9.42577 14.5345 9.69892 14.2883C11.3488 12.585 13.1339 11.0891 15.4594 10.3882C16.2983 10.3453 17.1287 10.2007 17.9327 9.9577Z" fill="#C49A6C"/>
<path d="M7.58081 28.4994C10.051 29.1563 12.0937 28.0469 14.083 26.859C15.1328 26.2023 16.1395 25.4791 17.0968 24.6937C17.6305 24.2769 18.1061 23.7907 18.511 23.248C18.7576 22.9356 18.9093 22.5591 18.9483 22.163C18.9873 21.767 18.9119 21.3681 18.731 21.0136C18.3508 20.3442 17.474 20.6176 16.8454 20.7402C15.7329 20.9602 14.5638 21.0544 13.5362 21.617C13.4293 21.5447 13.3916 21.4756 13.4262 21.4001C13.4608 21.3247 13.4953 21.2901 13.5299 21.2901C15.1987 20.3159 17.1691 20.1619 18.8882 19.3165C19.0893 19.2191 19.1679 19.546 19.2024 19.7471C19.2244 21.5604 19.6361 23.3486 19.4978 25.1808C19.2998 27.8332 18.3885 29.0557 15.802 29.3637C13.7122 29.612 11.5972 30.1399 9.46956 29.4925C8.7656 29.2851 8.07735 29.0871 7.58081 28.4994Z" fill="#B58B5E"/>
<path d="M9.16785 16.287C9.89725 16.3202 10.6239 16.1768 11.286 15.869C12.5316 15.3324 13.8708 15.0462 15.2269 15.0268C16.4702 14.9681 17.6882 14.6553 18.806 14.1078C19.9237 13.5602 20.9175 12.7896 21.726 11.8433V13.8074C21.7983 15.8407 20.7015 17.3461 19.4664 18.7886C19.1113 18.4932 19.2778 18.1601 19.3564 17.8018C19.7115 16.1456 19.413 15.8973 17.7065 15.6428C14.9032 15.2185 12.2979 15.7779 9.77124 16.925C9.57953 16.903 9.51982 16.727 9.39726 16.6107L9.16785 16.287Z" fill="#B48B5E"/>
<path d="M23.9603 14.7219L24.2746 15.4573L23.6146 18.7854C23.4324 19.6968 23.4387 20.319 24.7114 20.429C26.1351 20.5547 27.5399 21.0261 28.9383 21.3467C29.1489 21.4504 29.3029 21.5855 29.2275 21.8527C27.7567 21.5667 26.2702 21.3436 24.8277 20.9759C23.5958 20.6616 23.115 20.9319 22.9421 22.2864C22.697 24.172 22.1376 26.0324 21.7133 27.9023C20.8616 26.3844 21.861 24.9765 22.0842 23.5623C22.5493 20.5924 23.3129 17.6666 23.9603 14.7219Z" fill="#CA6F3B"/>
<path d="M13.5299 21.2965C13.5299 21.4065 13.5299 21.5134 13.5299 21.6108C12.0961 22.2402 10.8031 23.1507 9.72725 24.2883C9.51041 24.5209 9.3407 25.1211 8.78445 24.7126C9.14271 24.2852 9.50412 23.8578 9.92209 23.355C8.63988 22.783 7.28853 22.4844 6.46515 21.3279C8.83159 21.6705 11.1823 21.4851 13.5299 21.2965Z" fill="#B3895D"/>
<path d="M21.3928 29.1783C21.4808 30.2845 21.132 31.3059 20.7643 32.321C20.5349 32.1701 20.6574 31.8716 20.5034 31.6924C20.6166 30.7873 20.5663 29.8288 21.3928 29.1783Z" fill="#C86C37"/>
<path d="M17.9328 9.95769C17.1534 10.3725 16.3615 10.7151 15.4532 10.3914C16.2217 10.0141 17.0819 9.86362 17.9328 9.95769V9.95769Z" fill="#AE895C"/>
<path d="M9.39724 16.6139L9.77122 16.9282C9.59563 17.2225 9.34226 17.4627 9.03897 17.6224C8.73569 17.7821 8.39424 17.8551 8.05219 17.8333C8.3696 17.2739 9.18354 17.277 9.39724 16.6139Z" fill="#B18D61"/>
<path d="M20.5097 31.6924C20.5946 31.9029 20.6826 32.1135 20.7706 32.3209L20.7328 33.2449C20.6276 33.2435 20.5226 33.2352 20.4186 33.2197C20.0446 32.6918 20.4657 32.2015 20.5097 31.6924Z" fill="#C96C37"/>
<path d="M6.6223 19.1312C6.42955 19.6403 6.23994 20.1494 6.05348 20.6585C6.01891 20.0677 5.75806 19.3857 6.6223 19.1312Z" fill="#AF885B"/>
<path d="M29.2244 21.8526L28.9353 21.3467C31.6254 21.8904 34.325 22.3995 36.9994 23.0123C37.4534 23.0637 37.903 23.1488 38.3445 23.2669L37.6877 23.5277C36.836 24.1939 35.9403 23.4837 35.0729 23.6188C34.6675 23.6031 34.2653 23.6786 33.863 23.6377C33.6085 23.5371 33.4513 23.3863 33.5959 23.0909C32.2728 22.2141 30.6575 22.3775 29.2244 21.8526Z" fill="#C96F3B"/>
<path d="M25.4531 10.6208C25.4877 10.0551 25.2992 9.45489 25.7297 8.9552C25.7297 9.61202 25.9465 10.0206 26.7291 10.008C27.393 10.0113 28.0524 10.1173 28.6838 10.3223C27.653 10.8125 26.4839 9.95771 25.4531 10.6208Z" fill="#EDECE5"/>
<path d="M41.8234 19.7377C42.188 20.9005 42.5557 22.0633 42.1094 23.2732C41.7557 22.1311 41.6571 20.9252 41.8203 19.7408L41.8234 19.7377Z" fill="#EEEDE6"/>
<path d="M38.6808 12.5096C37.6154 12.9401 36.5877 12.2801 35.5381 12.4059C36.0283 12.1568 36.5736 12.0361 37.1232 12.0547C37.6727 12.0734 38.2086 12.231 38.6808 12.5127V12.5096Z" fill="#EEECE6"/>
<path d="M29.193 11.2588C30.1578 11.1299 31.154 10.6302 32.1188 11.3845C31.1415 10.8345 30.1672 11.6704 29.193 11.2588Z" fill="#EDECE5"/>
<path d="M41.7762 15.2436C40.9434 14.8382 40.8083 14.1688 40.2238 13.358C41.2954 13.8357 41.5845 14.4014 41.7762 15.2436Z" fill="#EEEDE6"/>
<path d="M41.8202 19.7409C40.8146 19.0903 41.1634 18.3078 41.6317 17.5127C41.6317 18.2607 41.4871 19.0243 41.8234 19.7377L41.8202 19.7409Z" fill="#EDEBE4"/>
<path d="M32.917 12.0916C33.0859 11.8619 33.3295 11.6983 33.606 11.6289C33.8824 11.5595 34.1745 11.5887 34.4318 11.7113C33.8975 11.9344 33.5141 12.2456 32.917 12.0916Z" fill="#EEEDE6"/>
<path d="M38.6776 12.5127C39.1899 12.5127 39.5199 12.7892 39.8184 13.358C39.1679 13.3141 38.9102 12.9306 38.6808 12.5095L38.6776 12.5127Z" fill="#EDECE5"/>
<path d="M33.6022 23.0909L33.9164 23.5089C34.3313 23.8452 34.3061 24.2883 34.2307 24.7471C33.4545 26.6485 33.6022 28.7666 32.8417 30.6742C32.6814 31.0828 32.7694 31.661 32.0968 31.6862H31.8171C32.253 28.7903 32.8489 25.9209 33.6022 23.0909V23.0909Z" fill="#C9703C"/>
<path d="M27.7284 27.2424C27.8879 27.2816 28.028 27.3768 28.1232 27.5106C28.2183 27.6445 28.2623 27.808 28.247 27.9715C28.247 28.5341 27.9861 29.0306 27.3765 29.084C26.8202 29.1312 26.7479 28.6441 26.7291 28.2104C26.7102 27.7233 26.7291 27.2424 27.7284 27.2424Z" fill="#90C452"/>
<path d="M24.5481 32.0915C24.2998 32.5629 23.9478 32.7201 23.6618 32.1952C23.2659 31.485 22.8762 30.7056 23.9321 30.1556C24.7932 30.5956 24.8246 31.2901 24.5481 32.0915Z" fill="#96CB57"/>
<path d="M30.5004 25.118C29.8247 24.6277 30.0195 24.0432 30.4124 23.5466C30.7644 23.0972 31.1477 23.3989 31.4557 23.6975C31.9711 24.194 31.9491 24.8289 31.7386 25.4165C31.5594 25.9131 31.0786 25.8377 30.7015 25.6334C30.5726 25.5642 30.5601 25.2908 30.4941 25.1117C30.6072 25.0111 30.7549 24.9514 30.8429 24.8194C30.7224 24.9114 30.6079 25.0111 30.5004 25.118V25.118Z" fill="#79A33D"/>
<path d="M26.1163 22.5598C26.4682 22.5598 26.8611 22.4624 26.9931 22.9338C27.0968 23.3078 26.8171 23.4807 26.5499 23.6378C25.9434 23.9898 25.4909 23.7509 25.1106 23.2512L25.2237 23.0784C25.4469 22.8616 25.8523 23.0281 26.0188 22.6919L26.1163 22.5598Z" fill="#84AC47"/>
<path d="M30.2081 32.6604C29.9755 32.9558 29.6392 33.0438 29.4349 32.7452C29.28 32.5356 29.2052 32.2774 29.2242 32.0173C29.2432 31.7573 29.3548 31.5127 29.5387 31.3279C30.5789 31.3625 30.4532 31.9816 30.2081 32.6604Z" fill="#94C155"/>
<path d="M30.208 32.6604C30.4562 31.9784 29.8686 31.7176 29.5386 31.3247C29.7334 31.0105 30.0697 30.6459 30.3368 31.045C30.6574 31.5259 30.7642 32.1638 30.208 32.6604Z" fill="#87AA49"/>
<path d="M30.868 26.9878C31.0566 27.0413 31.3331 27.0413 31.264 27.3367C31.2105 27.5724 30.9497 27.5912 30.7612 27.5661C30.5726 27.541 30.2897 27.5284 30.362 27.2267C30.4186 26.9973 30.6511 26.9721 30.868 26.9878Z" fill="#E5CB8E"/>
<path d="M24.5481 32.0915C24.5919 31.7425 24.5584 31.3881 24.4497 31.0535C24.3411 30.7189 24.1601 30.4123 23.9196 30.1556C25.3149 30.4291 25.0541 31.221 24.5481 32.0915Z" fill="#709E35"/>
<path d="M25.1107 23.2512C24.8436 22.9997 24.7776 22.7012 25.0824 22.4749C25.3873 22.2487 25.8115 22.0569 26.1163 22.5598C25.8901 22.896 25.4501 22.9149 25.1735 23.1883L25.1107 23.2512Z" fill="#80AA43"/>
<path d="M36.242 33.842C36.1289 33.6503 36.176 33.3549 35.8774 33.2858L35.7894 33.1601L35.8994 33.27C34.9566 33.6472 35.4532 34.6811 34.9566 35.2657C34.8218 35.196 34.712 35.0862 34.6424 34.9514C34.3281 33.8326 34.7272 32.6949 34.5701 31.7019C34.5324 32.167 34.6518 32.7704 34.4789 33.3612C34.3061 33.6974 34.0264 33.7006 33.7153 33.6126C33.5797 33.5638 33.4533 33.4926 33.3413 33.402C33.2524 33.2973 33.1976 33.1679 33.1842 33.0312C33.2497 32.7114 33.2571 32.3825 33.2062 32.0601C33.3224 31.4787 33.8096 30.8942 33.1873 30.3222C33.1279 30.1466 33.1326 29.9556 33.2005 29.7831C33.2683 29.6105 33.395 29.4675 33.5581 29.3794C35.0509 29.4203 34.9818 28.0186 35.5537 27.211C35.6409 27.1522 35.742 27.1175 35.8468 27.1103C35.9516 27.1032 36.0565 27.1238 36.1508 27.1701C36.2263 27.5661 36.3268 27.9086 36.7637 27.4121C37.2539 27.4121 37.4173 27.013 37.6625 26.6924C37.8605 26.4347 38.0585 26.0262 38.4921 26.4222C38.7436 26.9721 38.5361 27.4655 38.313 27.9589C38.0186 28.241 37.7896 28.5841 37.6419 28.9642C37.4942 29.3442 37.4315 29.752 37.4582 30.1588C37.4582 31.1016 37.8039 31.5699 38.7153 31.6704L37.4048 34.8131C36.7103 33.4429 36.5406 31.9218 36.1477 30.4636C36.1507 30.7159 36.1103 30.9668 36.0283 31.2053C35.9372 31.441 35.714 31.4064 35.5349 31.4253C35.6669 31.7113 35.9937 31.4913 36.1634 31.6641C36.4808 32.3964 37.3576 33.1035 36.242 33.842Z" fill="#6F9E34"/>
<path d="M38.731 31.6798C37.5996 32.2706 37.0748 31.8747 37.1157 30.6522C37.1471 29.6465 36.7134 28.4523 38.0585 27.9086C38.709 27.9086 38.687 27.0381 39.2527 26.9375C40.1169 26.6233 40.5538 26.7867 40.2803 27.83C39.9661 29.0588 39.3972 30.187 38.9636 31.3656L38.731 31.6798Z" fill="#94CC57"/>
<path d="M36.242 33.842C36.7574 33.0092 36.22 32.3587 35.868 31.6736C35.7957 31.6201 35.7706 31.5636 35.7863 31.5039C35.802 31.4441 35.824 31.4096 35.846 31.4096C35.846 31.0953 35.8303 30.781 35.8083 30.4668C35.78 30.0677 35.2112 29.4643 35.9183 29.3385C36.5091 29.2348 36.4463 29.9671 36.5185 30.4134C36.7668 31.8873 37.4613 33.2669 37.4205 34.8131C36.3614 35.3096 36.33 34.546 36.242 33.842Z" fill="#94CD56"/>
<path d="M38.9668 31.3656C38.7122 30.0268 39.6613 29.0338 40.0101 27.871C40.359 26.7082 39.721 27.1324 39.2056 27.2676C39.0705 26.2085 40.0981 26.1991 40.6041 25.7151C41.0786 26.2148 40.8398 26.7584 40.7267 27.3147C40.5287 28.2575 40.3747 29.2003 40.205 30.1683L38.9668 31.3656Z" fill="#78A73D"/>
<path d="M33.6429 33.2668L34.2714 33.5528C34.8371 33.9331 34.3689 34.7471 34.9251 35.1242C34.9593 35.1659 34.9781 35.218 34.9785 35.2719C34.7837 35.5044 34.35 35.5453 34.2934 35.4447C33.9069 34.5648 32.9892 34.8539 32.3701 34.5019C32.7095 34.0242 33.2815 33.754 33.6429 33.2668Z" fill="#86AF4E"/>
<path d="M33.643 33.2669C33.7373 34.2097 33.0648 34.3857 32.3608 34.5239L32.0717 34.4045C31.8989 33.3643 32.7002 33.3706 33.3476 33.2323C33.4451 33.2449 33.5456 33.2574 33.643 33.2669Z" fill="#94CD56"/>
<path d="M33.3476 33.2292C33.0742 33.7886 32.1848 33.6723 32.0717 34.4014C31.9719 34.4133 31.8739 34.4364 31.7794 34.4705C31.8171 34.1563 31.8517 33.8231 31.8894 33.4994C32.3514 33.2637 32.6657 32.5755 33.3508 33.0092C33.3539 33.0846 33.3508 33.1569 33.3476 33.2292Z" fill="#8DAD52"/>
<path d="M40.6041 25.7151C40.5035 26.1173 40.714 26.749 39.9032 26.617C39.4224 26.5384 39.2747 26.881 39.2056 27.2675C39.0641 27.4624 38.8379 27.6384 38.7907 27.8552C38.5896 28.798 38.3162 28.1255 38.0616 27.9086C37.9485 27.3555 38.577 26.9313 38.3319 26.3562C38.137 25.9225 38.511 25.6019 38.5519 25.2154C38.5927 24.8288 38.4859 24.5208 38.6242 24.1846C38.7604 24.0593 38.9362 23.9856 39.121 23.9764C39.3059 23.9673 39.4881 24.0231 39.6361 24.1343L42.1282 24.5428C42.1282 24.6434 42.1282 24.744 42.1062 24.8571C41.7228 25.0802 41.2263 24.744 40.868 25.1054L40.6041 25.7151Z" fill="#FAFAF7"/>
<path d="M40.868 25.096C41.1822 24.4674 41.6788 24.8603 42.1062 24.8477V26.0042C41.7479 25.6145 41.6725 24.8666 40.868 25.096Z" fill="#739F3A"/>
<path d="M39.6361 24.1342C39.303 24.1594 38.9416 24.0808 38.6933 24.3919C38.5582 24.7659 38.1308 24.8759 37.9485 25.2059C37.7662 25.5359 37.5745 25.8847 37.32 26.1833C36.6915 26.6987 36.5689 25.9758 36.2358 25.7621L35.9215 25.5139C35.6867 25.3836 35.4871 25.1981 35.3401 24.9734C35.1704 24.6025 35.183 24.1783 34.9881 23.8137C34.9289 23.7314 34.8922 23.635 34.8817 23.5341C34.8712 23.4332 34.8873 23.3313 34.9284 23.2386L37.6908 23.5277C38.2282 24.0997 39.105 23.5623 39.6361 24.1342Z" fill="#F7F4ED"/>
<path d="M33.3508 33.0092L31.8894 33.4963L32.0968 31.6861C32.7725 29.9545 32.9642 28.1098 33.3539 26.3122C33.4702 25.7685 33.4387 25.1839 33.929 24.788C34.7901 26.0922 34.3376 27.5032 34.2621 28.8734C34.212 29.0071 34.1355 29.1294 34.0372 29.2331C33.939 29.3367 33.821 29.4196 33.6902 29.4768L33.2565 30.4196C33.4293 31.023 32.9014 31.6767 33.3539 32.255C34.1176 32.5127 33.7279 32.7609 33.3508 33.0092Z" fill="#F8F7F2"/>
<path d="M33.8347 29.1751L33.929 24.7754C33.929 24.3479 33.929 23.9237 33.929 23.4963C34.1867 23.116 34.5575 23.182 34.9378 23.226L35.2049 23.5403C34.661 24.9597 34.5387 26.5062 34.8529 27.9935C34.7461 28.6031 34.7524 29.2914 33.8347 29.1751Z" fill="#6D9D32"/>
<path d="M30.5003 25.1179C30.6134 24.7251 30.2395 24.0997 30.8837 23.9866C31.2891 23.9143 31.4274 24.3668 31.4242 24.7377C31.4242 25.6019 30.89 25.1965 30.4814 25.1054L30.5003 25.1179Z" fill="#96CF57"/>
<path d="M25.1641 23.1946C25.2319 23.0018 25.3605 22.8363 25.5305 22.7229C25.7005 22.6096 25.9028 22.5545 26.1069 22.5661C26.22 22.7109 26.325 22.862 26.4211 23.0186C26.0566 23.3643 25.5915 23.1223 25.1641 23.1946Z" fill="#94C956"/>
<path d="M34.9157 35.1305C33.8787 34.9451 34.4349 34.0966 34.2621 33.5592C34.4161 32.4404 34.0264 31.2493 34.9157 30.1902V35.1305Z" fill="#96CF57"/>
<path d="M37.1691 26.0356C37.3137 25.7214 37.4614 25.4071 37.6059 25.0677C38.1842 24.5837 38.7122 24.304 38.9196 25.382C38.9636 25.8502 38.4356 25.9791 38.3319 26.3593C38.1186 26.6882 37.9285 27.0316 37.7631 27.387C37.5274 27.9778 37.2351 28.0689 36.792 27.6007C36.66 27.013 37.2791 26.6139 37.1691 26.0356Z" fill="#94CE56"/>
<path d="M33.8347 29.1752C34.4036 28.9394 34.5041 28.4241 34.5984 27.9181C34.4004 27.6038 34.6173 27.4278 34.7932 27.2267C34.879 27.1728 34.9758 27.1389 35.0764 27.1275C35.1771 27.1161 35.279 27.1274 35.3747 27.1607L35.5318 27.2927C35.5821 29.0369 34.9347 29.8068 33.6902 29.4925L33.8347 29.1752Z" fill="#92CA54"/>
<path d="M37.1691 26.0356C37.7034 26.7144 37.1691 27.1387 36.792 27.607C36.5594 27.6289 36.528 28.1004 36.242 27.9212C36.1352 27.8458 36.1792 27.5473 36.1572 27.3493C35.7109 26.6642 35.5695 25.9885 36.2263 25.3442C36.5814 25.3442 36.7888 25.4857 36.7857 25.8754C36.7669 26.1488 36.8486 26.3687 37.1691 26.0356Z" fill="#82AE4B"/>
<path d="M33.3539 32.2707C32.1408 31.7207 32.8133 31.0733 33.2565 30.4353C33.5707 30.3631 33.9321 30.1211 33.973 30.7748C34.0138 31.4284 33.6493 31.8024 33.3539 32.2707Z" fill="#93C45A"/>
<path d="M36.2263 25.3191C36.2043 25.9853 36.1792 26.6547 36.1572 27.3241L35.5286 27.277C34.9347 25.8313 35.0069 25.6145 36.1886 25.3599L36.2263 25.3191Z" fill="#92CA54"/>
<path d="M35.8994 33.2826C35.5285 33.2229 35.1891 33.1286 35.3085 32.6352C35.3274 32.5629 35.4531 32.4529 35.5097 32.4624C36.0282 32.5566 35.7831 33.0061 35.8774 33.2983L35.8994 33.2826Z" fill="#8ABD4D"/>
<path d="M35.8461 31.4221C35.8391 31.5107 35.8465 31.5999 35.8681 31.6861C35.6984 31.9124 35.4721 32.0947 35.2993 31.7521C35.2019 31.5541 35.2993 31.265 35.2993 31.0167L35.8461 31.4221Z" fill="#B8C894"/>
<path d="M37.7411 31.1865C37.807 30.184 37.5148 29.5711 37.9736 29.062C38.0553 28.9709 38.5173 29.062 38.5173 29.084C38.555 29.7 38.3004 30.2311 37.7411 31.1865Z" fill="#76A53B"/>
<path d="M38.9196 25.3787C38.6053 24.7974 38.1339 24.7974 37.606 25.0645C37.7128 24.4359 38.1276 24.2977 38.6839 24.3888C38.8445 24.4905 38.959 24.6509 39.003 24.8359C39.047 25.0208 39.0171 25.2156 38.9196 25.3787V25.3787Z" fill="#77A23C"/>
<path d="M34.9032 27.3052C34.7994 27.5032 34.6989 27.7044 34.5889 27.9023C33.9038 26.0859 34.1583 24.2474 35.1891 23.556C35.8774 23.9332 35.3305 24.5868 35.5223 25.0739C35.2143 25.7873 35.4154 26.6453 34.9032 27.3052Z" fill="#93C956"/>
<path d="M34.9032 27.3052C34.8322 26.5096 35.0559 25.7155 35.5318 25.0739C35.78 25.1179 36.0849 25.0299 36.2012 25.3693C35.0258 25.6836 35.7203 26.6264 35.5412 27.2864L34.9032 27.3052Z" fill="#74A238"/>
</svg>
