<svg width="47" height="46" viewBox="0 0 47 46" fill="none" xmlns="http://www.w3.org/2000/svg">
<path d="M21.8171 45.0086C16.4243 45.2757 11.4463 44.3801 6.85166 41.8377C2.9076 39.6378 0.607164 36.3223 0.670018 31.7088C0.780011 23.5379 2.70332 15.7723 6.92708 8.76728C9.84663 3.92441 14.3784 1.27198 20.1515 0.668591C25.1798 0.140621 29.8561 1.09912 34.4035 3.12615C38.6461 5.01175 41.1006 8.26443 41.9082 12.7962C42.6625 17.0136 44.1772 20.9954 45.5632 25.0243C47.1659 29.6849 45.9309 33.6447 42.6059 37.2273C38.8598 41.2657 34.1992 43.5127 28.9604 44.6063C26.612 45.091 24.205 45.2266 21.8171 45.0086V45.0086Z" fill="#F1F1F1"/>
<path d="M32.4142 16.473C32.4142 18.8928 30.7926 20.5585 28.4262 20.5365C27.8888 20.5535 27.3536 20.4615 26.8527 20.2661C26.3518 20.0706 25.8957 19.7758 25.5119 19.3993C25.1281 19.0228 24.8245 18.5725 24.6194 18.0755C24.4143 17.5785 24.312 17.0452 24.3187 16.5076C24.2778 14.1286 26.0597 12.3498 28.467 12.3624C30.8743 12.3749 32.4174 14.0248 32.4142 16.473Z" fill="#98D15B"/>
<path d="M12.5683 16.3883C12.5683 13.981 14.2088 12.3499 16.5941 12.3625C17.1309 12.356 17.6635 12.4576 18.1603 12.661C18.6572 12.8644 19.1081 13.1656 19.4862 13.5467C19.8644 13.9278 20.1621 14.381 20.3617 14.8794C20.5613 15.3778 20.6587 15.9112 20.6481 16.4479C20.6481 18.8207 18.8725 20.568 16.4683 20.5334C14.1396 20.5146 12.5431 18.8301 12.5683 16.3883Z" fill="#98D15A"/>
<path d="M32.4143 28.2958C32.4143 30.7377 30.7235 32.4724 28.3288 32.4536C27.247 32.428 26.2188 31.978 25.4661 31.2006C24.7134 30.4232 24.2968 29.3809 24.3061 28.2989C24.2778 25.9891 25.9906 24.314 28.3916 24.3046C30.7926 24.2952 32.4048 25.8602 32.4143 28.2958Z" fill="#98D15B"/>
<path d="M20.5255 28.2675C20.5255 30.7282 18.8442 32.4787 16.4809 32.4535C14.2119 32.4253 12.5557 30.6811 12.5557 28.3115C12.5557 25.8759 14.1081 24.3077 16.5249 24.3046C18.9416 24.3014 20.5161 25.8162 20.5255 28.2675Z" fill="#98D15B"/>
<path d="M31.77 16.448C31.77 18.2801 30.1704 19.9206 28.4073 19.9049C27.5358 19.8642 26.7125 19.4928 26.1052 18.8662C25.4979 18.2397 25.1524 17.4052 25.1389 16.5328C25.1107 14.6472 26.594 13.0382 28.3948 13.0099C30.1955 12.9816 31.7668 14.6126 31.77 16.448Z" fill="#C2E1A3"/>
<path d="M13.2218 16.6145C13.203 14.6535 14.7743 12.969 16.5814 13.0099C18.2973 13.0507 19.8183 14.6284 19.8403 16.3883C19.8655 18.2739 18.3695 19.8703 16.5751 19.8923C14.8655 19.9143 13.2407 18.321 13.2218 16.6145Z" fill="#C2E1A3"/>
<path d="M25.1389 28.3209C25.1368 27.8859 25.2205 27.4548 25.385 27.0521C25.5496 26.6494 25.7918 26.2832 26.0979 25.9741C26.4041 25.6651 26.7681 25.4193 27.1692 25.251C27.5702 25.0826 28.0006 24.9949 28.4355 24.9928C28.8705 24.9908 29.3017 25.0744 29.7043 25.2389C30.107 25.4035 30.4733 25.6457 30.7824 25.9519C31.0914 26.258 31.3371 26.622 31.5055 27.0231C31.6739 27.4242 31.7616 27.8545 31.7636 28.2895C31.7636 30.1751 30.1923 31.9161 28.4575 31.7684C26.8014 31.6302 25.0352 30.5711 25.1389 28.3209Z" fill="#C2E1A3"/>
<path d="M13.2188 28.3052C13.2188 27.4276 13.5674 26.5858 14.188 25.9652C14.8086 25.3446 15.6503 24.996 16.528 24.996C17.4056 24.996 18.2474 25.3446 18.868 25.9652C19.4886 26.5858 19.8372 27.4276 19.8372 28.3052C19.8624 30.1688 18.335 31.7873 16.5374 31.803C14.7398 31.8187 13.2407 30.2003 13.2188 28.3052Z" fill="#C2E1A3"/>
</svg>
