<svg width="47" height="43" viewBox="0 0 47 43" fill="none" xmlns="http://www.w3.org/2000/svg">
<path d="M2.6625 18.4429V17.8143C2.99934 17.3556 3.39325 16.9416 3.83472 16.5824C4.56697 15.9539 5.11379 15.0111 6.23259 14.9576C6.94283 14.9576 7.60908 15.2279 8.3099 15.2876C8.995 15.451 9.64868 15.7276 10.3526 15.825C11.0566 15.9224 11.7543 16.155 12.4708 16.2336C13.7886 16.6563 15.1442 16.951 16.5186 17.1135C17.9736 17.3901 19.4287 17.6572 20.7958 18.2512C20.8958 18.3186 20.973 18.4147 21.0174 18.5269C21.0617 18.6391 21.071 18.7621 21.044 18.8797C20.6451 19.4813 20.1626 20.0231 19.611 20.4887C20.0332 20.1273 20.4243 19.731 20.78 19.304C21.0943 18.9394 21.3017 19.1594 21.484 19.4642C21.7323 20.1776 21.6443 20.9162 21.6474 21.6421C21.6474 27.5399 21.6474 33.4397 21.6474 39.3417C21.5936 40.1772 21.7778 41.0108 22.1785 41.7458C21.2797 42.3744 20.4721 41.815 19.6392 41.5541C18.8441 41.2053 18.0679 40.7842 17.1251 41.0513C16.9516 41.0905 16.7714 41.0891 16.5986 41.0471C16.4258 41.0051 16.265 40.9237 16.1289 40.8093C15.9654 40.5608 15.7118 40.3856 15.4216 40.3205C15.1313 40.2554 14.8272 40.3056 14.5733 40.4605C14.1019 40.6019 13.7342 40.3316 13.3476 40.1462C12.5274 39.8319 11.7763 39.1814 10.7989 39.5177C10.1305 39.5004 9.48306 39.2813 8.94157 38.8891C8.23447 38.7037 7.58079 38.2606 6.79512 38.468C6.67123 38.4997 6.54122 38.4988 6.41782 38.4652C6.29442 38.4315 6.18186 38.3665 6.09117 38.2763C5.36206 37.1418 5.46263 35.8125 5.4092 34.5868C5.28664 30.9884 5.35578 27.3838 5.37778 23.7823C5.37778 23.2355 5.28978 22.6258 5.86803 22.2455C5.90243 22.2263 5.93814 22.2095 5.97489 22.1952C5.84604 22.0035 5.76747 22.2549 5.66062 22.2329C5.55339 22.3312 5.41323 22.3857 5.26778 22.3857C5.12234 22.3857 4.98217 22.3312 4.87495 22.2329C4.09871 21.4693 3.04591 21.6044 2.10625 21.397L1.6977 21.3781C1.19487 21.1864 0.506627 21.2053 0.292925 20.649C0.157789 20.2876 0.607193 20.0739 0.987457 20.0205C1.54685 19.4862 2.01197 18.8671 2.6625 18.4429Z" fill="#DCB48E"/>
<path d="M41.3237 38.3046L40.978 38.4994C40.5914 38.4994 40.1546 38.1129 39.8309 38.6408C39.1332 39.1405 38.2407 38.732 37.521 39.1311C37.1188 39.0777 36.6977 38.8168 36.3425 39.2411C34.246 39.7406 32.1222 40.1173 29.9817 40.3693C29.0955 40.0739 28.335 40.6113 27.5147 40.7433C25.9843 40.7904 24.5669 41.4033 23.0741 41.6452C21.6159 41.7992 21.3331 41.0733 21.3488 39.7282C21.4179 33.3549 21.396 26.9815 21.3677 20.6082C21.3677 19.4768 21.5971 19.084 22.6027 19.9136C24.1741 20.9036 24.6266 22.7703 25.7988 24.0808C26.176 24.5019 26.3897 25.0613 26.9051 25.3662C27.2193 25.2028 27.4865 26.309 27.8007 25.3662C29.0044 24.6874 30.4029 24.7376 31.6819 24.3259C32.9292 23.9625 34.2026 23.6956 35.4909 23.5277C35.8564 23.6439 36.2439 23.6737 36.6229 23.6148C37.0018 23.5559 37.362 23.4099 37.675 23.1883C38.9604 22.7735 40.2269 22.2455 41.6317 22.4561C42.5147 22.6949 42.7504 23.3989 42.6907 24.1563C42.3482 28.5309 42.4142 32.9086 42.4487 37.2864C42.4456 38.2134 41.6725 37.9495 41.3237 38.3046Z" fill="#C49A6C"/>
<path d="M35.6763 23.8074L27.7819 25.6648C27.6603 25.7708 27.5068 25.8333 27.3458 25.8424C27.1847 25.8515 27.0252 25.8067 26.8925 25.7151C25.3683 24.9608 24.9817 23.2889 23.9949 22.0978C23.5424 21.551 23.1873 20.9193 22.7881 20.3285C22.4576 20.1624 22.1795 19.908 21.9848 19.5934C21.7901 19.2789 21.6863 18.9165 21.6851 18.5466C21.7559 18.4127 21.8654 18.3032 21.9993 18.2323C22.5807 18.0218 23.2218 18.0909 23.8001 17.8615C24.0326 17.7999 24.2704 17.7599 24.5103 17.7421C25.8229 17.6806 27.1278 17.506 28.4104 17.2204C30.0697 16.8339 31.8045 16.8527 33.4387 16.2776C33.6547 16.1679 33.8913 16.1047 34.1332 16.0922C35.2363 16.3185 36.2954 15.9445 37.3764 15.8565C37.7524 15.856 38.1263 15.7998 38.4858 15.6899C38.7781 15.6051 39.0766 15.5454 39.372 15.4825C40.5663 15.1902 41.7668 14.6748 42.9296 15.5736C43.2344 15.785 43.4878 16.062 43.6712 16.3844C43.8947 16.8067 44.1714 17.1985 44.4946 17.5504C44.5803 17.6504 44.66 17.7554 44.7335 17.8647C44.9428 18.2003 45.1826 18.5159 45.45 18.8075C45.5363 18.9063 45.6276 19.0007 45.7234 19.0903C45.7343 19.1738 45.7343 19.2583 45.7234 19.3417C45.9371 19.8571 46.3676 20.2217 46.6662 20.6774C47.1785 22.2487 45.5788 21.6862 45.0949 22.2487C44.9861 22.345 44.8439 22.3947 44.6989 22.387C43.8095 22.255 42.9956 22.7232 42.1219 22.7012C41.7542 22.651 41.3614 22.8018 41.022 22.5567L37.8604 23.4712C37.1376 23.5906 36.4776 24.1563 35.6763 23.8074Z" fill="#DCB48E"/>
<path d="M4.84034 21.9847L5.44373 22.2455C5.81457 22.6478 5.64172 23.1412 5.64172 23.5937C5.65849 27.3021 5.65849 31.0105 5.64172 34.7188C5.64172 35.1714 5.80514 35.6616 5.45002 36.0702C3.11815 34.0023 1.99308 31.3153 1.42111 28.3235C0.973432 26.0179 1.07028 23.6397 1.70395 21.3782L1.73538 21.2525C2.82161 21.164 3.9081 21.4202 4.84034 21.9847Z" fill="#DAECC8"/>
<path d="M45.7203 19.0777H45.5977H45.4752C45.1062 18.6876 44.7709 18.2671 44.4726 17.8206C44.1584 17.3932 43.8127 17.0004 43.5078 16.5636L42.9767 15.935C42.6152 15.483 42.0902 15.1917 41.5154 15.1242C39.2212 14.9357 37.0214 14.2506 34.7681 13.8357C34.6755 13.7618 34.604 13.6648 34.561 13.5544C34.5179 13.444 34.5048 13.3243 34.5229 13.2072C34.7756 12.6049 34.9427 11.9702 35.0195 11.3216C35.1577 10.693 35.4846 10.0959 35.1955 9.43597C35.2332 9.03057 34.8812 8.44917 35.6606 8.37689C37.6719 9.2317 39.6644 10.1399 41.7039 10.9287C44.6738 12.079 45.6951 14.3857 45.7046 17.343C45.7171 17.9275 45.7203 18.5026 45.7203 19.0777Z" fill="#DAECC8"/>
<path d="M3.89752 16.9187C3.64925 17.4467 3.09613 17.5472 2.6593 17.8238C3.57068 14.4046 5.50657 11.5385 7.71587 8.87346C8.61895 7.741 9.66471 6.7301 10.8271 5.86592C11.3362 4.76912 12.2728 4.29458 13.4041 4.11859C13.5497 4.14842 13.6851 4.21556 13.797 4.31344C14.0766 4.70627 14.2055 5.10539 13.8221 5.51394C13.3161 5.9162 13.0804 6.52903 12.675 7.00671C12.3247 7.31439 12.1007 7.74097 12.0465 8.20407C11.9494 8.54374 11.7918 8.86312 11.5814 9.14688C11.1068 9.62456 10.8428 10.2594 10.4249 10.7685C9.5072 11.8841 9.40035 12.9024 10.6323 13.8546C10.6282 13.9311 10.6085 14.006 10.5745 14.0746C10.5404 14.1432 10.4927 14.2042 10.4343 14.2537C9.45377 14.9294 8.28155 14.6717 7.21618 14.9294C6.70707 15.0614 6.16653 14.9294 5.66684 15.1085C4.97013 15.5972 4.37019 16.211 3.89752 16.9187V16.9187Z" fill="#DBECC8"/>
<path d="M18.0679 3.03434H20.2678C20.3881 2.92386 20.5408 2.85504 20.7032 2.83806C20.8656 2.82108 21.0292 2.85685 21.1698 2.94007C21.227 2.995 21.2707 3.06248 21.2975 3.13719C21.3242 3.21191 21.3332 3.29182 21.3237 3.37061C21.0429 4.07877 20.9352 4.84373 21.0095 5.6019C21.0378 6.37814 20.9278 7.17324 21.1415 7.9212C21.1818 8.07828 21.2019 8.23987 21.2012 8.40204C21.2097 8.60887 21.1601 8.81394 21.0578 8.99394C20.9556 9.17394 20.8049 9.32164 20.6229 9.42026C19.8058 9.42026 19.2747 8.96457 18.8253 8.35489C18.5299 7.48123 18.4451 6.55413 18.1622 5.67732C18.2031 4.66538 17.32 4.50512 16.7103 4.08086C16.1006 3.6566 16.5846 4.26627 16.4997 4.34798C16.3139 4.5316 16.0934 4.67656 15.8512 4.77446C15.6089 4.87236 15.3497 4.92126 15.0884 4.91834C14.8271 4.91541 14.569 4.86072 14.329 4.75742C14.089 4.65413 13.8719 4.5043 13.6902 4.31656C14.4884 2.94321 16.4149 2.38695 18.0679 3.03434Z" fill="#DBECC8"/>
<path d="M18.0679 3.03431C16.5021 2.97042 14.958 3.41711 13.6682 4.30709C12.5305 4.47365 11.7354 5.2499 10.8398 5.87843C9.82153 3.85769 10.0384 3.34544 12.2791 2.7829C13.4465 2.53105 14.5796 2.14068 15.6543 1.62011C17.7254 0.517027 17.8825 0.630163 18.0679 3.03431Z" fill="#FDFBF6"/>
<path d="M21.2011 3.05951L20.2583 3.04065C19.8718 1.36246 21.0188 1.12362 22.1848 1.15505C24.0327 1.21162 25.7863 0.655366 27.7096 0.510803C27.1691 1.61703 27.8887 2.8898 27.1848 3.99917C26.7605 3.53405 26.2954 2.97151 25.6134 3.27006C24.7052 3.66918 23.7875 3.3455 22.8919 3.49635C22.7572 3.52466 22.618 3.52466 22.4833 3.49635C22.0968 3.24493 21.5562 3.43349 21.2011 3.05951Z" fill="#FCFAF4"/>
<path d="M30.3211 2.73893C30.2017 1.68613 30.6668 1.22101 31.6756 1.57928C32.7881 1.97526 33.7309 1.06702 34.922 1.42215C36.8453 1.99411 36.8956 1.82127 36.2922 3.68488C34.1678 4.62768 32.2067 4.08086 30.3054 3.01863C30.2394 2.98092 30.2708 2.84264 30.3211 2.73893Z" fill="#FCFAF4"/>
<path d="M21.8548 18.4649C21.8548 19.238 22.4425 19.722 22.7976 20.3285C22.0937 20.7434 22.1314 19.7 21.5405 19.7283C21.5405 26.6107 21.5751 33.4932 21.506 40.3788C21.506 41.7145 22.6248 41.1551 23.0773 41.6359L22.1879 41.7365C21.0409 41.7585 21.2137 40.9382 21.2137 40.2217C21.2137 33.7708 21.2137 27.3189 21.2137 20.8659C21.2137 20.272 21.4526 19.6089 20.9214 19.0872L20.8837 18.4964C20.9444 18.4288 21.018 18.3742 21.1003 18.3359C21.1826 18.2975 21.2718 18.2762 21.3626 18.2733C21.4533 18.2704 21.5437 18.2858 21.6283 18.3188C21.7129 18.3517 21.7899 18.4014 21.8548 18.4649V18.4649Z" fill="#AE8459"/>
<path d="M29.0641 5.58303C29.6234 5.33476 29.724 4.86022 29.6926 4.32596C30.9273 4.83503 32.3084 4.86085 33.5612 4.39826C33.9223 4.24861 34.3224 4.22135 34.7004 4.32067C35.0784 4.41999 35.4134 4.64043 35.6542 4.94822C35.362 5.68361 35.0697 6.41586 34.7806 7.1481C34.0169 6.62013 33.2344 6.51955 32.4267 7.0538C31.2796 7.18265 30.3588 6.51641 29.3469 6.17071C29.1489 6.02301 28.9886 5.85959 29.0641 5.58303Z" fill="#F6EFD7"/>
<path d="M35.6606 4.94193C34.3532 4.34168 33.0993 5.04251 31.8202 5.12422C31.4277 5.17536 31.0287 5.12866 30.6585 4.9883C30.2884 4.84793 29.9588 4.61826 29.6989 4.31969C30.0792 3.86086 29.8246 3.15376 30.3274 2.74835C32.1845 3.63412 34.2589 3.96164 36.2985 3.69116L35.6606 4.94193Z" fill="#FAF6E8"/>
<path d="M44.7524 22.1859L45.1012 22.2267C44.4004 24.0652 44.017 26.0514 42.6499 27.5881C42.1565 25.9822 42.5431 24.3386 42.4393 22.7201C42.7651 22.4725 43.1398 22.2968 43.5385 22.2047C43.9372 22.1126 44.351 22.1062 44.7524 22.1859V22.1859Z" fill="#DAECC8"/>
<path d="M35.67 8.38318C35.1232 8.56231 35.7235 9.11541 35.3558 9.35426C33.841 9.95137 32.4991 9.29141 31.1351 8.77601C31.0156 8.67053 30.9248 8.53645 30.8712 8.38633C31.088 7.35553 32.0434 7.31153 32.7756 6.96898C33.6619 6.65471 34.2275 7.14496 34.7335 7.76721L35.67 8.38318Z" fill="#E9EBE9"/>
<path d="M5.4469 36.0702C5.4469 31.4609 5.4469 26.8516 5.4469 22.2424C6.05029 21.5636 6.55941 22.2172 7.18166 22.409C5.97487 22.2172 5.76745 22.7232 5.78631 23.8074C5.85859 28.0186 5.82716 32.2361 5.78631 36.4504C5.78631 37.1073 6.00001 37.6761 6.10058 38.2857C4.96607 37.8206 5.80516 36.7678 5.4469 36.0702Z" fill="#AC865E"/>
<path d="M42.631 22.5535L42.6499 27.5818C42.6247 30.7685 42.5587 33.9551 42.6027 37.1418C42.6185 38.1695 42.235 38.446 41.3237 38.292C42.1156 37.9055 42.2948 37.2707 42.2853 36.4064C42.2382 32.4624 42.2162 28.5152 42.2853 24.5742C42.3042 23.512 42.0433 22.8426 41.0283 22.5284L42.2413 22.4906C42.2677 22.4617 42.3009 22.4397 42.3379 22.4268C42.3749 22.4139 42.4145 22.4103 42.4532 22.4166C42.4919 22.4228 42.5284 22.4386 42.5595 22.4625C42.5905 22.4864 42.6151 22.5177 42.631 22.5535V22.5535Z" fill="#A87F54"/>
<path d="M29.064 5.58308L29.3783 5.89735C29.7712 6.45675 29.4506 6.95329 29.2463 7.46869C29.0724 7.74167 28.8056 7.94257 28.4952 8.03437C28.185 8.11302 27.8593 8.1065 27.5524 8.01551C27.2529 7.9245 26.9807 7.76034 26.7605 7.53784C26.6343 7.34998 26.5555 7.13429 26.5311 6.9093C26.5101 6.47212 26.5808 6.03538 26.7385 5.62709C26.7957 5.42214 26.8859 5.22788 27.0056 5.05197C27.0622 5.00483 27.1156 4.96084 27.1722 4.91998L29.064 5.58308Z" fill="#DAECC8"/>
<path d="M22.7787 3.36118C24.061 2.8395 25.4375 2.90236 26.7699 2.83951C27.3702 2.81122 27.1062 3.57804 27.1879 4.0023C27.1879 4.31657 27.1879 4.6057 27.1879 4.90739V4.95452C26.9051 5.12737 26.6317 5.01109 26.3551 4.93252C26.2168 4.89481 26.0786 4.84453 25.9403 4.79424C24.8686 4.34798 23.5738 4.40141 22.7787 3.36118Z" fill="#F8F5E5"/>
<path d="M34.7272 7.76721C34.0672 7.66665 33.5864 6.96268 32.8227 7.19524C32.5242 7.2141 32.3985 7.08839 32.5085 6.7867C33.4293 5.88789 34.2275 5.78419 34.8026 7.14497C34.768 7.35238 34.7492 7.55979 34.7272 7.76721Z" fill="#B2BDB4"/>
<path d="M10.8114 39.5208C11.8673 38.8923 12.6499 39.3668 13.3601 40.1494L10.8114 39.5208Z" fill="#B8946B"/>
<path d="M27.5053 40.7433C28.2847 40.3253 29.0515 39.8351 29.9723 40.3693C29.1332 40.3819 28.3758 40.9381 27.5053 40.7433Z" fill="#B28A60"/>
<path d="M17.1376 41.0419C18.1087 40.5139 18.8912 40.9413 19.6518 41.5447L17.1376 41.0419Z" fill="#B8946B"/>
<path d="M2.66244 18.4429C2.22247 19.0903 1.76678 19.7251 0.99054 20.0142C1.35509 19.2851 1.69764 18.5372 2.66244 18.4429Z" fill="#BF9C77"/>
<path d="M14.5826 40.4605C15.2363 39.7628 15.8711 40.3662 16.4682 40.5453C16.5908 40.5799 16.264 40.737 16.1226 40.8093L14.5826 40.4605Z" fill="#B68F65"/>
<path d="M6.80768 38.4806C7.65306 37.9557 8.28473 38.5151 8.95413 38.9017C8.19045 39.0085 7.52421 38.6125 6.80768 38.4806Z" fill="#B8946E"/>
<path d="M46.6788 20.6647C46.1414 20.3788 45.7109 20.0142 45.736 19.3291C46.1697 19.6905 46.6883 19.9859 46.6788 20.6647Z" fill="#BD9C79"/>
<path d="M36.3426 39.2411C36.682 38.6472 37.0937 38.8106 37.5211 39.1311L36.3426 39.2411Z" fill="#AA8056"/>
<path d="M39.8309 38.6408C40.1452 37.94 40.5569 38.2354 40.978 38.4994L39.8309 38.6408Z" fill="#AC8358"/>
<path d="M21.8548 18.4649L20.846 18.4901L16.5059 17.5221C14.2336 16.8724 12.1588 15.6671 10.4689 14.0149C10.4855 13.9471 10.4929 13.8773 10.4909 13.8075C10.0792 12.0476 11.3739 11.0608 12.2665 9.8917C12.4046 9.80874 12.5612 9.76124 12.7222 9.75342C13.6932 9.93569 14.548 10.3065 15.0414 11.2336C14.834 12.4907 14.4381 13.7038 15.5317 14.8571C17.103 16.5259 18.8755 16.5825 21.0597 14.8571C21.8328 14.7566 22.345 15.2217 22.8541 15.6899C23.0122 15.8468 23.1335 16.0368 23.2093 16.2462C23.2564 17.0287 22.7473 17.5504 22.3419 18.1318C22.1879 18.2701 21.9805 18.3329 21.8359 18.4838L21.8548 18.4649Z" fill="#7CC331"/>
<path d="M10.4689 14.0148L16.506 17.5189C15.099 17.4494 13.7156 17.1302 12.4205 16.5761C11.6945 16.4598 11.044 15.8753 10.2426 16.2367L8.33188 15.6333C7.87934 15.341 7.01824 15.5862 7.04339 14.6591L10.4689 14.0148Z" fill="#C2996B"/>
<path d="M14.9252 24.4202C13.621 24.2977 12.3042 24.2285 11.154 23.4774C12.4758 23.4201 13.7859 23.7476 14.9252 24.4202V24.4202Z" fill="#B99066"/>
<path d="M20.8994 19.0966C20.6417 20.2342 19.5764 20.6679 18.8755 21.3907C19.311 20.445 20.0078 19.6436 20.8837 19.0809L20.8994 19.0966Z" fill="#BA9168"/>
<path d="M7.04021 14.6434C7.46971 14.9661 7.89921 15.2908 8.32871 15.6177L6.12884 15.2751C5.95285 15.0834 5.62915 15.2217 5.47516 14.986C5.89942 14.4423 6.51224 14.7597 7.04021 14.6434Z" fill="#AF855A"/>
<path d="M11.1571 23.4775C10.0471 23.4591 8.95812 23.1723 7.98303 22.6416C9.07668 22.7767 10.2049 22.783 11.1477 23.487L11.1571 23.4775Z" fill="#B78E65"/>
<path d="M14.9189 24.4297C16.0597 24.5837 16.4211 23.4367 17.3073 23.1727C16.6222 23.7698 16.5154 25.338 14.9252 24.4297H14.9189Z" fill="#B99066"/>
<path d="M4.84041 21.9847L1.7323 21.2431C2.2653 21.0429 2.84595 21.0065 3.39975 21.1387C3.95355 21.2708 4.45523 21.5654 4.84041 21.9847V21.9847Z" fill="#B69168"/>
<path d="M5.46889 14.9954C5.59368 14.9815 5.71992 15.0009 5.83475 15.0517C5.94958 15.1025 6.04889 15.1828 6.12257 15.2845C5.0792 15.4196 4.7555 16.5416 3.89441 16.9187C4.06411 15.9822 4.81836 15.5296 5.46889 14.9954Z" fill="#B99971"/>
<path d="M10.2332 16.2305C11.0786 15.5831 11.7228 16.2305 12.4111 16.5699L10.2332 16.2305Z" fill="#B0885D"/>
<path d="M31.308 28.7854C31.792 28.1412 32.342 27.5127 33.2125 28.0281C33.6525 28.2889 33.6179 28.8986 33.3005 29.2851C32.6437 30.0708 31.9554 29.8351 31.3143 29.2034C31.2758 29.1841 31.2433 29.1545 31.2204 29.118C31.1975 29.0815 31.1851 29.0394 31.1844 28.9963C31.1838 28.9532 31.1949 28.9108 31.2167 28.8736C31.2385 28.8364 31.2701 28.8059 31.308 28.7854V28.7854Z" fill="#E7D9C8"/>
<path d="M37.5587 28.534C37.5587 28.4806 37.5587 28.4303 37.5587 28.3769C37.4739 27.4592 37.7347 26.8275 38.8158 26.9155C39.482 26.9689 39.5826 27.4718 39.394 27.9243C39.0421 28.7823 38.4104 29.0902 37.5524 28.5026L37.5587 28.534Z" fill="#F6F3EE"/>
<path d="M27.829 30.3756C27.5147 30.8691 27.1376 30.7371 26.7982 30.4417C26.6429 30.2997 26.544 30.1065 26.5198 29.8975C26.4956 29.6885 26.5475 29.4777 26.6662 29.304C26.9805 28.7163 27.5085 28.6 28.1213 28.8357C28.8284 29.502 27.7379 29.8257 27.829 30.3756Z" fill="#F7F5F0"/>
<path d="M35.3242 29.0211C34.7994 28.776 35.0728 28.1977 34.5794 28.1066C34.1017 28.3674 34.5794 29.018 34.0232 29.3637C33.8331 29.1417 33.7235 28.8621 33.712 28.5701C33.7006 28.278 33.7881 27.9907 33.9603 27.7546C34.0829 27.5598 34.6674 27.4969 34.9597 27.6006C35.6385 27.8426 35.2834 28.446 35.3242 29.0211Z" fill="#FDFCFC"/>
<path d="M37.543 28.5026C37.0433 29.2695 36.7071 29.0118 36.6222 28.2921C36.5499 27.6887 36.4682 27.035 36.8171 26.3688C37.7347 26.8967 36.7888 28.0313 37.5619 28.5341L37.543 28.5026Z" fill="#F1EEDC"/>
<path d="M26.0409 30.7653C25.3369 29.9828 25.7109 29.1342 25.7612 28.3046C26.5249 29.0494 26.11 29.9388 26.0409 30.7653Z" fill="#F7F7F5"/>
<path d="M30.2961 28.4932L29.8875 29.9576C29.4821 29.7377 29.7555 29.1248 29.2401 28.952C28.4576 29.1154 29.1427 30.1399 28.4639 30.3756C28.0993 29.7471 28.1905 29.1468 28.4639 28.5277H30.3244L30.2961 28.4932Z" fill="#FBFAF8"/>
<path d="M36.0251 27.387C36.3583 27.9275 36.4243 28.4712 36.044 29.2254C35.8592 28.9553 35.7588 28.6364 35.7554 28.3091C35.752 27.9818 35.8459 27.6608 36.0251 27.387V27.387Z" fill="#FCFCFB"/>
<path d="M28.4701 28.5277C28.4701 29.1562 28.4701 29.7596 28.4701 30.3756C28.2533 30.4039 28.0364 30.0802 27.8227 30.3756C27.5525 30.2279 26.9994 30.0613 27.6499 29.7848C28.2093 29.5585 28.1087 29.2191 28.115 28.842L28.4701 28.5277Z" fill="#D4B491"/>
<path d="M31.3079 28.7854C31.3079 28.9237 31.3079 29.0588 31.3079 29.1971C31.2734 29.3857 31.3079 29.6716 31.1854 29.7439C30.8711 29.9451 30.89 29.6088 30.8711 29.4579C30.8302 29.04 30.7328 28.6754 30.2991 28.5151L30.3211 28.5434C30.8145 28.0092 31.1382 28.0972 31.3079 28.7854Z" fill="#FAFAFA"/>
<path d="M35.6763 23.8074L37.8762 23.468C37.1754 23.82 36.528 24.4862 35.6763 23.8074Z" fill="#AD8359"/>
<path d="M39.2935 29.4328C39.1734 29.545 39.0325 29.6326 38.8787 29.6905C38.6493 29.7377 38.467 29.5586 38.5801 29.3449C38.6556 29.2034 38.8944 29.1249 39.0798 29.0746C39.2652 29.0243 39.3375 29.1531 39.2935 29.4328Z" fill="#F2EDE7"/>
<path d="M26.902 25.7151L27.7914 25.6648C27.8982 25.7465 28.3382 25.7339 28.0302 25.9288C27.8492 26.0396 27.6334 26.0791 27.4249 26.0396C27.2163 26.0001 27.0299 25.8844 26.902 25.7151V25.7151Z" fill="#AB8557"/>
<path d="M34.7115 13.1821L34.7461 13.7635C35.2552 14.5963 34.8215 15.3663 34.5827 16.1488C34.5384 16.2202 34.4723 16.2755 34.3943 16.3066C34.3162 16.3377 34.2302 16.343 34.149 16.3217L33.7813 16.5354C33.3099 16.9313 32.8228 16.4442 32.3451 16.5668C31.286 16.2996 30.1452 16.5668 29.1238 16.0671C28.6147 14.9389 29.215 13.9175 29.4381 12.8553C29.545 12.5232 29.7682 12.2409 30.0666 12.0602C31.6788 12.1733 33.2533 12.4436 34.7115 13.1821Z" fill="#F0F0EF"/>
<path d="M34.3501 16.2147L34.7461 13.7571C35.6417 13.1003 36.4148 13.8043 37.2351 13.9803C38.7467 14.2945 40.252 14.6716 41.7762 14.9388C42.4205 15.0519 42.8416 15.2813 42.9862 15.9319C41.7982 15.1399 40.6009 15.4479 39.4004 15.9067C39.1427 15.6836 38.8253 15.7904 38.5361 15.7653C38.3382 15.7464 38.247 15.9476 38.4387 15.8659C38.4387 15.8659 38.4921 15.9318 38.5204 15.9696C38.2564 16.2838 37.8919 16.243 37.5336 16.2336C36.4745 15.6836 35.406 16.7804 34.3501 16.2147Z" fill="#C39A6C"/>
<path d="M29.1553 15.8659C30.2709 16.0796 31.4526 15.7685 32.5305 16.2808C32.2571 17.1104 31.5186 16.991 30.9057 17.0193C30.0609 17.0642 29.2294 17.249 28.445 17.5661C27.1193 18.0116 25.7218 18.2046 24.325 18.1349C24.2542 18.0561 24.2014 17.9628 24.17 17.8616C24.1386 17.7604 24.1295 17.6537 24.1432 17.5486C24.157 17.4436 24.1932 17.3427 24.2495 17.253C24.3059 17.1632 24.3809 17.0868 24.4695 17.0287C25.4815 16.793 25.9372 15.5642 27.0811 15.5579C27.7846 15.5469 28.4853 15.6509 29.1553 15.8659Z" fill="#E09E74"/>
<path d="M24.6643 17.1921C24.2998 17.4184 24.3972 17.805 24.3501 18.135L23.8064 18.1601C23.2533 18.3267 22.7002 18.4209 22.1565 18.1192L23.0993 16.2336C23.8221 15.8565 24.2904 16.2651 24.7303 16.7616C24.7682 16.8306 24.7822 16.9102 24.7703 16.9881C24.7584 17.0659 24.7211 17.1376 24.6643 17.1921V17.1921Z" fill="#86B34F"/>
<path d="M28.445 17.5661C28.8944 16.837 29.6738 16.9596 30.3306 16.9093C31.1163 16.8464 31.8642 16.7522 32.5305 16.2808L33.7876 16.5353C32.0937 17.3524 30.2238 17.2298 28.445 17.5661Z" fill="#B5885C"/>
<path d="M34.3501 16.2148C35.4091 16.3248 36.4745 15.4385 37.5336 16.2336C36.4022 16.1331 35.2929 17.035 34.1489 16.3153C34.206 16.2648 34.2754 16.2302 34.3501 16.2148Z" fill="#B1885E"/>
<path d="M42.631 22.5535L42.2413 22.5158C43.0553 22.2329 43.8127 21.573 44.7555 22.2015L42.631 22.5535Z" fill="#B79368"/>
<path d="M43.5173 16.5698C43.7734 16.6775 43.9971 16.8501 44.1663 17.0705C44.3354 17.2909 44.4443 17.5516 44.4821 17.8269C44.2141 17.7377 43.979 17.5702 43.8071 17.3462C43.6351 17.1221 43.5342 16.8517 43.5173 16.5698Z" fill="#BA9E78"/>
<path d="M44.4727 17.8081C44.7283 17.9218 44.9529 18.0954 45.1274 18.3142C45.3019 18.533 45.4212 18.7906 45.4752 19.0652C44.9001 18.8452 44.5009 18.4744 44.4727 17.8081Z" fill="#BA976F"/>
<path d="M22.1439 18.1193L23.7938 18.1601C23.2061 18.6755 22.4928 18.3927 21.8359 18.4744L22.1439 18.1193Z" fill="#A27D51"/>
<path d="M38.5204 15.9759C38.4247 15.9633 38.3321 15.9335 38.247 15.8879C38.1056 15.7559 38.1747 15.6396 38.3413 15.6396C38.7153 15.6396 39.1301 15.5044 39.4004 15.913L38.5204 15.9759Z" fill="#A87E54"/>
<path d="M34.7115 13.1821C33.0678 13.1821 31.5248 12.7452 29.9974 12.1607C29.6486 11.8464 29.658 11.4567 29.7146 11.045C29.8214 10.5956 29.9157 10.14 29.9912 9.68114C30.0715 9.22281 30.2506 8.78743 30.516 8.40521C30.5772 8.36075 30.6509 8.33679 30.7265 8.33679C30.8022 8.33679 30.8759 8.36075 30.9371 8.40521V8.47434C31.5122 9.53342 32.6813 9.70312 33.5927 10.2562C34.1646 10.6019 34.8686 10.7151 35.34 11.2399C35.3243 11.9376 35.5223 12.7232 34.7115 13.1821Z" fill="#85BEB9"/>
<path d="M35.3431 11.2242C33.8032 11.1142 32.6624 10.0205 31.2577 9.55541C30.7862 9.40142 30.9905 8.84517 30.9434 8.45862C32.3772 8.9002 33.8508 9.20018 35.3431 9.35427C36.0754 9.97967 35.6637 10.6019 35.3431 11.2242Z" fill="#8FCDC8"/>
<path d="M13.6744 4.32282C14.6612 4.79108 15.0257 4.69051 15.8554 3.79485C15.9344 3.74467 16.0234 3.71223 16.1162 3.69975C16.2089 3.68727 16.3033 3.69505 16.3928 3.72258C16.8328 4.5271 18.1558 3.43659 18.3632 4.66538C18.3947 4.97128 18.4011 5.27925 18.3821 5.58618C18.4701 7.34294 17.0967 6.80868 16.1822 6.99409C15.6714 6.95825 15.1832 6.76996 14.7806 6.45356C14.3909 6.07958 13.6555 6.04187 13.6555 5.29077C14.0358 4.96393 13.5675 4.63709 13.6744 4.32282Z" fill="#E1E6BE"/>
<path d="M12.4299 9.89801C11.8643 11.2431 10.6638 12.2707 10.4909 13.8106C8.71216 12.9244 8.65873 12.8898 9.71153 11.2965C10.2269 10.5202 10.3935 9.43604 11.4463 9.07149C12.0151 9.06206 12.4362 9.22548 12.4299 9.89801Z" fill="#86B54F"/>
<path d="M12.4299 9.89791C12.0999 9.6245 11.7731 9.34794 11.4462 9.07139L11.7794 8.07829C12.0371 7.67917 12.0528 7.13549 12.455 6.82122C12.8479 6.29954 12.8856 5.49815 13.6555 5.26874L14.9126 6.19269C14.6958 7.72946 13.4827 8.68169 12.7127 9.90419H12.5587L12.4299 9.89791Z" fill="#E0E1DD"/>
<path d="M12.455 6.82758C12.3325 7.29898 12.2036 7.77038 11.7793 8.08465C11.7542 7.51896 11.8391 7.03185 12.455 6.82758Z" fill="#C8D4B2"/>
<path d="M12.7379 9.9106C12.8982 8.33926 14.2778 7.48445 14.9378 6.1991L16.1949 6.82763C17.3388 6.95648 18.335 7.35561 18.995 8.36755L20.6072 9.35119C21.1729 9.15006 21.5751 9.51148 22.012 9.75661C22.9548 10.3003 23.8379 10.9037 24.8152 11.372C24.9908 11.4576 25.1471 11.5782 25.2746 11.7262C25.4022 11.8742 25.4982 12.0467 25.5569 12.233C25.2426 14.3795 24.2464 15.712 22.8165 15.9351L21.2137 14.9577C20.953 14.7843 20.7418 14.546 20.6009 14.2663C19.6047 12.321 18.0868 11.2808 15.8303 11.4379C15.516 11.4568 15.2018 11.4914 14.9724 11.2022L12.7379 9.9106Z" fill="#FEFEFD"/>
<path d="M22.7788 3.36122L26.2357 4.61829C24.6801 6.89045 22.5871 5.98222 20.5789 5.5611C20.7957 4.82885 20.0258 3.81063 21.2074 3.36122C21.3985 3.25089 21.6153 3.19281 21.836 3.19281C22.0566 3.19281 22.2734 3.25089 22.4645 3.36122C22.5714 3.36437 22.6751 3.36437 22.7788 3.36122Z" fill="#E2E6BE"/>
<path d="M20.5852 5.57364C21.4871 5.52336 22.3702 5.36621 23.2785 5.70248C24.5355 6.1676 25.2112 4.87596 26.242 4.6214H26.5563C26.7888 4.93567 26.8705 5.32222 27.1848 5.5642C26.9527 5.94068 26.8429 6.37984 26.8705 6.82127C25.1578 6.50701 23.6493 7.91807 21.8894 7.3901C21.4903 7.27068 21.2766 7.9055 20.8963 8.08464C20.2741 7.31468 20.7109 6.40959 20.5852 5.57364Z" fill="#E3E1AE"/>
<path d="M20.89 8.091C20.9246 7.65732 21.22 6.95963 21.3646 7.01934C23.2502 7.76416 25.0069 5.78113 26.8642 6.82764C26.8642 7.02877 26.8642 7.23305 26.8642 7.43418C26.3237 7.87729 25.6983 8.22298 25.2929 8.80438C23.8441 8.54039 22.3356 8.93952 20.912 8.40213C20.8963 8.29842 20.8932 8.19471 20.89 8.091Z" fill="#E2DCA0"/>
<path d="M20.9025 8.40211C22.3764 8.40211 23.8786 8.00613 25.3023 8.71638C25.355 8.66801 25.424 8.64119 25.4956 8.64119C25.5671 8.64119 25.6361 8.66801 25.6888 8.71638C25.7433 8.81095 25.7756 8.91667 25.7833 9.02556C25.7909 9.13446 25.7736 9.24367 25.7328 9.34491C25.6552 9.47191 25.56 9.58724 25.45 9.68745C24.2872 10.316 23.0427 9.82889 21.8422 9.95774L20.6008 9.3292L20.9025 8.40211Z" fill="#DFD48E"/>
<path d="M18.9824 8.35809L16.1823 6.81817C16.7856 6.18963 18.159 6.89673 18.3821 5.5611C18.8689 6.40806 19.0787 7.38598 18.9824 8.35809V8.35809Z" fill="#DFDFAB"/>
<path d="M22.4708 3.35802H21.2137C21.2137 3.25432 21.2137 3.15375 21.2137 3.04376C21.5877 3.31088 22.2319 2.46236 22.4708 3.35802Z" fill="#F8F5E5"/>
<path d="M30.9529 8.38947C30.8554 8.38947 30.7549 8.41147 30.6575 8.42718C29.9692 8.35804 29.4004 8.11292 29.0673 7.4561L29.3815 5.88477C30.4878 5.93819 31.3457 6.84956 32.4865 6.78042L32.8008 7.18898C32.2005 7.59439 31.4368 7.77351 30.9529 8.38947Z" fill="#E1DCA3"/>
<path d="M25.6135 8.75087L25.2992 8.71316C25.1986 7.52208 25.9466 7.37123 26.8705 7.43409L27.5839 7.71379C27.5263 7.79411 27.4798 7.88186 27.4456 7.97464C27.3828 8.25434 27.4865 8.08775 27.5871 8.03433C27.9547 7.82691 28.3696 7.99349 28.753 7.89292C30.0603 7.99978 29.7178 8.93942 29.6958 9.72509C29.6196 10.0452 29.4577 10.3385 29.2275 10.5736C29.1664 10.6201 29.0963 10.6536 29.0217 10.6719C28.9472 10.6903 28.8696 10.6932 28.7938 10.6805C28.6201 10.5442 28.4945 10.3559 28.4356 10.1431C28.1716 9.51454 27.5462 9.70624 27.0811 9.55225C26.5248 9.37312 25.934 9.32598 25.6135 8.75087Z" fill="#C0986A"/>
<path d="M29.3941 9.96389C29.1615 9.30078 29.9849 8.15056 28.5141 8.05942C28.2973 8.00914 28.2753 7.91486 28.4513 7.77972L29.0798 7.46545C29.6392 7.73887 30.3369 7.80801 30.67 8.43655C30.6851 8.87121 30.5667 9.30005 30.3306 9.66533C30.0603 9.91046 29.8058 10.1682 29.3941 9.96389Z" fill="#DED28D"/>
<path d="M28.4513 7.77979C28.467 7.87407 28.489 7.96521 28.5141 8.05949C28.2407 8.1412 27.8542 7.93694 27.697 8.28892C27.5399 8.6409 27.4393 8.73831 27.2162 8.41147C26.9019 7.97778 27.1282 7.78295 27.5839 7.71381L28.4513 7.77979Z" fill="#AD9566"/>
<path d="M27.1753 5.57366C26.5468 5.53909 26.5468 5.08655 26.5468 4.63086L27.1753 4.94513C27.1816 5.15883 27.1785 5.36625 27.1753 5.57366Z" fill="#E2E6BE"/>
<path d="M14.9723 11.2054C18.0773 10.5768 20.1231 11.815 21.2137 14.9577C19.6015 17.0256 17.147 17.1387 15.3086 15.2343C14.0735 13.9521 13.9886 12.9747 14.9723 11.2054Z" fill="#E1E2DE"/>
<path d="M22.8102 15.9224C24.4538 15.2311 24.6486 13.578 25.2709 12.2078C26.2137 11.9375 26.6537 12.4906 26.9774 13.2386C26.9774 13.6346 26.7008 13.8891 26.4871 14.1814C26.2412 14.5052 26.0374 14.859 25.8806 15.2342C25.5443 15.8313 25.2992 16.4913 24.6486 16.8558L23.0773 16.2273L22.8102 15.9224Z" fill="#DFE0DB"/>
<path d="M38.7813 27.7421C38.7813 27.9652 38.7278 28.1789 38.5047 28.2418C38.1716 28.3392 38.2124 28.0406 38.1904 27.8647C38.1584 27.7646 38.1668 27.656 38.2137 27.562C38.2607 27.4681 38.3426 27.3962 38.4419 27.3618C38.7373 27.2832 38.753 27.5284 38.7813 27.7421Z" fill="#C59D6E"/>
<path d="M29.1553 15.8659C28.5267 16.4944 27.8448 15.7402 27.1974 15.9225C27.0528 15.3662 27.6593 15.4102 27.8259 15.1148C27.9091 14.8661 27.9568 14.6069 27.9673 14.3448C28.1087 13.5277 27.9673 12.6164 28.7844 12.0381C29.391 11.9596 29.7775 12.1387 29.7272 12.8364C29.5418 13.8452 29.3532 14.8571 29.1553 15.8659Z" fill="#CF9F2E"/>
<path d="M29.7335 12.8364C29.6626 12.6366 29.5321 12.4634 29.3595 12.3403C29.1869 12.2172 28.9807 12.1501 28.7687 12.1481C28.6406 12.0395 28.5427 11.8998 28.4844 11.7423C28.426 11.5849 28.4092 11.4151 28.4356 11.2493C28.4453 11.1246 28.4824 11.0036 28.5444 10.8949C28.6063 10.7863 28.6915 10.6927 28.7938 10.6208L29.0515 10.5988C29.4145 10.5877 29.7706 10.6984 30.0635 10.913C30.0635 11.3279 30.0289 11.7427 30.0132 12.1701C29.9189 12.3838 29.8278 12.6101 29.7335 12.8364Z" fill="#D6BB5F"/>
<path d="M28.4105 15.2719C28.1999 15.8502 27.4488 15.4291 27.1974 15.9288C26.6789 15.9288 26.1415 15.9508 25.9812 16.5573C25.7832 17.3335 25.1987 17.1858 24.6644 17.1858C24.6644 17.0696 24.6644 16.9564 24.6487 16.8433L25.6229 15.0205C26.616 14.3291 27.5022 14.9168 28.4105 15.2719Z" fill="#C69C46"/>
<path d="M30.0635 10.9162C29.6267 11.1205 29.2495 11.1362 29.0515 10.6019C29.0425 10.4754 29.07 10.3489 29.1307 10.2375C29.1914 10.126 29.2829 10.0344 29.3941 9.97339L30.318 9.65912C30.296 10.0865 30.4532 10.5579 30.0635 10.9162Z" fill="#E1CD74"/>
<path d="M28.7939 10.6145L28.7404 11.2242C28.2502 12.0947 28.2722 13.4241 26.7731 13.3895C26.5625 12.629 25.846 12.5096 25.2709 12.2079L24.6424 11.6265C24.4381 10.7371 24.9944 10.0803 25.3432 9.36061C25.4385 9.34451 25.5329 9.32353 25.626 9.29776C26.7135 9.27277 27.7912 9.50878 28.7687 9.986L28.7939 10.6145Z" fill="#D2535C"/>
<path d="M25.3275 9.36053C25.2175 10.1525 25.1201 10.9507 24.6267 11.6264C23.5708 11.2901 22.7411 10.561 21.8423 9.96392C22.7254 9.60566 23.6148 9.25369 24.567 9.70309C24.9818 9.89794 25.0384 9.38568 25.3275 9.36053Z" fill="#DAC874"/>
<path d="M19.5575 10.4385C20.252 10.5077 20.7266 10.6303 21.1288 11.2336C20.3526 11.4222 19.944 11.1551 19.5575 10.4385Z" fill="#B3D98A"/>
<path d="M28.753 9.98592C27.6734 9.94071 26.6099 9.70781 25.6103 9.29768C25.6103 9.1154 25.6103 8.93313 25.6103 8.75085C26.5071 9.12533 27.467 9.32583 28.4387 9.34168C29.0044 9.32597 29.0138 9.58366 28.753 9.98592Z" fill="#EDE8E5"/>
<path d="M19.0076 13.1884C19.5293 13.9049 20.8429 14.524 19.3784 15.5234C18.203 16.3247 17.0842 15.9759 16.3269 14.6246C16.155 14.2423 15.8795 13.9157 15.5318 13.6818C14.589 13.1035 15.0792 12.739 15.758 12.409C16.5123 12.2393 17.2508 11.9501 18.0491 12.0947L18.3979 12.1764C18.643 12.4875 18.643 12.9464 19.0076 13.1884Z" fill="#92CD52"/>
<path d="M18.0396 12.0916C17.7165 12.3355 17.3362 12.4926 16.9351 12.5476C16.534 12.6026 16.1255 12.5538 15.7486 12.4058C16.374 11.2839 17.1439 11.2179 18.0396 12.0916Z" fill="#CE5E34"/>
<path d="M19.0075 13.1884C18.423 13.0784 18.423 13.0784 18.3978 12.1733C18.6001 12.2474 18.771 12.3885 18.8819 12.5732C18.9928 12.7579 19.0372 12.975 19.0075 13.1884V13.1884Z" fill="#D5D691"/>
<path d="M26.7731 13.3863C27.7316 12.9401 27.9893 11.8558 28.7404 11.221L28.7687 12.145C28.577 12.9935 28.3884 13.842 28.1967 14.6905C27.3357 15.0928 26.6254 15.0048 26.2169 14.062L26.7731 13.3863Z" fill="#B6594F"/>
<path d="M26.2106 14.0494C26.7417 14.656 27.518 14.5114 28.1905 14.678L28.4105 15.2719C27.452 15.5202 26.5657 14.9577 25.6229 15.03L26.2106 14.0494Z" fill="#CBC6B9"/>
</svg>
