<svg width="45" height="44" viewBox="0 0 45 44" fill="none" xmlns="http://www.w3.org/2000/svg">
<path d="M16.4644 2.57561C16.4116 2.49332 16.3852 2.39679 16.389 2.29906C16.5744 1.44425 17.3318 1.56681 17.8755 1.54481C22.2407 1.35625 26.6059 1.43794 30.971 1.49451C31.521 1.49451 32.1527 1.55422 32.2878 2.3116C32.2407 4.3072 31.6373 6.30282 32.2501 8.30471C32.4324 8.84839 32.2501 9.36693 32.1275 9.87605C31.8416 10.7277 31.983 11.6077 31.9578 12.4782C31.6898 14.7251 31.5848 16.9885 31.6436 19.2506C31.6274 19.8686 31.7004 20.4857 31.8604 21.0828C31.9107 21.9879 32.3004 22.9684 31.3419 23.6724C30.817 23.2607 31.1533 22.7956 31.0622 22.3525C31.2444 24.1784 31.3356 26.0105 31.4519 27.8459C31.1376 29.4172 31.8196 31.0922 30.8516 32.5599C29.9717 33.0156 29.0163 32.8239 28.0955 32.8302C25.4996 32.8585 22.9038 32.8522 20.3079 32.8302C18.1678 32.8302 18.0641 32.7139 17.8724 30.5706C17.8465 30.3126 17.7949 30.0578 17.7184 29.81C17.6638 29.6231 17.6259 29.4317 17.6052 29.2381C17.5078 26.8119 17.7309 24.3732 17.2658 21.9659C17.2187 21.1205 17.4104 20.2595 17.0961 19.4329C16.9592 19.1252 16.8875 18.7924 16.8856 18.4555C17.0427 16.9313 16.8321 15.3789 17.2344 14.1721C17.2564 13.6693 16.8887 13.8861 17.0961 13.8578C17.1307 13.8578 17.137 13.8829 17.1527 13.9458C17.2375 14.2946 17.3475 14.6466 16.9107 14.8572C15.9993 14.1407 16.367 13.1853 16.4204 12.2865C16.5367 11.8873 16.6063 11.476 16.6279 11.0608C16.5933 8.24815 16.499 5.41345 16.4644 2.57561Z" fill="#DC7F42"/>
<path d="M17.1621 18.553C17.247 18.7792 17.3287 19.0055 17.4104 19.2318C17.6712 20.0615 17.4701 20.9163 17.533 21.7459C17.7215 24.2789 17.8158 26.8182 17.9824 29.3543C17.9623 29.3867 17.9533 29.4248 17.9567 29.4628C17.9601 29.5007 17.9757 29.5366 18.0012 29.5649C18.2464 31.9628 18.5763 34.3575 18.4381 36.7931C18.4098 37.2582 18.3909 37.7359 17.9949 38.0501C17.3413 37.5536 18.1961 36.1645 16.587 36.064C15.4305 35.9854 15.0534 36.064 15.1822 37.2079C15.2197 37.3609 15.2162 37.521 15.1721 37.6722C15.128 37.8234 15.0447 37.9602 14.9308 38.069C14.2174 37.4624 14.4437 36.6265 14.4343 35.8691C14.3683 30.4888 14.5129 25.1054 14.3463 19.7283C14.2506 19.3231 14.0667 18.9439 13.8075 18.6179C13.5484 18.292 13.2205 18.0273 12.8472 17.8427C12.2187 17.5096 11.7222 17.0822 11.7567 16.2714C11.8856 15.0143 12.1401 13.7761 11.6876 12.541C10.3614 11.7051 9.01003 11.9125 7.65553 12.4405C7.22813 13.6975 7.56754 15.0237 7.42298 16.3091C7.38841 16.7899 7.30355 17.3305 6.86672 17.5442C4.91198 18.487 4.73599 20.1746 4.93398 22.035C4.93398 23.9741 4.95283 25.9131 4.93398 27.849C4.93398 28.4775 5.0314 29.1281 4.43743 29.5838C-0.697703 23.465 -0.468288 12.431 7.26584 7.58501C10.0377 5.8534 13.1332 5.27201 16.3796 5.31915C16.8806 7.58739 17.0385 9.91797 16.8479 12.233C16.8856 13.0973 16.675 13.9835 17.027 14.8258C17.4261 16.0891 17.1653 17.3305 17.1621 18.553Z" fill="#DAECC8"/>
<path d="M4.50031 32.4309V30.187C4.846 27.4623 4.53802 24.7219 4.66058 21.994C4.67139 21.8965 4.70561 21.8029 4.76032 21.7214C4.81504 21.6399 4.88863 21.5728 4.97485 21.5258C5.10961 21.4495 5.25802 21.4004 5.41168 21.3812C8.13324 21.3027 10.8579 21.5132 13.5826 21.3278C13.7911 21.3061 14.0015 21.34 14.1925 21.4261C14.3835 21.5123 14.5483 21.6475 14.67 21.8181C14.7454 26.375 14.7329 30.9318 14.67 35.4887C13.1898 36.4598 11.4833 36.2964 9.85228 36.3467C8.18468 36.4239 6.51632 36.2113 4.92143 35.7181C4.27403 34.6811 4.98113 33.4806 4.50031 32.4309Z" fill="#E4E4E4"/>
<path d="M23.3249 39.0871L20.5374 38.7069C18.1741 38.2952 18.1741 38.2952 18.1741 35.6994C18.1741 32.5818 18.1741 32.5818 21.2382 32.5818C23.9472 32.5818 26.6562 32.6415 29.362 32.5567C30.6191 32.5158 31.0559 33.0186 31.0213 34.1814C30.9962 35.0677 31.0433 35.9539 30.9993 36.837C30.9807 37.0326 30.9363 37.2249 30.8673 37.409C30.6411 37.9432 30.1571 38.1286 29.6543 38.2826C27.8661 38.8326 26.0151 39.0652 24.1734 39.348C24.0215 39.3712 23.8663 39.3597 23.7194 39.3146C23.5724 39.2694 23.4376 39.1917 23.3249 39.0871V39.0871Z" fill="#8B6238"/>
<path d="M30.8077 32.4247C31.0936 30.8534 30.6977 29.2254 31.0936 27.6541C31.1219 26.3216 30.8517 24.9766 31.2508 23.6598C31.609 22.7987 31.4268 21.9156 31.3576 21.0356C31.2476 18.1444 31.5808 15.2688 31.6719 12.3838C31.7379 11.5259 31.5305 10.6585 31.7976 9.81001L32.071 8.52148C31.9799 8.29206 31.9422 8.07208 32.181 7.89294C33.3909 8.18521 34.5349 8.86089 35.8548 8.52148C36.7033 9.46428 36.2948 10.5831 36.3671 11.639C36.3199 12.2676 36.2036 12.8615 35.6977 13.3329C34.5097 14.4392 34.1452 15.8691 34.1452 17.4404C34.1452 21.7731 34.1452 26.1058 34.1452 30.4385C34.1452 31.111 34.208 31.7962 34.0038 32.4593C33.171 33.4586 32.1747 34.1092 30.8014 33.9615C30.6933 33.4547 30.6954 32.9306 30.8077 32.4247V32.4247Z" fill="#D9EAC7"/>
<path d="M39.3526 38.6817C38.5642 39.179 37.6852 39.5154 36.7662 39.6716C35.7134 39.857 34.6983 39.9513 34.0729 41.1612C33.6487 41.9878 32.7467 41.9092 32.2376 40.9853C32.0449 40.5598 31.8903 40.1181 31.7756 39.6654C31.3074 38.9457 31.1691 38.1128 30.9334 37.3115C30.9334 37.2078 30.9145 37.1072 30.9114 36.9972C30.88 34.5742 31.4111 34.2096 33.7398 35.0362C33.9961 35.0889 34.2576 35.1121 34.5192 35.1053C35.396 35.1053 36.2288 34.7911 37.115 34.8131C39.2552 34.8476 40.044 35.6522 39.9843 37.8426C39.8742 38.1854 39.6516 38.4811 39.3526 38.6817V38.6817Z" fill="#726256"/>
<path d="M39.472 7.88672C39.5663 7.92443 39.7486 7.97153 39.7454 8.0061C39.6197 10.0897 41.4205 10.8754 42.5298 12.1105C44.7517 14.5775 45.044 17.5504 44.5789 20.5957C44.2951 22.7733 43.3595 24.8142 41.895 26.4505C41.367 25.9571 41.4707 25.3034 41.4645 24.6906C41.4487 22.2927 41.4079 19.8917 41.4645 17.497C41.5085 15.844 41.2036 14.3952 39.8554 13.3047C39.6757 13.1475 39.5309 12.9544 39.4303 12.7379C39.3296 12.5214 39.2753 12.2863 39.2709 12.0476C39.3149 10.6648 38.9409 9.25378 39.472 7.88672Z" fill="#DAECC8"/>
<path d="M4.83662 35.5233C8.05595 35.8879 11.3062 35.8879 14.5255 35.5233C14.6212 35.6412 14.6812 35.7841 14.6983 35.935C14.8492 38.2889 14.8523 38.2889 12.665 38.7163C12.538 38.8345 12.3838 38.9195 12.2161 38.9639C12.0483 39.0083 11.8722 39.0107 11.7034 38.9708C10.2593 38.7996 8.80075 38.7869 7.3539 38.9331L6.69708 38.7037C6.19425 38.4114 5.67257 38.5246 5.15088 38.6314C5.00494 38.6053 4.87057 38.5348 4.76601 38.4297C4.66144 38.3246 4.59174 38.1898 4.56635 38.0437C4.77376 37.2707 4.56635 36.4724 4.68263 35.6993L4.83662 35.5233Z" fill="#C49A6C"/>
<path d="M31.2225 37.4466C31.6722 38.0934 31.867 38.8837 31.7693 39.6654C26.3105 40.8313 20.8517 42.0067 15.3897 43.1569C14.9497 43.2512 14.4689 43.1569 14.0195 43.2166C13.3312 43.3109 13.2967 42.7326 13.0767 42.3586C12.8064 41.8558 13.1741 41.6075 13.5607 41.3876C15.0377 40.5453 16.7442 40.5862 18.3281 40.1305C19.912 39.6748 21.6436 39.4171 23.3061 39.0714C25.7542 38.5812 28.2904 38.4806 30.6128 37.4246C30.6513 37.3806 30.699 37.3457 30.7527 37.3225C30.8063 37.2993 30.8645 37.2883 30.9229 37.2904C30.9813 37.2925 31.0385 37.3077 31.0903 37.3347C31.1422 37.3617 31.1873 37.3999 31.2225 37.4466Z" fill="#E4E4E4"/>
<path d="M39.6826 11.969C39.714 12.3241 39.6826 12.6855 40.044 12.9338C41.6499 14.018 41.961 15.6051 41.9296 17.4216C41.8542 20.4291 41.9108 23.4366 41.9108 26.4442C41.9108 29.678 41.9108 32.9118 41.9108 36.1456C41.9108 38.3455 41.5085 38.7038 39.3746 38.6818L39.7203 38.0784C41.2916 37.2298 40.7103 35.6397 40.9994 34.3449C41.2131 28.8043 41.1628 23.2638 40.9994 17.7295C40.9177 16.0796 40.6851 14.5334 39.2803 13.3581C38.3375 12.563 37.5676 12.5724 36.6499 13.3392C35.9819 13.8537 35.4619 14.5358 35.1429 15.3163C34.8239 16.0968 34.7171 16.9479 34.8334 17.783C34.8523 23.3329 34.9277 28.8798 34.802 34.4392C34.8024 34.8498 34.6488 35.2456 34.3715 35.5485H33.7178C33.1993 34.6371 33.0893 33.7226 33.6958 32.8018C33.6958 27.7295 33.7272 22.6541 33.7241 17.5818C33.7241 15.7968 34.0383 14.1437 35.55 12.9841C36.0245 12.6227 35.8862 12.1544 35.9365 11.705C37.1999 11.4504 38.4727 11.3248 39.6826 11.969Z" fill="#CBCDC9"/>
<path d="M32.0993 2.61321C32.1147 2.52252 32.1079 2.42943 32.0794 2.34195C32.051 2.25446 32.0017 2.1752 31.9359 2.11092C31.8701 2.04665 31.7897 1.9993 31.7016 1.97293C31.6134 1.94657 31.5202 1.94194 31.4299 1.95951C26.4173 2.13235 21.389 1.5447 16.389 2.29894C16.1956 2.07221 16.0868 1.78542 16.081 1.48745C16.0753 1.18948 16.1731 0.898726 16.3576 0.664725C16.7784 0.451271 17.247 0.349565 17.7184 0.369332C22.5204 0.39133 27.3224 0.306486 32.1244 0.416479C32.6964 2.07581 32.5236 3.74769 32.1936 5.4196C31.829 4.49565 31.9893 3.55287 32.0993 2.61321Z" fill="#E29E74"/>
<path d="M39.6826 11.969C38.4256 11.8778 37.1371 12.2832 35.9114 11.683L35.8549 8.5403L36.5463 7.34607C37.4262 7.80804 38.5293 7.17639 39.3464 7.92435L39.4595 7.89289C39.8901 9.22853 39.7455 10.6019 39.6826 11.969Z" fill="#726256"/>
<path d="M32.1245 0.416474C31.7505 0.843878 31.2477 0.671011 30.7983 0.671011C25.9795 0.671011 21.166 0.671011 16.3577 0.671011C16.6185 0.067617 17.1465 0.0896234 17.6776 0.0896234C22.1025 0.0896234 26.5284 0.0896234 30.9554 0.0896234C31.3711 0.0605039 31.7841 0.175981 32.1245 0.416474V0.416474Z" fill="#CD7746"/>
<path d="M39.3526 7.91493C38.4412 7.60066 37.2722 8.56547 36.5525 7.33669C36.8919 7.20784 37.3947 7.05067 37.1402 6.63898C37.036 6.4227 36.8889 6.22984 36.708 6.0721C36.527 5.91435 36.3159 5.79503 36.0874 5.72134C35.6223 5.61764 35.0691 5.90675 34.4155 5.19336C35.8925 5.23421 36.8605 4.31654 38.1521 4.43596C39.1986 4.53024 39.802 5.31906 39.1138 5.96959C38.2401 6.79297 38.3564 7.08524 39.34 7.46236C39.3998 7.48436 39.3526 7.75779 39.3526 7.91493Z" fill="#544842"/>
<path d="M30.8077 32.4247L30.924 33.996C31.2665 35.0928 31.3483 36.1645 30.6097 37.1387C30.4746 35.7465 31.1817 33.9489 30.2955 33.0532C29.3527 32.0821 27.5205 32.7767 26.0811 32.7389C23.8813 32.6729 21.6814 32.7389 19.5066 32.7075C18.6518 32.7075 18.2244 32.9558 18.3061 33.864C18.347 34.3291 18.3061 34.8068 18.3061 35.2719C18.3061 37.8866 18.3061 37.8866 20.506 38.6974C19.5852 38.7886 18.6393 38.9709 17.9667 38.0689C17.9667 35.2405 17.9667 32.4121 17.9667 29.5837C18.0934 29.7413 18.1913 29.92 18.2559 30.1117C18.5701 32.4247 18.5701 32.4278 20.9491 32.4278L30.8077 32.4247Z" fill="#C4642F"/>
<path d="M12.665 38.7195C14.7171 38.4901 14.714 37.0601 14.5254 35.5265C14.5254 30.9424 14.5254 26.3572 14.5254 21.771C14.0289 21.0922 14.0509 20.3474 14.2363 19.5711C14.3038 19.3909 14.4216 19.2339 14.5757 19.1186C15.1288 19.6843 14.9089 20.3976 14.912 21.0482C14.9308 26.7259 14.9361 32.4027 14.9277 38.0784C14.362 38.9803 13.4978 38.7792 12.665 38.7195Z" fill="#A47C52"/>
<path d="M16.8384 12.2833C16.6813 9.97867 16.5252 7.67404 16.3702 5.36941L16.4645 2.57556C16.8164 5.80309 17.4135 9.01806 16.8384 12.2833Z" fill="#C9703B"/>
<path d="M4.82713 21.7522C4.82713 24.081 4.82713 26.4097 4.79885 28.7415C4.79885 29.2287 5.01255 29.788 4.50972 30.1872C4.48458 29.9986 4.45944 29.81 4.43115 29.6215L4.52543 21.7239C4.5451 21.702 4.56964 21.685 4.59707 21.6742C4.62451 21.6635 4.65407 21.6593 4.6834 21.6621C4.71274 21.6648 4.74102 21.6744 4.76598 21.6901C4.79093 21.7057 4.81188 21.727 4.82713 21.7522V21.7522Z" fill="#BAA084"/>
<path d="M10.8988 41.5353C11.6122 41.5164 12.357 41.5352 12.3444 42.5063C12.3444 43.3737 11.6467 43.4146 10.9899 43.4209C10.2797 43.4209 9.53171 43.4209 9.54742 42.4466C9.55999 41.5761 10.2357 41.529 10.8988 41.5353Z" fill="#CBCAC9"/>
<path d="M32.0994 2.61328L32.1936 5.42282V7.90239C32.1559 8.10667 32.1214 8.31409 32.0836 8.53093C31.6632 6.58021 31.6685 4.56174 32.0994 2.61328V2.61328Z" fill="#C6642E"/>
<path d="M6.98305 41.5322C7.07429 41.4218 7.18825 41.3324 7.31717 41.2701C7.44609 41.2077 7.58693 41.1739 7.73009 41.1709C7.87326 41.1679 8.01538 41.1959 8.14679 41.2528C8.27819 41.3097 8.39577 41.3943 8.49153 41.5007C8.55765 41.5453 8.6118 41.6055 8.64924 41.6759C8.68667 41.7463 8.70625 41.8248 8.70625 41.9046C8.70625 41.9843 8.68667 42.0628 8.64924 42.1333C8.6118 42.2037 8.55765 42.2638 8.49153 42.3084C8.12384 42.5629 7.74043 42.9086 7.23446 42.5849C6.77878 42.3021 6.44565 42.013 7.0019 41.5196C7.12331 41.6611 7.27467 41.7738 7.44502 41.8496C7.27325 41.7723 7.11677 41.6648 6.98305 41.5322V41.5322Z" fill="#CECECC"/>
<path d="M7.35382 38.9363C8.77822 38.5527 10.2807 38.5679 11.697 38.9803L7.35382 38.9363Z" fill="#9B7653"/>
<path d="M4.50031 32.4309C5.14455 33.4051 4.64173 34.5019 4.83657 35.5233L4.78315 35.6176C4.68258 35.7119 4.60087 35.6993 4.53802 35.5767L4.50031 32.4309Z" fill="#BA9F83"/>
<path d="M4.53796 35.5768C4.62164 35.573 4.70518 35.5869 4.78309 35.6176C4.72024 36.4285 5.0565 37.2738 4.56625 38.0469L4.53796 35.5768Z" fill="#AE855A"/>
<path d="M5.15088 38.6346C5.68513 38.267 6.20053 38.245 6.69708 38.7069C6.18498 38.8271 5.64953 38.802 5.15088 38.6346V38.6346Z" fill="#AB8358"/>
<path d="M29.3212 10.2091C29.3013 11.5314 28.7584 12.792 27.8113 13.7149C26.8642 14.6378 25.5901 15.148 24.2677 15.1337C21.6939 15.1117 19.2395 12.585 19.3117 10.0457C19.3903 7.60072 22.0207 4.93256 24.3652 5.14312C27.3161 5.41024 29.1923 7.25814 29.3212 10.2091Z" fill="#97D058"/>
<path d="M31.7913 12.3053C31.939 15.228 31.5148 18.1255 31.3576 21.0356C31.1377 18.6849 31.0434 16.3405 31.4299 13.9929C31.4929 13.4325 31.5244 12.8691 31.5242 12.3053C31.6122 12.1638 31.7033 12.1701 31.7913 12.3053Z" fill="#C97743"/>
<path d="M17.9823 29.3731C17.5341 26.8524 17.3466 24.2923 17.4229 21.7332C17.5172 21.5949 17.6052 21.5949 17.6963 21.7332C18.0146 24.2666 18.1103 26.823 17.9823 29.3731V29.3731Z" fill="#C97945"/>
<path d="M31.2508 23.6597C31.1985 24.9922 31.1461 26.3247 31.0937 27.6572C30.5972 25.8093 31.0937 23.9426 30.8171 21.8213C31.3891 22.5567 31.0686 23.1506 31.2508 23.6597Z" fill="#C6632D"/>
<path d="M17.1621 18.5529C17.114 17.3231 17.0658 16.0954 17.0176 14.8697C17.071 14.4329 17.1276 13.996 17.181 13.5592C17.2313 15.2437 17.6681 16.9124 17.1621 18.5529Z" fill="#C4632E"/>
<path d="M17.6964 21.7332H17.423C17.423 20.8952 17.423 20.0635 17.423 19.238C17.9824 20.0142 17.5738 20.9036 17.6964 21.7332Z" fill="#C16A37"/>
<path d="M31.7913 12.3053H31.5242C31.6499 11.4756 31.2351 10.5862 31.8102 9.81L31.7913 12.3053Z" fill="#C26835"/>
<path d="M12.0553 12.2989C12.5031 13.6252 12.4954 15.063 12.0333 16.3844C11.6418 16.6963 11.1782 16.9049 10.6851 16.991C10.0243 17.1324 9.34095 17.1324 8.68009 16.991C8.14583 16.7898 7.50787 16.8401 7.08361 16.3624C7.08361 14.9011 6.63735 13.4146 7.32559 11.991C8.86865 12.4592 10.4966 11.9312 12.0553 12.2989Z" fill="#736255"/>
<path d="M12.0553 12.299C10.6568 12.9275 9.19546 12.5535 7.75925 12.5692C7.47641 12.5692 7.36956 12.255 7.32556 12.0004C8.93776 11.5227 10.5499 11.0765 12.0553 12.299Z" fill="#594C43"/>
<path d="M7.08362 16.3719C7.59274 16.4725 8.17727 16.2148 8.60782 16.6862C8.56539 16.78 8.50322 16.8636 8.42554 16.9313C6.70336 18.1443 5.03145 19.3951 4.81461 21.7396L4.50034 21.7113C4.18607 19.7283 4.58205 18.1066 6.66879 17.3115C7.12762 17.1481 7.01448 16.7113 7.08362 16.3719Z" fill="#AD8961"/>
<path d="M10.7542 16.6831C11.1125 16.2745 11.5996 16.4316 12.0427 16.3939C11.983 17.0445 12.4418 17.2519 12.9258 17.4719C13.6769 17.8176 14.3526 18.2575 14.5883 19.128L14.5506 19.5366C13.2118 18.6724 11.7599 17.9653 10.7542 16.6831Z" fill="#B09067"/>
<path d="M10.7542 16.683C12.1653 17.4404 13.6078 18.1569 14.5506 19.5365C14.5506 20.2813 14.5506 21.0261 14.5506 21.771L4.83655 21.7427C4.83655 19.0494 6.00248 17.478 8.62662 16.6892L10.7542 16.683Z" fill="#C49A6C"/>
<path d="M6.20986 28.1475C5.22934 26.7208 5.31419 25.2217 5.78874 23.6787C5.87045 23.4178 6.00244 23.179 6.28214 23.1412C6.56184 23.1035 6.70326 23.3738 6.82582 23.6032C7.32865 24.5617 6.98296 27.2173 6.20986 28.1475Z" fill="#EFEFEF"/>
<path d="M30.6065 37.1481C31.1942 36.1456 30.7008 35.0331 30.9208 34.0054C31.8353 33.5875 32.6492 32.9401 33.68 32.7924C33.68 33.7069 33.68 34.6245 33.702 35.5391C31.4739 34.4391 31.1879 34.6528 31.2193 37.4592H30.6254C30.5816 37.3612 30.5749 37.2507 30.6065 37.1481Z" fill="#FCFCFB"/>
<path d="M34.3589 35.5234C34.3589 35.2091 34.3589 34.9168 34.3589 34.612C34.5115 34.4711 34.6938 34.3663 34.8924 34.3054C35.0909 34.2445 35.3006 34.229 35.506 34.26C37.0913 34.4899 38.7006 34.5015 40.2891 34.2946C40.4684 34.2614 40.6533 34.2768 40.8247 34.3393C40.996 34.4017 41.1474 34.5089 41.2633 34.6497C41.2633 35.2594 41.2256 35.8754 41.2822 36.4819C41.3891 37.673 40.8988 38.2104 39.7109 38.0532C39.648 35.5988 39.0666 35.0551 36.6499 35.2248C35.8705 35.3222 35.1163 35.4448 34.3589 35.5234Z" fill="#E3E3E3"/>
<path d="M25.99 39.2003C26.3608 39.1374 26.6436 39.2255 26.6939 39.6214C26.7038 39.7539 26.6643 39.8852 26.5831 39.9903C26.5019 40.0953 26.3846 40.1665 26.254 40.1902C25.7553 40.3369 25.2525 40.4647 24.7455 40.5736C21.4551 41.2619 18.1458 41.9407 14.8743 42.6353C14.5129 42.7138 14.1201 42.9055 14.0007 42.3713C13.9032 41.9407 14.2018 41.6768 14.5883 41.5888C15.7983 41.3028 17.0145 41.0388 18.2338 40.7874C20.8171 40.2531 23.4025 39.7241 25.99 39.2003Z" fill="#F0F0F0"/>
<path d="M41.2571 34.6623C38.9614 34.9633 36.6355 34.9506 34.3432 34.6246V17.3398C34.5349 17.2518 34.2646 17.2895 34.4689 17.2518C36.7285 16.8496 38.9881 16.7239 41.2414 17.3053C41.6751 17.5912 41.5714 18.0407 41.5714 18.4461C41.5714 23.4743 41.5714 28.5026 41.5714 33.5309C41.5682 33.9143 41.6656 34.3606 41.2571 34.6623Z" fill="#96D058"/>
<path d="M41.2382 17.2958C38.9409 17.5786 36.6404 17.4655 34.34 17.3303C34.0823 15.2153 35.3645 13.7665 36.7442 12.5723C37.3727 12.0286 38.5041 11.9658 39.45 12.9274C40.7134 14.1908 41.5179 15.4793 41.2382 17.2958Z" fill="#E4E4E4"/>
<path d="M10.8957 43.1035C10.4588 43.0721 9.97485 43.0218 9.97485 42.4969C9.97485 41.8684 10.5185 41.8684 10.9899 41.8684C11.4142 41.8684 11.895 41.947 11.895 42.4655C11.8982 43.0846 11.3513 43.0815 10.8957 43.1035Z" fill="#E3E3E3"/>
<path d="M6.98303 41.5321C7.34758 41.6044 7.7907 41.3781 8.21182 42.0004C7.58328 42.1701 7.15902 42.3146 6.99246 41.5195L6.98303 41.5321Z" fill="#E3E3E3"/>
<path d="M26.1534 13.6598C25.9208 14.1123 25.5091 13.4995 25.2514 13.8138C24.8303 14.2223 24.3086 13.952 23.8309 14.0306C22.871 13.8525 22.0025 13.3472 21.3733 12.6007L20.5154 11.1079C20.3457 10.4228 20.2011 9.74399 20.8297 9.18145C20.8957 7.92438 21.8982 7.40267 22.7153 6.71756C24.0226 6.19588 25.2954 6.1739 26.5148 6.97214H26.4991C26.884 7.20678 27.2072 7.53003 27.4419 7.91494L27.7561 8.25119C28.0729 8.82975 28.2376 9.47925 28.2349 10.1388C28.2321 10.7984 28.062 11.4465 27.7404 12.0224V12.0036C27.2879 12.6242 26.7541 13.1812 26.1534 13.6598V13.6598Z" fill="#96D058"/>
<path d="M26.5021 6.97211C25.27 6.60756 23.9727 6.51955 22.7026 6.71439C24.0446 5.66788 25.3079 5.79361 26.5021 6.97211Z" fill="#D8EBC3"/>
<path d="M27.7436 12.0035C28.081 10.7698 28.0864 9.46881 27.7593 8.2323C28.7021 9.50194 28.7492 10.7527 27.7436 12.0035Z" fill="#E2F1D2"/>
<path d="M21.3796 12.6006L23.6864 13.9268V14.1405C22.6964 13.955 21.7536 13.7068 21.3796 12.6006Z" fill="#D6E9C0"/>
<path d="M26.1534 13.6598C26.5462 12.9835 27.0932 12.4095 27.7499 11.9847C27.6493 12.9495 26.9799 13.3769 26.1534 13.6598Z" fill="#D5EBBE"/>
<path d="M20.8328 9.1814L20.5185 11.1079C20.1477 10.3819 19.758 9.66851 20.8328 9.1814Z" fill="#BDE096"/>
<path d="M27.4388 7.90862C27.2271 7.82157 27.0348 7.69342 26.873 7.53159C26.7112 7.36977 26.583 7.17748 26.496 6.96582C27.0742 7.00353 27.4419 7.27066 27.4388 7.90862Z" fill="#DAECC6"/>
<path d="M23.6864 14.1531C23.6801 14.082 23.6801 14.0105 23.6864 13.9394L25.2577 13.8263C24.8523 14.4674 24.23 14.1154 23.6864 14.1531Z" fill="#F5F8F1"/>
</svg>
