<svg width="44" height="42" viewBox="0 0 44 42" fill="none" xmlns="http://www.w3.org/2000/svg">
<path d="M38.4469 8.45483C41.1245 11.7421 42.479 15.6044 43.1389 19.715C44.0503 25.4064 43.4689 30.8621 40.0151 35.7081C38.9403 37.2615 37.5551 38.5751 35.9469 39.566C34.3388 40.557 32.5426 41.2037 30.6719 41.4655C23.758 42.5466 17.0076 41.3461 10.5148 39.1745C4.79197 37.2606 1.95729 32.5969 1.02077 26.808C0.0779653 20.9532 1.33503 15.5353 4.62541 10.5918C4.81726 10.2251 4.97101 9.83968 5.08425 9.4416C6.02705 9.50131 6.48274 10.6075 7.47897 10.5478C7.9692 10.6124 8.46579 10.6124 8.95603 10.5478C9.67256 10.3781 10.3608 10.111 10.7505 9.46048C11.379 8.39511 11.9227 8.8068 12.4821 9.50448C12.9631 10.0815 13.6423 10.4581 14.3866 10.5604C14.7897 10.6217 15.1997 10.6217 15.6028 10.5604C16.7593 10.5604 17.2716 9.40075 18.2426 9.05506C19.22 9.42904 19.814 10.485 20.9579 10.5604C21.3643 10.6201 21.7772 10.6201 22.1835 10.5604C23.2332 10.4567 23.8712 9.73388 24.5154 9.01735C24.6455 8.95848 24.7877 8.93154 24.9302 8.93878C25.8511 9.40075 26.3759 10.5101 27.5512 10.551C27.9596 10.6122 28.3748 10.6122 28.7832 10.551C29.9051 10.4221 30.5934 9.63334 31.2973 8.88538C31.8347 8.54283 32.0578 8.98909 32.281 9.31592C32.5062 9.63708 32.7926 9.91061 33.1237 10.1209C33.4548 10.3312 33.8242 10.4742 34.2106 10.5415C34.6998 10.6058 35.1953 10.6058 35.6845 10.5415C37.0641 10.441 37.545 9.17136 38.4469 8.45483Z" fill="#E0EED2"/>
<path d="M5.07473 5.94383C6.75921 4.23736 8.46254 2.54972 10.125 0.818105C10.3062 0.636324 10.526 0.497592 10.7681 0.412189C11.0102 0.326785 11.2683 0.296911 11.5235 0.324722C18.164 0.324722 24.8045 0.35613 31.4449 0.305847C32.5637 0.305847 33.1514 1.03179 33.802 1.62576C35.301 2.99596 36.6932 4.48876 38.1294 5.93125C38.0666 6.77977 37.3626 6.63834 36.8535 6.70433C36.0802 6.77401 35.3029 6.78556 34.5279 6.7389C33.4091 6.71376 32.328 6.67293 32.0138 8.14056C31.9383 8.48311 31.6178 8.59307 31.3161 8.26309C31.0458 7.00602 30.2602 6.63206 29.0314 6.71377C27.8026 6.79548 26.5172 6.75463 25.2602 6.71377H24.7133C22.6392 6.75148 20.5671 6.75148 18.4971 6.71377H17.944C16.7977 6.78296 15.6482 6.77664 14.5028 6.6949C13.032 6.53776 12.108 7.00917 11.7309 8.46737C11.5046 8.53651 11.2595 8.46737 11.2187 8.26938C10.9044 6.67604 9.75418 6.69804 8.50026 6.69804C7.37832 6.69804 6.21552 6.93374 5.13444 6.38377C5.06825 6.3333 5.02479 6.25864 5.0136 6.17616C5.0024 6.09367 5.02438 6.01012 5.07473 5.94383Z" fill="#C6622A"/>
<path d="M31.4576 8.17826L31.5958 8.25053C31.5204 5.87467 33.1829 6.30208 34.6662 6.25494C35.8196 6.22037 37.039 6.6572 38.1232 5.94067C38.7517 6.71377 38.2772 7.62829 38.4374 8.45482C38.3 9.0832 37.9748 9.65496 37.5051 10.0944C37.0353 10.5338 36.4432 10.8202 35.807 10.9155C35.2296 10.7772 34.6277 10.7772 34.0503 10.9155C32.8466 10.7898 32.2306 9.825 31.4513 9.0959C30.7976 8.79734 30.7976 8.49253 31.4576 8.17826Z" fill="#E09C73"/>
<path d="M5.08429 6.2769C6.65563 6.2769 8.22696 6.35232 9.7983 6.2769C10.9957 6.20776 11.5959 6.53146 11.3948 7.81682C11.3721 7.94805 11.39 8.08307 11.4462 8.20382C11.5024 8.32457 11.5941 8.4253 11.709 8.4925C12.5764 8.63707 12.6801 9.12104 12.3124 9.83129C11.8473 9.35046 11.4608 8.72503 10.9517 9.8784C10.6531 10.5446 9.83916 10.7489 9.13206 10.9375C8.54838 10.7812 7.93292 10.7888 7.35329 10.9595C6.35706 10.8275 5.69081 10.2084 5.10941 9.45729C5.03399 9.11788 4.95543 8.78162 4.88 8.44535C5.09999 7.72882 4.72288 6.962 5.08429 6.2769Z" fill="#E09C73"/>
<path d="M5.08429 6.27701C4.99315 6.9904 5.31369 7.75092 4.85486 8.42974C4.82029 7.59064 4.4526 6.72329 5.07485 5.94391L5.08429 6.27701Z" fill="#D27E4E"/>
<path d="M18.3118 6.3147H24.858C25.6814 7.38949 25.254 8.34803 24.5814 9.28141C24.2672 10.4002 23.3244 10.7082 22.3313 10.9627C22.0932 10.864 21.8379 10.8132 21.5802 10.8132C21.3224 10.8132 21.0672 10.864 20.8291 10.9627C19.6914 10.7647 18.89 10.0765 18.2521 9.16198C18.2332 9.0897 18.2175 9.01425 18.1986 8.94197C17.9441 8.05259 17.5952 7.16008 18.3118 6.3147Z" fill="#E09C73"/>
<path d="M24.5437 26.0381L24.8799 26.3241C24.8799 26.6572 24.8956 26.9903 24.8956 27.3266C24.9208 28.7471 24.8422 30.155 24.9396 31.5849C25.3702 32.3643 26.1967 32.1757 26.7341 32.0406C27.3909 31.8772 26.9164 31.1355 26.9258 30.6673C26.9541 29.253 27.5103 28.062 28.2929 26.9369C30.587 25.0041 32.6549 24.7842 35.2445 26.2015C36.3067 26.8018 37.1301 27.5812 37.1521 28.9074C37.1835 29.4448 36.9981 30.0198 37.4129 30.4975C37.5164 31.1218 37.5164 31.7589 37.4129 32.3831C36.6838 35.7992 31.9132 36.8803 29.3865 35.1141C28.758 34.6647 28.2426 34.561 27.6203 35.001C27.5388 34.9961 27.4598 34.9709 27.3906 34.9275C27.3214 34.8841 27.2643 34.824 27.2244 34.7527C26.9824 33.7691 26.533 33.0714 25.3388 33.0902C24.2105 33.0902 23.8397 32.3737 23.8366 31.3524C23.8334 30.331 23.7831 29.3819 23.8366 28.4045C23.9088 27.1066 23.428 26.4309 22.0547 26.5755C21.9648 26.562 21.8797 26.5261 21.8072 26.4712C21.7347 26.4163 21.6772 26.3441 21.6398 26.2612C22.2621 25.2053 23.3023 25.1267 24.5437 26.0381Z" fill="#FCFDFA"/>
<path d="M31.4575 8.17826C31.093 8.49253 31.0961 8.80678 31.4575 9.09905C30.9515 10.1707 30.0496 10.705 28.9434 10.9595C28.4632 10.7678 27.9277 10.7678 27.4475 10.9595C26.269 10.8024 25.5304 10.0356 24.8925 9.12732C25.1659 8.20966 24.8767 7.22602 25.2256 6.31778C26.7184 6.31778 28.2237 6.40891 29.7039 6.27064C31.2721 6.11036 31.7718 6.72949 31.4575 8.17826Z" fill="#E09C73"/>
<path d="M12.2873 9.81556C12.3009 9.56044 12.2532 9.30574 12.1483 9.07282C12.0433 8.8399 11.884 8.63553 11.6839 8.47678C11.7027 5.98463 11.423 6.30519 13.934 6.2769C15.2728 6.2769 16.6084 6.27689 17.9472 6.29888C18.3369 7.18198 17.9472 8.16564 18.3086 9.05187L18.252 9.14931C17.5795 9.98841 16.8944 10.8023 15.7379 10.9375C15.498 10.8415 15.2414 10.794 14.983 10.7978C14.7247 10.8015 14.4696 10.8565 14.2326 10.9595C13.4752 10.7521 12.7052 10.5824 12.2873 9.81556Z" fill="#E09C73"/>
<path d="M27.6863 34.869C27.9597 34.2404 28.0006 33.5553 29.0188 34.4321C31.2847 36.4152 35.719 35.972 37.2181 32.3831C37.4789 32.3485 37.6643 32.3831 37.4883 32.6974C37.4003 35.2492 33.6354 37.2134 30.7441 36.1952C29.6882 35.8212 28.9088 34.8878 27.3312 35.9217C26.1276 36.7106 23.9748 36.1794 22.2684 35.9972C21.7563 35.9469 21.2405 35.9469 20.7284 35.9972C18.6354 36.148 16.5267 36.0789 14.4242 36.0475C14.2419 36.0475 14.0628 35.7112 13.8805 35.5289C13.7863 35.2146 13.978 35.0701 14.2137 34.9444C15.3042 34.5861 16.5141 35.023 17.5763 34.4479C18.6197 34.5013 19.6631 35.2115 20.719 34.4479C20.851 34.3599 21.0333 34.1996 21.1339 34.2467C23.2332 35.1707 25.4865 34.5735 27.6863 34.869Z" fill="#87B757"/>
<path d="M35.5651 23.5774C34.4872 22.2072 33.6512 22.1946 32.5827 23.5774C32.438 23.7932 32.2404 23.9683 32.0087 24.086C31.7771 24.2037 31.5192 24.2602 31.2596 24.2499C30.4799 24.2028 29.698 24.2028 28.9183 24.2499C27.6298 24.3757 26.5613 24.1494 26.0459 22.7446L25.5274 23.6057C25.2327 23.4296 25.0185 23.1454 24.9303 22.8137C24.8946 22.712 24.8704 22.6066 24.858 22.4995C24.814 21.9275 24.7008 21.2424 25.32 20.9878C26.0208 20.7113 26.2628 21.4372 26.5519 21.896C26.6933 22.1129 26.8222 22.336 26.9761 22.5435C28.4595 23.4863 30.0183 23.0274 31.5676 22.7886C33.2364 20.7459 34.6506 20.6956 35.7851 22.6315C35.8259 22.7958 35.8354 22.9664 35.8134 23.1343C35.7824 23.3056 35.695 23.4616 35.5651 23.5774V23.5774Z" fill="#8FBC62"/>
<path d="M15.4677 16.0444C15.4677 13.7565 15.7254 13.5051 17.9472 13.502C20.6971 13.502 23.4469 13.5208 26.1999 13.502C26.9278 13.4903 27.6521 13.6062 28.3401 13.8445C28.3648 13.8828 28.381 13.926 28.3874 13.9711C28.3938 14.0163 28.3903 14.0623 28.3771 14.1059C28.364 14.1496 28.3415 14.1899 28.3112 14.2239C28.2809 14.258 28.2436 14.2851 28.2018 14.3034C26.9604 14.4793 25.7222 14.2342 24.4777 14.2499C23.2898 14.2499 22.7272 14.6773 22.7995 15.9093C22.8711 16.7458 22.8711 17.5869 22.7995 18.4234C22.7021 19.2656 23.2741 20.7615 22.0359 20.7333C20.9076 20.705 21.4293 19.2091 21.335 18.3448C21.27 17.613 21.27 16.8768 21.335 16.145C21.4293 14.8376 20.9359 14.1431 19.55 14.2782C17.8561 13.9639 16.4513 14.2782 15.7316 16.0695L15.4677 16.0444Z" fill="#A0C77B"/>
<path d="M29.4149 14.7873C29.4846 14.8578 29.542 14.9396 29.5846 15.0293C30.4174 16.7169 30.034 18.3354 29.286 19.9633C29.9869 18.9514 30.5431 17.8985 31.1968 16.8897C31.3136 16.8904 31.4271 16.9286 31.5205 16.9988C31.6139 17.069 31.6822 17.1674 31.7153 17.2794C31.7405 18.9231 30.8417 20.2367 30.1283 21.6069C30.0817 21.7013 30.0159 21.7849 29.9353 21.8526C29.8547 21.9202 29.7609 21.9704 29.6599 22C29.5588 22.0295 29.4528 22.0378 29.3484 22.0242C29.244 22.0107 29.1436 21.9756 29.0535 21.9212C27.9315 21.3995 27.3502 19.407 28.1861 18.5522C29.4149 17.27 28.5821 16.0381 28.2772 14.781C28.3883 14.655 28.5412 14.5735 28.7078 14.5516C28.9585 14.5746 29.2005 14.6553 29.4149 14.7873V14.7873Z" fill="#EFF5E9"/>
<path d="M18.9025 23.5962C18.1169 22.8891 18.3808 21.8803 18.1514 20.6798C17.7963 21.7452 17.5606 22.5309 17.2746 23.2977C16.7938 24.5925 15.6656 24.2876 14.7353 24.1714C13.9622 24.0771 13.5348 23.5145 13.8711 22.6534C16.0364 23.4548 16.3852 23.282 17.0138 21.0821C17.3031 19.937 17.6803 18.816 18.142 17.7289C18.3494 17.5372 18.5568 17.4617 18.7705 17.7289C19.3425 19.2436 18.7988 20.8495 19.1445 22.38C19.2156 22.6359 19.2274 22.9046 19.1791 23.1657C19.1344 23.3347 19.0376 23.4853 18.9025 23.5962V23.5962Z" fill="#8BBA5D"/>
<path d="M8.20177 35.2116C7.55752 32.6974 8.10749 30.1362 7.95036 27.6032C7.89693 26.7672 7.95036 25.9093 8.89316 25.463C9.00586 25.6157 9.07534 25.7959 9.09429 25.9847C8.89945 28.3103 9.04716 30.6453 8.99687 32.974C9.03855 33.5432 8.98652 34.1155 8.84287 34.6679C8.7927 34.8066 8.70714 34.9297 8.59468 35.0251C8.48221 35.1205 8.34676 35.1847 8.20177 35.2116V35.2116Z" fill="#B9D59C"/>
<path d="M18.2394 17.9017C17.8655 19.2971 17.5166 20.7019 17.1049 22.0909C16.6021 23.7848 15.1439 24.0268 13.8711 22.6535C13.8051 22.4272 13.736 22.2041 13.67 21.9809C13.2771 21.7892 13.2174 21.4121 13.1451 21.0381C13.1578 20.8858 13.2128 20.7402 13.3039 20.6174C13.3949 20.4947 13.5185 20.3999 13.6605 20.3436C14.2891 20.5259 14.2294 21.1387 14.4494 21.5756C14.6379 21.9495 14.8013 22.3675 15.2853 22.3863C15.8353 22.4083 16.0898 21.9935 16.269 21.5504C16.6178 20.6893 16.7372 19.7591 17.0735 18.8948C17.2369 18.4674 17.3406 17.996 17.8277 17.7823C17.9009 17.7715 17.9755 17.7766 18.0466 17.7972C18.1176 17.8178 18.1834 17.8535 18.2394 17.9017Z" fill="#EFF5E8"/>
<path d="M28.4469 27.0469C27.5983 28.4705 26.6618 29.8753 27.2904 31.6698C27.4098 32.0123 27.2495 32.3329 26.8472 32.2983C26.1087 32.226 25.3011 32.6534 24.6474 32.0155C24.8093 30.3648 24.7998 28.7019 24.6191 27.0532C24.5759 26.9215 24.5774 26.7792 24.6235 26.6485C24.6695 26.5178 24.7575 26.4059 24.8736 26.3304C25.5493 27.6063 25.0433 28.9734 25.1879 30.2933C25.257 30.9878 24.9899 31.8238 26.1653 31.8175C27.3406 31.8112 26.7435 30.8935 26.7718 30.4536C26.8112 29.2024 27.2606 27.9988 28.0509 27.028C28.0761 26.9996 28.1074 26.9772 28.1425 26.9624C28.1775 26.9476 28.2154 26.9409 28.2534 26.9427C28.2914 26.9445 28.3285 26.9549 28.3619 26.9729C28.3954 26.9909 28.4244 27.0162 28.4469 27.0469V27.0469Z" fill="#A0C67A"/>
<path d="M31.1873 16.9683C30.741 18.3543 30.1556 19.6915 29.44 20.9595C28.714 20.353 28.2741 19.8565 29.0912 19.0048C30.2131 17.842 29.7574 16.3995 29.5846 15.0293C30.3639 15.7427 30.1942 16.7232 30.2728 17.6503C30.8573 17.5372 30.7348 16.8426 31.1779 16.6572L31.2816 16.8081L31.1873 16.9683Z" fill="#99C371"/>
<path d="M18.9026 23.5962C18.9183 23.4485 18.934 23.3039 18.9529 23.1594C19.924 22.9897 20.9768 23.2568 21.8536 22.5308C22.149 22.2857 22.5293 22.6094 22.8247 22.8105C23.0813 22.9815 23.3759 23.087 23.6827 23.1177C23.9895 23.1484 24.2992 23.1033 24.5846 22.9865C24.7972 22.9337 25.0176 22.9199 25.2351 22.9457L25.5274 23.6119C25.4663 23.7567 25.3765 23.8875 25.2632 23.9963C25.15 24.1052 25.0157 24.1899 24.8687 24.2452C24.7217 24.3004 24.5649 24.3252 24.408 24.3179C24.2511 24.3106 24.0973 24.2714 23.956 24.2028C22.3093 23.4234 20.4111 25.1455 18.9026 23.5962Z" fill="#8BBA5C"/>
<path d="M12.6643 21.1481C12.4244 21.7693 12.2291 22.4068 12.0798 23.0558C11.9164 24.0583 11.3036 24.2594 10.4267 24.2437C9.48394 24.2437 8.63856 24.1526 8.54114 22.9364L8.7454 22.8515C11.0678 23.3418 11.0678 23.3418 11.9541 20.4662C12.3123 20.0074 12.6235 19.03 13.1514 20.3499C13.1546 20.7145 12.8937 20.9219 12.6643 21.1481Z" fill="#8BBA5C"/>
<path d="M6.66812 16.6384C6.09615 15.6484 5.35448 14.5265 6.59584 13.6497C7.8372 12.7729 9.65366 13.6497 10.2665 15.221C10.895 15.3467 10.6185 14.5265 11.0584 14.4637C11.1119 14.5202 11.1684 14.5768 11.2219 14.6365C11.2933 14.7789 11.337 14.9335 11.3507 15.0922C11.3585 15.3435 11.3113 15.5933 11.2124 15.8244C11.049 16.1984 10.8573 16.6038 10.4173 16.6541C9.80765 16.7295 9.7888 16.1418 9.56567 15.7741C9.46511 15.5384 9.39911 15.2902 9.30797 15.0514C8.94342 14.0834 8.13575 14.1085 7.37522 14.294C6.41042 14.5171 6.97924 15.2808 6.95724 15.8276C6.97347 16.0544 6.92785 16.2814 6.82525 16.4844L6.66812 16.6384Z" fill="#A1C77C"/>
<path d="M35.587 23.1877C35.6028 23.1017 35.6091 23.0142 35.6059 22.9268C35.6286 22.818 35.6822 22.7181 35.7602 22.6389C35.8382 22.5598 35.9374 22.5048 36.0459 22.4806C37.6738 22.4806 37.6738 22.4805 37.2307 21.0412C37.1112 20.6484 36.9478 20.2681 37.0578 19.8438C37.1493 19.7276 37.2821 19.651 37.4286 19.6301C37.9598 19.6301 37.8372 20.1864 38.0886 20.4221C38.4563 21.2423 38.8648 22.0531 38.7171 22.9959C37.8718 24.1524 36.8598 24.2153 35.587 23.1877Z" fill="#E8F1DF"/>
<path d="M8.20172 35.2116L8.53799 34.8973C9.30166 34.7119 10.0842 34.8533 10.8541 34.7716C11.1684 34.7528 11.4827 34.6774 11.7655 34.8942C11.8504 35.2085 11.9321 35.5227 11.6775 35.793C9.98886 36.5011 8.83026 36.3073 8.20172 35.2116Z" fill="#8AB95B"/>
<path d="M11.6588 35.7804C11.6588 35.4473 11.6588 35.1173 11.6588 34.7873C11.1277 33.502 11.1748 31.4561 11.7122 31.4938C12.9442 31.5755 13.0164 32.9143 13.6764 33.6402C13.8995 34.1399 14.4024 34.5453 14.2044 35.1896L13.8681 35.5227L12.2465 33.1751C11.6588 34.0016 12.4382 35.0733 11.6588 35.7804Z" fill="#9CC475"/>
<path d="M28.4469 27.047L28.0289 27.0218C28.9032 25.9992 30.1233 25.3343 31.4565 25.1541C32.7897 24.9738 34.1427 25.2908 35.2571 26.0445C35.3702 26.1105 35.4048 26.1765 35.3639 26.2393C35.3231 26.3022 35.2885 26.3336 35.2508 26.3336C32.8215 24.9916 30.5588 25.2996 28.4469 27.047Z" fill="#A7CB83"/>
<path d="M11.973 25.7489L12.6204 26.302C12.9629 26.8457 13.1861 27.4617 13.5852 27.974V27.9582C13.7392 28.2882 14.1886 28.5365 13.8649 28.9922C13.7232 29.0635 13.5625 29.0877 13.4061 29.0613C13.2395 28.9356 13.3903 29.165 13.2678 29.0016C12.2244 27.5937 10.9328 26.588 9.13202 26.3775C9.66942 25.2398 10.7411 26.0223 11.511 25.7207C11.5854 25.6913 11.6653 25.6786 11.7451 25.6835C11.825 25.6884 11.9027 25.7107 11.973 25.7489Z" fill="#EAF2E2"/>
<path d="M31.8096 15.4001C31.8504 14.4573 32.0044 13.5774 33.1672 13.5145C34.33 13.4517 35.6059 13.2003 35.9956 14.8942C36.1245 15.4756 36.5896 15.9784 36.5393 16.6352L36.335 16.7075C35.7914 16.5001 35.6468 15.9816 35.4205 15.529C34.5468 13.7911 33.5789 13.7031 32.391 15.2556C32.293 15.3645 32.1651 15.4421 32.0233 15.4787L31.8096 15.4001Z" fill="#A1C77C"/>
<path d="M35.5871 23.1877C36.665 23.5774 37.7335 23.8602 38.7298 22.996C39.4243 23.4202 38.9686 23.9388 38.6166 24.0111C37.5796 24.2216 36.4168 24.759 35.562 23.5774C35.5714 23.4485 35.5808 23.3166 35.5871 23.1877Z" fill="#87B857"/>
<path d="M24.5437 26.0382C23.5852 25.8716 22.5449 25.0954 21.775 26.3964C21.7328 26.434 21.6824 26.4612 21.6278 26.4759C21.5733 26.4906 21.5161 26.4925 21.4607 26.4813C21.3224 26.2707 21.1936 26.3116 21.071 26.4813C20.9495 26.4944 20.8277 26.4594 20.7316 26.3838C20.6832 26.304 20.6553 26.2135 20.6503 26.1203C20.6454 26.0271 20.6636 25.9341 20.7033 25.8496L20.8542 25.7302C21.7373 25.3876 22.5889 24.9319 23.604 25.1017C24.132 25.2305 24.5971 25.3342 24.5437 26.0382Z" fill="#B2D192"/>
<path d="M13.8208 28.9199C13.736 28.6057 13.648 28.2914 13.56 27.9583C14.2168 28.1877 14.1602 27.7634 14.1885 27.3297C14.22 26.6572 13.9434 25.8558 14.8548 25.4976C14.9691 25.6389 15.0362 25.8126 15.0465 25.9941C14.9114 26.8552 15.0465 27.7446 14.8548 28.5962C14.6882 29.3285 14.5782 29.3379 13.8208 28.9199Z" fill="#9FC679"/>
<path d="M37.4758 32.7068L37.2055 32.3926C37.1395 31.764 37.0327 31.1041 37.4004 30.507L37.5418 29.5233C37.6675 30.6013 38.0949 31.6949 37.4758 32.7068Z" fill="#93BF68"/>
<path d="M35.2601 26.3335C35.2601 26.2361 35.2601 26.1387 35.2601 26.0444C36.8315 26.8143 37.438 27.7634 37.1457 28.9073C36.8472 27.8043 36.1118 27.0249 35.2601 26.3335Z" fill="#A3C97E"/>
<path d="M7.60775 19.7843C6.97356 18.8606 6.64392 17.7618 6.66495 16.6416L6.64294 16.6605C7.92516 17.289 7.90003 18.4298 7.77432 19.5989L7.60775 19.7843Z" fill="#A0C679"/>
<path d="M11.0585 14.4573C11.841 12.7351 13.1264 13.5868 14.2923 13.8288C14.1913 13.9596 14.055 14.0588 13.8995 14.1148C12.9567 14.2059 12.0139 14.429 11.0491 14.451L11.0585 14.4573Z" fill="#9CC475"/>
<path d="M8.55687 22.9363C7.91761 22.0151 7.58747 20.9146 7.61407 19.7936L7.59521 19.8094C7.62651 19.7797 7.66356 19.7568 7.70409 19.742C7.74461 19.7273 7.78774 19.7211 7.83078 19.7237C7.87382 19.7264 7.91584 19.7379 7.95425 19.7575C7.99266 19.7771 8.02664 19.8044 8.05405 19.8376C8.5066 20.8276 9.26083 21.7672 8.55058 22.9426L8.55687 22.9363Z" fill="#A3C87E"/>
<path d="M11.973 25.7489C11.8657 25.7541 11.7598 25.7753 11.6588 25.8118C10.7298 25.9676 9.78134 25.9676 8.85236 25.8118C8.85236 25.6893 8.85236 25.5698 8.85236 25.4473C9.90515 25.5101 10.9894 25.0104 11.973 25.7489Z" fill="#88B858"/>
<path d="M25.2225 6.30212C25.1156 7.24493 25.3985 8.22232 24.8893 9.1117L24.5751 9.27198C24.7856 8.2946 24.9868 7.31407 24.8516 6.30527L25.2225 6.30212Z" fill="#D07B49"/>
<path d="M36.5299 16.6384C37.0673 17.2826 37.5104 17.9646 37.4444 18.8571L37.215 18.8917C36.511 18.3103 36.0113 17.6629 36.4576 16.6918L36.5299 16.6384Z" fill="#A1C77B"/>
<path d="M13.8586 13.8382L14.2891 13.8193C14.9428 14.1902 14.8422 14.8155 14.8234 15.4127C14.9679 15.5509 14.9522 15.6704 14.7825 15.7741C13.956 15.3781 13.9214 14.6019 13.8586 13.8382Z" fill="#B2D193"/>
<path d="M12.6644 21.1482L12.9786 20.3594C13.4438 20.4002 13.4249 20.6925 13.3275 21.0256L13.6669 21.9684C12.8466 22.2921 13.23 21.1544 12.6644 21.1482Z" fill="#9AC372"/>
<path d="M14.8297 25.7773C14.8345 25.6852 14.8345 25.5929 14.8297 25.5008C15.6782 25.4473 16.5613 25.0733 17.3439 25.7584L17.149 25.9501C16.3539 26.2456 15.5651 26.3524 14.8297 25.7773Z" fill="#89B95A"/>
<path d="M18.3086 25.4881C19.1634 25.4536 20.0496 25.0859 20.8227 25.7458L20.7567 25.8715C20.3988 26.0697 19.9987 26.1795 19.5898 26.1915C19.1808 26.2035 18.7749 26.1175 18.406 25.9407C18.3685 25.9186 18.3359 25.8891 18.3104 25.8538C18.2849 25.8186 18.2671 25.7784 18.2579 25.7358C18.2487 25.6933 18.2485 25.6493 18.2572 25.6066C18.266 25.564 18.2834 25.5237 18.3086 25.4881V25.4881Z" fill="#89B959"/>
<path d="M13.5726 27.974C12.9063 27.6158 12.6895 26.9998 12.6078 26.3052C13.142 26.7358 13.5443 27.2449 13.5726 27.974Z" fill="#A4C97F"/>
<path d="M18.3086 25.4882C18.3086 25.5919 18.3086 25.6956 18.2866 25.8024C18.3683 26.431 18.2426 26.8772 17.4475 26.6572C17.3278 26.5636 17.2382 26.4368 17.1898 26.2927C17.1744 26.1427 17.2134 25.9921 17.2998 25.8684L17.347 25.7616L18.3086 25.4882Z" fill="#A9CC86"/>
<path d="M14.8014 15.7332C14.8014 15.6264 14.8014 15.5195 14.8234 15.4189L15.4519 16.0475V16.0255C15.7662 16.544 15.8856 16.9683 15.0025 16.8646C14.7134 16.5252 14.5028 16.1763 14.8014 15.7332Z" fill="#90BD64"/>
<path d="M34.0597 10.9187C34.3151 10.7334 34.6225 10.6337 34.9381 10.6337C35.2536 10.6337 35.561 10.7334 35.8164 10.9187H34.0597Z" fill="#CA6C37"/>
<path d="M7.32812 10.9532C7.58019 10.7528 7.89175 10.6419 8.21375 10.6379C8.53575 10.6339 8.84994 10.7371 9.10689 10.9313L7.32812 10.9532Z" fill="#C96A34"/>
<path d="M38.0887 20.4221C37.7053 20.3656 37.8373 19.9067 37.5701 19.759C37.149 19.5013 37.215 19.1871 37.4601 18.8477H37.4444C37.6958 19.0166 37.8913 19.2565 38.0061 19.5369C38.1208 19.8172 38.1495 20.1254 38.0887 20.4221V20.4221Z" fill="#9BC474"/>
<path d="M27.4443 10.9533C27.6437 10.7568 27.9124 10.6466 28.1923 10.6466C28.4722 10.6466 28.7409 10.7568 28.9403 10.9533H27.4443Z" fill="#C86731"/>
<path d="M14.22 10.969C14.317 10.868 14.4331 10.7873 14.5615 10.7315C14.6899 10.6757 14.8281 10.646 14.968 10.6439C15.108 10.6419 15.247 10.6676 15.377 10.7196C15.507 10.7716 15.6254 10.8489 15.7253 10.9469L14.22 10.969Z" fill="#C86730"/>
<path d="M20.8291 10.9533C20.9267 10.8527 21.0434 10.7728 21.1724 10.7182C21.3014 10.6636 21.4401 10.6355 21.5802 10.6355C21.7203 10.6355 21.859 10.6636 21.988 10.7182C22.117 10.7728 22.2338 10.8527 22.3313 10.9533H20.8291Z" fill="#C86731"/>
<path d="M29.4148 14.7873L28.736 14.7434C28.4878 14.6271 28.1829 14.5485 28.3338 14.1588V13.8445C28.7837 14.0383 29.1617 14.368 29.4148 14.7873V14.7873Z" fill="#A1C77C"/>
<path d="M31.1779 16.6572C31.1779 16.1355 31.1779 15.6107 31.8064 15.4001H31.7876C32.1019 16.0821 32.0013 16.5567 31.1591 16.6572H31.1779Z" fill="#9AC371"/>
<path d="M18.3085 9.06769C17.7083 8.21288 18.0854 7.22922 17.9471 6.3147H18.3117C18.3117 7.22922 18.3085 8.14688 18.3085 9.06769Z" fill="#D2804F"/>
<path d="M22.0075 26.3838C24.0157 25.9218 24.2074 26.0506 24.2074 28.0023V30.2021C24.2074 32.4743 24.2074 32.4774 26.4513 32.7351C28.0446 32.9206 27.3941 33.9922 27.3061 34.8565C25.7347 35.2619 24.1225 34.957 22.5323 35.0324C22.4265 35.038 22.3207 35.021 22.2218 34.9827C22.123 34.9445 22.0334 34.8857 21.9588 34.8103C21.8843 34.7349 21.8266 34.6446 21.7895 34.5453C21.7524 34.446 21.7368 34.34 21.7436 34.2342C21.6524 31.6006 21.2313 28.9702 22.0075 26.3838Z" fill="#87B757"/>
<path d="M36.5613 30.5007C36.5613 33.0148 34.7511 34.9256 32.3375 34.9538C30.0057 34.9853 27.8435 32.9457 27.7869 30.6641C27.7272 28.3165 29.858 26.1889 32.2684 26.1826C34.8171 26.1795 36.5581 27.9237 36.5613 30.5007Z" fill="#76BD22"/>
<path d="M22.0076 26.3838C22.0076 28.7785 22.039 31.1732 21.9856 33.568C21.9636 34.5108 22.281 34.8596 23.2426 34.825C24.5908 34.7685 25.9453 34.8251 27.2998 34.8471L27.6769 34.8753C25.5588 35.2807 23.4406 35.7804 21.3916 34.5611C21.0773 34.3819 21.0333 34.8502 20.7976 34.8942C20.6519 34.8569 20.518 34.7835 20.4082 34.6808C20.2983 34.578 20.2161 34.4494 20.1691 34.3065C19.9617 31.695 19.7008 29.0834 20.3199 26.4875C20.3759 26.4071 20.461 26.3516 20.5572 26.3328C20.6535 26.314 20.7532 26.3334 20.8353 26.387C20.9173 26.3815 20.9995 26.3922 21.0773 26.4184C21.4701 28.4328 21.1276 30.4567 21.2376 32.0752C21.4639 30.4693 20.9705 28.4297 21.4544 26.4372C21.5481 26.4091 21.6458 26.3964 21.7436 26.3995C21.831 26.387 21.9193 26.3818 22.0076 26.3838V26.3838Z" fill="#EDF4E5"/>
<path d="M24.6128 27.0469C25.0228 28.6744 25.0325 30.3771 24.6411 32.0092L24.6128 27.0469Z" fill="#87B857"/>
<path d="M20.8542 26.3776H20.5211C19.0441 26.4216 18.6009 27.2387 18.7015 28.6214C18.7942 29.8621 18.7942 31.108 18.7015 32.3487C18.5915 33.766 19.1132 34.5171 20.5588 34.5643L20.8039 34.8785C19.6757 35.5699 18.6386 35.3814 17.6613 34.5643C17.0767 34.5643 16.9762 34.1054 16.9605 33.7126C16.84 31.4837 16.8484 29.2497 16.9856 27.0218C16.9999 26.8922 17.0405 26.7669 17.1048 26.6534C17.169 26.54 17.2558 26.4408 17.3596 26.3619C17.9881 26.7139 18.1013 26.189 18.2835 25.7962C19.1132 25.7585 19.9428 25.6642 20.7631 25.8685C20.7977 26.0382 20.826 26.211 20.8542 26.3776Z" fill="#F7FAF5"/>
<path d="M17.3627 26.3524C17.3627 28.6497 17.3438 30.9471 17.3627 33.2444C17.3627 33.7 17.2338 34.1871 17.6769 34.5548C16.709 35.793 15.3828 35.0482 14.22 35.1834C13.9811 34.7748 13.7423 34.3631 13.5003 33.9546C13.5665 33.8979 13.6449 33.8571 13.7293 33.8353C13.8137 33.8135 13.902 33.8113 13.9874 33.8289C14.1854 33.8823 14.3708 33.9829 14.5625 34.0551C16.1339 34.6617 16.5519 34.4134 16.5896 32.7541C16.6241 31.255 16.5896 29.7528 16.6053 28.2506C16.6053 27.6221 16.555 26.9936 16.9195 26.4436C16.9721 26.3738 17.05 26.3274 17.1364 26.3145C17.2228 26.3015 17.3108 26.3231 17.3815 26.3744L17.3627 26.3524Z" fill="#F6F9F3"/>
<path d="M25.2351 22.9395L24.8643 23.1752C24.74 23.1512 24.6274 23.0861 24.5447 22.9903C24.462 22.8945 24.4141 22.7736 24.4086 22.6472C24.4306 21.8269 24.4431 21.0036 24.5406 20.1865C24.5846 19.8251 24.704 19.4542 25.1157 19.3599C25.2958 19.3265 25.4819 19.3518 25.6466 19.4322C25.8112 19.5125 25.9457 19.6436 26.0302 19.8062C26.5676 20.617 27.0987 21.4404 27.2181 22.446C27.204 22.5735 27.1513 22.6935 27.0671 22.7901C26.9828 22.8868 26.871 22.9553 26.7467 22.9866C26.1622 22.5215 26.2219 21.6007 25.3577 21.101C25.3137 21.7767 25.2728 22.3581 25.2351 22.9395Z" fill="#F5F9F1"/>
<path d="M35.9013 22.5812L35.6059 22.9363C34.528 21.0507 33.4532 21.1293 31.7813 23.2255C31.6495 23.1939 31.5348 23.1132 31.4607 22.9999C31.3865 22.8865 31.3584 22.7491 31.3821 22.6158C32.0578 20.8464 32.5952 20.5102 34.3928 20.639C35.6405 20.7207 36.1999 21.299 35.9013 22.5812Z" fill="#E8F1DF"/>
<path d="M31.4135 22.8954L31.7812 23.2097C30.0905 23.4674 28.3934 23.8037 26.7529 22.9803C26.8504 22.864 26.9446 22.7446 27.0389 22.6283C28.5065 22.4554 29.9993 22.0312 31.4135 22.8954Z" fill="#FBFCFA"/>
<path d="M24.5028 22.8954L24.8642 23.1688C24.8202 23.2003 24.7825 23.2348 24.7385 23.2631C23.626 24.0205 22.5386 22.5434 21.8598 22.93C21.4328 23.2079 20.9428 23.3739 20.4348 23.4129C19.9269 23.4519 19.4173 23.3626 18.9528 23.1531L18.868 22.6786C18.5003 21.0035 19.1005 19.2688 18.5537 17.6063L18.2394 17.8954H17.8938C17.3218 16.7169 18.054 15.6956 18.2489 14.583C18.3135 14.3882 18.4413 14.2205 18.6121 14.1066C18.783 13.9927 18.9869 13.9392 19.1917 13.9545C21.7058 13.6402 21.7278 13.6717 21.7404 16.1889C21.7404 17.5969 21.7844 19.0173 21.819 20.4127C21.819 20.463 21.9541 20.5133 22.1521 20.6515C22.5323 19.0802 22.2872 17.5403 22.3218 16.0255C22.3689 13.8256 22.3218 13.8476 24.4494 13.8256C25.7567 13.8256 27.0609 13.8036 28.3306 14.165L28.7297 14.7496L28.3432 14.7685C27.3501 15.3059 26.4387 14.5893 25.4708 14.5799C23.3652 14.5579 23.1452 14.7119 23.1326 16.8238C23.1326 17.9677 23.1986 19.1148 23.1106 20.2524C23.0195 21.4655 23.3652 22.3674 24.5028 22.8954Z" fill="#FAFCF9"/>
<path d="M19.2011 13.9451L18.6166 14.4196C17.3595 14.517 16.6524 15.1424 16.5235 16.4215C16.4568 16.7807 16.3514 17.1315 16.2093 17.468C16.0364 18.0054 15.9453 18.8005 15.323 18.7942C14.5562 18.7942 14.5185 17.996 14.4902 17.358C14.5625 17.0438 14.5971 16.6792 15.0528 16.676C15.9013 16.8866 15.3388 16.2549 15.4456 16.0224C16.5833 13.6214 16.5833 13.6214 19.2011 13.9451Z" fill="#F5F9F2"/>
<path d="M24.5028 22.8954C23.0698 23.0903 22.5764 22.5026 22.6769 21.0475C22.8058 19.1619 22.7398 17.2763 22.6958 15.3907C22.6738 14.5139 23.0101 14.1776 23.8774 14.1714C25.3985 14.1714 26.9038 14.1713 28.3463 14.7496C29.726 16.5535 29.7071 17.204 28.0572 19.1211C27.7052 19.5328 27.8655 19.7496 28.0886 20.045C28.5632 20.6484 28.648 21.6352 29.4211 21.8772C29.9051 22.0281 29.9899 21.2487 30.1628 20.8558C30.6656 19.7245 31.0836 18.5554 31.5361 17.3989C31.5895 16.8522 31.7634 16.3241 32.0453 15.8527C32.2998 15.4567 32.4381 15.001 32.6738 14.5956C33.2489 13.6874 34.638 13.6119 35.0874 14.5956C35.8636 16.2832 36.775 17.9331 37.1741 19.7779C37.3061 20.1676 37.4538 20.5541 37.5669 20.947C37.7304 21.5127 38.4752 22.116 37.9189 22.622C37.3627 23.128 36.5582 22.9363 35.8856 22.5623C35.5368 21.9683 35.7285 20.9155 34.5374 21.0381C33.4972 21.1449 32.1867 20.595 31.8567 22.2732C31.8127 22.4963 31.5424 22.6786 31.3979 22.8797C29.9522 22.5371 28.45 23.194 27.017 22.6252L25.2634 19.2154C24.4463 20.5761 25.3514 21.9086 24.5028 22.8954Z" fill="#85B754"/>
<path d="M32.1396 16.0915C32.0857 16.585 31.8741 17.0479 31.5362 17.4115L31.1874 16.9683C31.1874 16.8584 31.1685 16.7515 31.1622 16.6541C31.373 16.5231 31.5433 16.3363 31.6542 16.1144C31.7652 15.8925 31.8124 15.6442 31.7908 15.397C31.8904 15.3845 31.9884 15.3613 32.083 15.3279C32.1805 15.4284 32.2395 15.5598 32.2499 15.6994C32.2602 15.839 32.2212 15.9778 32.1396 16.0915V16.0915Z" fill="#F3F8EF"/>
<path d="M18.5507 17.6125C19.3489 19.2593 18.7612 20.9941 18.8649 22.6848C18.2772 21.0255 18.8586 19.2907 18.5507 17.6125Z" fill="#E0EED2"/>
<path d="M8.85549 25.8275H11.6619C10.9077 26.4246 9.91457 25.7332 9.14776 26.2958C9.47774 28.3259 9.29231 30.3813 9.2766 32.4052C9.2766 33.6308 9.62858 34.4165 10.8699 34.6805C10.9491 34.7199 11.0106 34.7877 11.042 34.8704C11.0735 34.9531 11.0726 35.0446 11.0397 35.1267C10.1848 35.243 9.31747 35.4944 8.52551 34.9004C8.52551 32.4774 8.54122 30.0576 8.54122 27.6377C8.54751 27.0029 8.51608 26.3838 8.85549 25.8275Z" fill="#FDFDFC"/>
<path d="M14.8014 17.333C14.7959 17.6092 14.8465 17.8836 14.9502 18.1397C15.0539 18.3957 15.2086 18.6281 15.4048 18.8226C15.7191 17.7635 16.1245 16.7892 16.2502 15.7773C16.4513 14.1651 17.2401 13.8729 18.604 14.4197L17.8875 17.8766C17.1898 19.0017 17.1427 20.3373 16.6776 21.541C16.4387 22.1695 16.3633 22.8358 15.4205 22.8609C14.4023 22.8892 14.2546 22.1758 13.9937 21.5064C13.846 21.1261 13.7203 20.7333 13.5852 20.3436C13.306 20.0682 13.0855 19.7391 12.9369 19.3761C12.7884 19.0131 12.7149 18.6239 12.721 18.2318C12.7901 18.986 12.2715 19.7025 12.0673 20.5008C11.7939 21.1293 11.6964 21.7924 11.3633 22.3864C11.0491 22.9332 10.6342 23.2632 9.99312 23.1878C9.73561 23.1621 9.49062 23.0641 9.28651 22.9051C9.0824 22.746 8.92751 22.5324 8.83976 22.2889C8.41864 21.3461 8.29607 20.3059 7.92837 19.3442C7.59211 18.0872 7.15527 16.8301 6.80644 15.573C6.69958 15.0011 6.22504 14.2311 7.16156 14.0394C7.9598 13.876 8.97803 13.6183 9.38029 14.822C9.49343 15.1676 9.58456 15.5196 9.69456 15.8622C9.80769 16.7861 10.4739 17.6032 10.232 18.4863C10.1031 17.2638 11.1025 16.255 11.269 15.0011C11.5676 14.0897 12.2433 13.8697 13.1138 13.9703C13.9843 14.0708 14.1037 14.7308 14.352 15.3782C14.6003 16.0256 14.6286 16.695 14.8014 17.333Z" fill="#85B754"/>
<path d="M11.973 20.3278C11.9895 19.4463 12.3091 18.5973 12.8781 17.9237L13.6134 20.3593C13.5223 20.5824 13.4343 20.8055 13.3463 21.0255L12.9975 20.3593C12.9441 20.221 12.8938 19.9602 12.8403 19.9633C12.3501 19.9633 12.4004 20.4221 12.2464 20.7144C11.9258 20.7395 11.8221 20.617 11.973 20.3278Z" fill="#EFF5E9"/>
<path d="M11.973 20.3279L12.2464 20.7145C12.1804 20.9659 12.1113 21.2173 12.0484 21.4718C11.4827 23.6717 10.6248 24.0363 8.56006 22.9332C8.72034 21.8238 7.93153 20.9156 7.89696 19.8502C7.77125 19.536 7.61097 19.2217 8.18294 19.1902C8.45949 20.133 8.72661 21.0759 9.01888 22.0187C9.18544 22.5498 9.48401 22.8892 10.1314 22.8797C10.3895 22.8954 10.645 22.8208 10.8542 22.6689C11.0634 22.517 11.2134 22.2972 11.2785 22.047C11.4733 21.4593 11.7247 20.8967 11.973 20.3279Z" fill="#EFF5E9"/>
<path d="M11.4105 15.1614C11.2237 16.4162 10.8241 17.63 10.2288 18.7503C9.97111 17.7635 9.462 16.9684 9.52486 16.013C9.57775 15.8868 9.67345 15.7833 9.79512 15.7208L10.3199 16.6101C10.8919 16.0759 10.9893 15.4222 11.0899 14.7717C11.3916 14.7434 11.5676 14.8157 11.4105 15.1614Z" fill="#F4F8F0"/>
<path d="M11.4104 15.1613L11.0962 14.7716C11.0962 14.6616 11.0679 14.5516 11.0553 14.4416C11.8504 13.5774 12.8843 13.8131 13.8837 13.8382C14.5122 14.3128 14.4022 15.155 14.8265 15.7238C14.9114 16.0381 14.9994 16.3524 15.0842 16.6666L14.8297 17.3235C14.6097 16.6949 14.4085 16.0664 14.1603 15.4379C13.9371 14.8847 13.846 14.2436 12.9943 14.1808C12.1427 14.1179 11.7467 14.5422 11.4104 15.1613Z" fill="#F4F8EF"/>
<path d="M9.79512 15.7207L9.52485 16.013C9.41532 15.726 9.32501 15.432 9.25457 15.133C9.06915 13.9954 8.20493 14.1525 7.46326 14.2311C6.34446 14.3505 7.14899 15.1739 6.99186 15.6767C7.17099 15.991 6.99184 16.0318 6.72472 15.991C6.58958 15.2147 5.70649 14.2499 7.18041 13.8508C8.83031 13.4077 9.48399 13.9042 9.79512 15.7207Z" fill="#F5F9F1"/>
<path d="M6.72475 15.9816C6.81274 15.8748 6.90389 15.7711 6.99189 15.6674C7.6927 16.7327 7.68641 18.0401 8.16724 19.1809C8.07296 19.4009 7.97867 19.6209 7.88125 19.8408C7.7908 19.796 7.68922 19.7785 7.58898 19.7906C7.5826 18.6743 7.25532 17.5833 6.64618 16.6479C6.67446 16.4342 6.6996 16.211 6.72475 15.9816Z" fill="#E5EFDA"/>
<path d="M32.1396 16.0915L32.083 15.3184C32.259 14.3536 32.7116 13.8005 33.8209 13.788C34.9303 13.7754 35.3922 14.2625 35.6751 15.2179C35.8859 15.7331 36.148 16.2259 36.4576 16.6886C36.5572 17.4956 36.9079 18.2509 37.4601 18.8477C37.4978 19.1619 37.5324 19.4573 37.5701 19.759L37.1899 19.7873C36.5928 18.458 36.0176 17.1161 35.386 15.8024C35.0717 15.1393 35.0088 14.2499 33.9309 14.1965C32.853 14.1431 32.7964 15.089 32.3973 15.7018L32.1396 16.0915Z" fill="#F2F7EC"/>
<path d="M11.0459 35.111L11.0051 34.7433C10.3074 33.3606 10.6248 31.9149 10.7474 30.4725C10.8071 29.7716 11.3759 29.5674 11.841 30.0859C12.7838 31.1984 13.9026 32.2858 13.8272 33.9357L13.4878 33.9608L11.6588 31.3461V34.7873L11.0459 35.111Z" fill="#F6F9F2"/>
<path d="M13.8272 33.9356C13.1516 32.4641 12.1901 31.1416 10.9988 30.045V34.759C8.85236 34.913 8.79892 34.913 8.86806 32.7571C8.9372 30.6012 8.50351 28.4233 9.14776 26.2957C11.5456 25.6169 12.3973 27.446 13.4501 28.9482C13.8115 29.1525 13.9781 29.5767 14.3929 29.7779C14.836 29.0708 14.6569 28.2788 14.6789 27.5245C14.7229 25.8338 15.474 25.4755 17.0736 26.3995C17.0736 28.5428 17.1333 30.6861 17.0736 32.8294C17.0579 33.4831 17.5544 34.4887 16.5959 34.737C15.6374 34.9853 14.4872 35.1204 13.8272 33.9356Z" fill="#85B755"/>
<path d="M17.0673 26.3838C15.0182 25.9376 14.8454 26.0696 14.8391 28.0086V31.0256C14.2141 30.4513 13.7393 29.7327 13.4563 28.9325H13.8209C14.4305 29.4354 14.4808 29.0111 14.5154 28.524C14.5751 27.6095 14.3143 26.6541 14.8297 25.7899L17.2998 25.8747L17.3658 26.3933H17.0673V26.3838Z" fill="#FBFCF9"/>
<path d="M21.4733 26.4341V32.3644H21.0867V26.3933C21.2407 26.1293 21.3601 26.2267 21.4733 26.4341Z" fill="#90BD64"/>
<path d="M34.6411 32.8232C34.6367 32.8676 34.6177 32.9094 34.5869 32.9418C34.5562 32.9743 34.5156 32.9956 34.4714 33.0023C33.2395 33.6309 32.0107 34.1651 30.6687 33.238C28.296 31.5913 28.7392 28.524 31.247 27.5215C32.2181 27.1475 33.1106 27.4021 33.9811 27.8578C35.7788 29.5454 35.8982 30.4379 34.6411 32.8232Z" fill="#F6CF4B"/>
<path d="M31.2376 27.6912C29.9805 28.4077 29.132 29.4291 29.352 30.9439C29.5562 32.2952 30.4896 33.0557 31.7875 33.458C32.7963 33.7723 33.5317 32.8829 34.4651 32.996C33.4406 34.1148 32.1961 34.2028 30.9045 33.6246C30.2907 33.3828 29.7687 32.954 29.4122 32.399C29.0557 31.844 28.8829 31.1909 28.9183 30.5322C28.9183 29.184 29.4085 28.0935 30.8039 27.6126C30.8332 27.5794 30.8706 27.5544 30.9125 27.5399C30.9544 27.5253 30.9993 27.5219 31.0429 27.5298C31.0865 27.5377 31.1273 27.5567 31.1614 27.585C31.1955 27.6132 31.2217 27.6498 31.2376 27.6912V27.6912Z" fill="#EDEFCC"/>
<path d="M34.6411 32.8231C35.3985 31.0821 35.6059 29.4164 33.9874 27.9959C33.8774 27.9331 33.8428 27.8702 33.8805 27.8105C33.9183 27.7508 33.956 27.7225 33.9937 27.7225C36.027 29.0582 36.2784 31.0412 34.6411 32.8231Z" fill="#ECF1D5"/>
<path d="M33.9937 27.7225C33.9937 27.8137 33.9937 27.9048 33.9937 27.9959C33.1137 27.6803 32.1725 27.5727 31.2439 27.6817L30.8134 27.622C31.8944 26.7546 32.9535 26.9369 33.9937 27.7225Z" fill="#EEF4DF"/>
<path d="M20.5587 34.5737C18.5537 35.0954 18.3148 34.932 18.3117 33.0306C18.3117 31.3546 18.3117 29.6785 18.3117 28.0024C18.3117 26.057 18.5003 25.9219 20.5116 26.3744L20.5587 34.5737Z" fill="#86B756"/>
<path d="M19.2388 18.5366C19.2388 17.4367 19.2608 16.3367 19.2388 15.2399C19.2168 14.5077 19.5279 14.1997 20.2539 14.1903C20.9799 14.1809 21.4324 14.4071 21.4198 15.2588C21.3926 17.4544 21.3926 19.6543 21.4198 21.8584C21.4198 22.6001 21.1244 22.8892 20.3985 22.8955C19.6725 22.9018 19.2011 22.7132 19.2357 21.8427C19.2734 20.7333 19.2388 19.6334 19.2388 18.5366Z" fill="#86B756"/>
<path d="M33.802 16.9244C34.0691 17.6755 35.0088 18.2852 34.4305 19.1243C34.22 19.4385 33.3557 19.4385 33.1734 19.1243C32.6266 18.2789 33.604 17.7038 33.802 16.9244Z" fill="#F7FAF4"/>
<path d="M26.1748 17.6189C25.3702 17.6378 24.8328 17.707 24.8517 16.8836C24.8517 16.255 25.166 16.0005 25.7254 16.123C26.2847 16.2456 27.017 16.123 27.0484 16.915C27.0798 17.6504 26.4293 17.6064 26.1748 17.6189Z" fill="#EFF5E9"/>
<path d="M32.0232 32.0281C32.0232 32.0752 32.0924 32.6095 31.5644 32.5089C31.2495 32.472 30.9555 32.3323 30.7282 32.1112C30.5009 31.8901 30.353 31.6002 30.3074 31.2864C30.2351 30.5919 30.8573 30.8433 31.2156 30.7993C31.9038 30.7113 32.149 31.0822 32.0232 32.0281Z" fill="#FAF8E9"/>
<path d="M34.2609 31.1984C34.0692 31.849 33.6889 32.3486 33.0478 32.4995C32.5261 32.6221 32.5356 32.1318 32.501 31.7893C32.4444 31.2236 32.5261 30.7144 33.2804 30.8024C33.6292 30.8433 34.1477 30.5636 34.2609 31.1984Z" fill="#FCF9EA"/>
<path d="M32.0673 29.3726C32.1333 29.9508 31.8662 30.3153 31.1936 30.2273C30.8479 30.1896 30.2508 30.4222 30.3357 29.7245C30.38 29.4408 30.5162 29.1796 30.7235 28.9809C30.9307 28.7821 31.1975 28.657 31.4828 28.6246C31.9982 28.5335 32.0579 28.9169 32.0673 29.3726Z" fill="#FCF9EB"/>
<path d="M34.2231 29.6993C34.2923 30.2273 33.9403 30.2241 33.6323 30.2273C33.1232 30.2273 32.5166 30.3404 32.5104 29.5391C32.5104 29.1557 32.3595 28.5963 33.0226 28.6403C33.6857 28.6843 33.9717 29.2217 34.2231 29.6993Z" fill="#FDFAED"/>
<path d="M25.4393 16.8961C25.4708 16.6478 25.7002 16.6572 25.8762 16.6823C26.0522 16.7075 26.335 16.8018 26.3507 16.8992C26.4073 17.2512 26.1087 17.2638 25.8605 17.2512C25.6122 17.2386 25.4645 17.1852 25.4393 16.8961Z" fill="#A3C87F"/>
</svg>
