<svg width="24" height="20" viewBox="0 0 24 20" fill="none" xmlns="http://www.w3.org/2000/svg">
<path d="M19.7813 6.14124C24.1119 6.18838 23.8667 5.67298 23.851 10.3461C23.851 11.8043 23.8227 13.2657 23.851 14.727C23.8825 15.9558 23.3828 16.6503 22.1069 16.5372C21.0164 16.4366 20.5638 16.8326 20.6958 17.9388C20.7492 18.3945 20.7932 18.9539 20.281 19.1959C19.7153 19.4505 19.3947 18.9162 19.1559 18.5674C17.8988 16.7855 16.2049 16.2732 14.1276 16.5341C13.3042 16.6378 12.4494 16.4649 11.6135 16.5718C10.1804 16.7603 9.22502 16.2575 8.70648 14.9124C9.02075 14.0419 9.77813 14.2085 10.413 14.1928C12.1383 14.1488 13.8699 14.1928 15.5858 14.1928C18.9705 14.1928 19.2722 13.8785 19.2753 10.5756C19.2753 9.63275 19.2753 8.68995 19.2753 7.74714C19.3193 7.16575 19.2942 6.57492 19.7813 6.14124Z" fill="#CAE6AB"/>
<path d="M19.7813 6.14109C19.7813 8.0267 19.7624 9.88716 19.7404 11.7633C19.7184 13.8029 18.9327 14.6075 16.912 14.6232C14.6713 14.6232 12.4337 14.6232 10.193 14.6232C9.69956 14.6232 9.14015 14.4095 8.72846 14.8966C7.9805 15.6257 7.23151 16.3537 6.48146 17.0808C6.02263 17.5239 5.53866 17.9953 4.83784 17.7093C4.13703 17.4233 3.96731 16.8168 4.0553 16.1379C4.21244 14.9532 3.83846 14.5069 2.54997 14.5666C0.736641 14.6389 0.0358238 13.8281 0.0358238 11.9582C0.0106824 9.02503 0.0106824 6.09186 0.0358238 3.15869C0.0515372 1.20081 0.720934 0.543987 2.71339 0.537702C7.4756 0.518846 12.2378 0.518846 17 0.537702C19.027 0.537702 19.6964 1.25109 19.7341 3.30012C19.7373 4.25863 19.7624 5.19829 19.7813 6.14109Z" fill="#83C63B"/>
<path d="M9.84102 1.36434C12.2986 1.36434 14.7593 1.38634 17.2169 1.36434C18.4111 1.36434 18.9077 1.8766 18.8919 3.07396C18.8584 6.05322 18.8584 9.03352 18.8919 12.0149C18.8919 13.2719 18.4205 13.8376 17.1352 13.8093C15.0453 13.7653 12.946 13.8911 10.8498 13.7685C9.3099 13.6774 8.11255 14.0828 7.16975 15.3084C6.76118 15.7846 6.32015 16.2319 5.84982 16.6472C5.62983 16.8609 5.4067 17.1657 5.061 16.9929C4.71531 16.82 4.74673 16.4869 4.74673 16.1632C4.731 16.0075 4.731 15.8506 4.74673 15.695C5.083 14.0136 4.2659 13.5831 2.76056 13.7873C1.35264 13.9759 0.777537 13.3128 0.802678 11.9017C0.863437 9.02514 0.863437 6.14855 0.802678 3.27195C0.771251 1.82632 1.37465 1.32349 2.77 1.36434C5.13329 1.39891 7.48087 1.36434 9.84102 1.36434Z" fill="#FDFDFD"/>
<path d="M10.9566 7.57108C10.7555 8.24047 10.3972 8.66788 9.73411 8.57046C9.60399 8.56265 9.47692 8.52795 9.36089 8.46854C9.24487 8.40914 9.14243 8.32632 9.06003 8.22532C8.97764 8.12432 8.91708 8.00732 8.88218 7.88174C8.84729 7.75615 8.83882 7.62469 8.85731 7.49566C8.8639 7.2328 8.97446 6.9833 9.16475 6.80184C9.35504 6.62039 9.60952 6.52181 9.87239 6.52772C10.5198 6.54029 10.8215 7.0274 10.9566 7.57108Z" fill="#FED962"/>
<path d="M13.4519 6.50891C14.1339 6.56862 14.4356 6.9206 14.467 7.52085C14.4765 7.649 14.4607 7.77776 14.4204 7.89978C14.3801 8.0218 14.3162 8.1347 14.2323 8.23202C14.1484 8.32935 14.0462 8.40919 13.9314 8.467C13.8167 8.52481 13.6916 8.55945 13.5635 8.56894C13.4353 8.57843 13.3066 8.56259 13.1846 8.52232C13.0625 8.48205 12.9496 8.41814 12.8523 8.33425C12.755 8.25035 12.6752 8.14809 12.6173 8.03334C12.5595 7.91858 12.5249 7.79356 12.5154 7.66542C12.4589 6.94889 12.924 6.67862 13.4519 6.50891Z" fill="#FED964"/>
<path d="M6.3181 8.58298C5.74299 8.51698 5.32815 8.26871 5.29358 7.64017C5.27198 7.50996 5.27854 7.37662 5.3128 7.24915C5.34706 7.12168 5.40825 7.00302 5.49222 6.90118C5.5762 6.79934 5.68102 6.71667 5.79962 6.65875C5.91823 6.60083 6.04787 6.56899 6.17982 6.56538C6.31134 6.54881 6.44489 6.56112 6.57116 6.60146C6.69743 6.64181 6.81338 6.70921 6.91092 6.79898C7.00846 6.88874 7.08524 6.9987 7.13591 7.12118C7.18659 7.24367 7.20995 7.37574 7.20433 7.50818C7.25776 8.13358 6.89006 8.43842 6.3181 8.58298Z" fill="#FED963"/>
</svg>
