<svg width="14" height="14" viewBox="0 0 14 14" fill="none" xmlns="http://www.w3.org/2000/svg">
<path d="M13.01 5.2437C13.01 8.64407 10.0025 11.0639 6.76554 10.1211C5.42676 9.7283 4.51853 9.88857 3.66686 10.9791C3.08245 11.6502 2.45242 12.2803 1.78126 12.8647C1.46699 13.179 1.08672 13.4398 0.700174 13.0218C0.313624 12.6038 0.753599 12.3587 0.979872 12.1073C1.31596 11.7062 1.68723 11.336 2.08924 11.0011C3.56315 9.88543 4.28911 8.83264 3.19232 6.81189C2.2118 4.99857 2.86862 2.99668 4.43996 1.54162C6.08987 0.00485283 8.08547 -0.249703 10.0968 0.636532C12.0515 1.49134 13.0415 3.07839 13.01 5.2437Z" fill="#979797"/>
<path d="M7.9723 9.16263C6.91987 9.19057 5.89922 8.80056 5.13359 8.07793C4.36796 7.35529 3.91968 6.35885 3.88682 5.30657C3.82396 3.12869 5.741 1.24308 7.9943 1.26508C9.04784 1.27327 10.056 1.69478 10.8019 2.43888C11.5478 3.18299 11.9717 4.1902 11.9824 5.24371C11.9766 5.76441 11.8683 6.27887 11.6636 6.75768C11.4589 7.23649 11.1619 7.67027 10.7895 8.03423C10.4171 8.39818 9.97658 8.68517 9.49319 8.87879C9.0098 9.07241 8.49299 9.16886 7.9723 9.16263V9.16263Z" fill="#EEEEEE"/>
<path d="M10.1879 5.20587C9.7354 4.23479 8.72032 3.70053 8.04778 2.85829C7.84037 2.59745 8.28977 2.22976 8.70775 2.22976C9.48399 2.20147 11.027 3.73196 11.0176 4.50191C11.0113 4.96074 10.7253 5.11159 10.1879 5.20587Z" fill="#9C9C9C"/>
</svg>
